%TF.GenerationSoftware,KiCad,Pcbnew,10.0.3*%
%TF.CreationDate,2026-07-05T13:29:07+05:30*%
%TF.ProjectId,arduino_nano_pcb(phase1),61726475-696e-46f5-9f6e-616e6f5f7063,1*%
%TF.SameCoordinates,Original*%
%TF.FileFunction,Legend,Top*%
%TF.FilePolarity,Positive*%
%FSLAX46Y46*%
G04 Gerber Fmt 4.6, Leading zero omitted, Abs format (unit mm)*
G04 Created by KiCad (PCBNEW 10.0.3) date 2026-07-05 13:29:07*
%MOMM*%
%LPD*%
G01*
G04 APERTURE LIST*
%ADD10C,0.200000*%
%ADD11C,0.100000*%
%ADD12C,0.300000*%
%ADD13C,0.400000*%
%ADD14C,0.150000*%
%ADD15C,0.120000*%
%ADD16C,3.600000*%
%ADD17C,6.400000*%
%ADD18R,1.700000X1.700000*%
%ADD19C,1.700000*%
%ADD20R,1.600000X1.600000*%
%ADD21O,1.600000X1.600000*%
G04 APERTURE END LIST*
D10*
X44500000Y-75000000D02*
X51500000Y-75000000D01*
X51500000Y-81000000D01*
X44500000Y-81000000D01*
X44500000Y-75000000D01*
X104500000Y-73000000D02*
X111000000Y-73000000D01*
X111000000Y-85000000D01*
X104500000Y-85000000D01*
X104500000Y-73000000D01*
D11*
X45142856Y-76394868D02*
X45257142Y-76432963D01*
X45257142Y-76432963D02*
X45447618Y-76432963D01*
X45447618Y-76432963D02*
X45523809Y-76394868D01*
X45523809Y-76394868D02*
X45561904Y-76356772D01*
X45561904Y-76356772D02*
X45599999Y-76280582D01*
X45599999Y-76280582D02*
X45599999Y-76204391D01*
X45599999Y-76204391D02*
X45561904Y-76128201D01*
X45561904Y-76128201D02*
X45523809Y-76090106D01*
X45523809Y-76090106D02*
X45447618Y-76052010D01*
X45447618Y-76052010D02*
X45295237Y-76013915D01*
X45295237Y-76013915D02*
X45219047Y-75975820D01*
X45219047Y-75975820D02*
X45180952Y-75937725D01*
X45180952Y-75937725D02*
X45142856Y-75861534D01*
X45142856Y-75861534D02*
X45142856Y-75785344D01*
X45142856Y-75785344D02*
X45180952Y-75709153D01*
X45180952Y-75709153D02*
X45219047Y-75671058D01*
X45219047Y-75671058D02*
X45295237Y-75632963D01*
X45295237Y-75632963D02*
X45485714Y-75632963D01*
X45485714Y-75632963D02*
X45599999Y-75671058D01*
X46247619Y-76394868D02*
X46171428Y-76432963D01*
X46171428Y-76432963D02*
X46019047Y-76432963D01*
X46019047Y-76432963D02*
X45942857Y-76394868D01*
X45942857Y-76394868D02*
X45904761Y-76318677D01*
X45904761Y-76318677D02*
X45904761Y-76013915D01*
X45904761Y-76013915D02*
X45942857Y-75937725D01*
X45942857Y-75937725D02*
X46019047Y-75899629D01*
X46019047Y-75899629D02*
X46171428Y-75899629D01*
X46171428Y-75899629D02*
X46247619Y-75937725D01*
X46247619Y-75937725D02*
X46285714Y-76013915D01*
X46285714Y-76013915D02*
X46285714Y-76090106D01*
X46285714Y-76090106D02*
X45904761Y-76166296D01*
X46628571Y-75899629D02*
X46628571Y-76432963D01*
X46628571Y-75975820D02*
X46666666Y-75937725D01*
X46666666Y-75937725D02*
X46742856Y-75899629D01*
X46742856Y-75899629D02*
X46857142Y-75899629D01*
X46857142Y-75899629D02*
X46933333Y-75937725D01*
X46933333Y-75937725D02*
X46971428Y-76013915D01*
X46971428Y-76013915D02*
X46971428Y-76432963D01*
X47314285Y-76394868D02*
X47390476Y-76432963D01*
X47390476Y-76432963D02*
X47542857Y-76432963D01*
X47542857Y-76432963D02*
X47619047Y-76394868D01*
X47619047Y-76394868D02*
X47657143Y-76318677D01*
X47657143Y-76318677D02*
X47657143Y-76280582D01*
X47657143Y-76280582D02*
X47619047Y-76204391D01*
X47619047Y-76204391D02*
X47542857Y-76166296D01*
X47542857Y-76166296D02*
X47428571Y-76166296D01*
X47428571Y-76166296D02*
X47352381Y-76128201D01*
X47352381Y-76128201D02*
X47314285Y-76052010D01*
X47314285Y-76052010D02*
X47314285Y-76013915D01*
X47314285Y-76013915D02*
X47352381Y-75937725D01*
X47352381Y-75937725D02*
X47428571Y-75899629D01*
X47428571Y-75899629D02*
X47542857Y-75899629D01*
X47542857Y-75899629D02*
X47619047Y-75937725D01*
X48114285Y-76432963D02*
X48038095Y-76394868D01*
X48038095Y-76394868D02*
X48000000Y-76356772D01*
X48000000Y-76356772D02*
X47961904Y-76280582D01*
X47961904Y-76280582D02*
X47961904Y-76052010D01*
X47961904Y-76052010D02*
X48000000Y-75975820D01*
X48000000Y-75975820D02*
X48038095Y-75937725D01*
X48038095Y-75937725D02*
X48114285Y-75899629D01*
X48114285Y-75899629D02*
X48228571Y-75899629D01*
X48228571Y-75899629D02*
X48304762Y-75937725D01*
X48304762Y-75937725D02*
X48342857Y-75975820D01*
X48342857Y-75975820D02*
X48380952Y-76052010D01*
X48380952Y-76052010D02*
X48380952Y-76280582D01*
X48380952Y-76280582D02*
X48342857Y-76356772D01*
X48342857Y-76356772D02*
X48304762Y-76394868D01*
X48304762Y-76394868D02*
X48228571Y-76432963D01*
X48228571Y-76432963D02*
X48114285Y-76432963D01*
X48723810Y-76432963D02*
X48723810Y-75899629D01*
X48723810Y-76052010D02*
X48761905Y-75975820D01*
X48761905Y-75975820D02*
X48800000Y-75937725D01*
X48800000Y-75937725D02*
X48876191Y-75899629D01*
X48876191Y-75899629D02*
X48952381Y-75899629D01*
X49714286Y-75632963D02*
X50171429Y-75632963D01*
X49942857Y-76432963D02*
X49942857Y-75632963D01*
X50361905Y-75632963D02*
X50895239Y-76432963D01*
X50895239Y-75632963D02*
X50361905Y-76432963D01*
X45047618Y-77682823D02*
X45161904Y-77720918D01*
X45161904Y-77720918D02*
X45352380Y-77720918D01*
X45352380Y-77720918D02*
X45428571Y-77682823D01*
X45428571Y-77682823D02*
X45466666Y-77644727D01*
X45466666Y-77644727D02*
X45504761Y-77568537D01*
X45504761Y-77568537D02*
X45504761Y-77492346D01*
X45504761Y-77492346D02*
X45466666Y-77416156D01*
X45466666Y-77416156D02*
X45428571Y-77378061D01*
X45428571Y-77378061D02*
X45352380Y-77339965D01*
X45352380Y-77339965D02*
X45199999Y-77301870D01*
X45199999Y-77301870D02*
X45123809Y-77263775D01*
X45123809Y-77263775D02*
X45085714Y-77225680D01*
X45085714Y-77225680D02*
X45047618Y-77149489D01*
X45047618Y-77149489D02*
X45047618Y-77073299D01*
X45047618Y-77073299D02*
X45085714Y-76997108D01*
X45085714Y-76997108D02*
X45123809Y-76959013D01*
X45123809Y-76959013D02*
X45199999Y-76920918D01*
X45199999Y-76920918D02*
X45390476Y-76920918D01*
X45390476Y-76920918D02*
X45504761Y-76959013D01*
X46152381Y-77682823D02*
X46076190Y-77720918D01*
X46076190Y-77720918D02*
X45923809Y-77720918D01*
X45923809Y-77720918D02*
X45847619Y-77682823D01*
X45847619Y-77682823D02*
X45809523Y-77606632D01*
X45809523Y-77606632D02*
X45809523Y-77301870D01*
X45809523Y-77301870D02*
X45847619Y-77225680D01*
X45847619Y-77225680D02*
X45923809Y-77187584D01*
X45923809Y-77187584D02*
X46076190Y-77187584D01*
X46076190Y-77187584D02*
X46152381Y-77225680D01*
X46152381Y-77225680D02*
X46190476Y-77301870D01*
X46190476Y-77301870D02*
X46190476Y-77378061D01*
X46190476Y-77378061D02*
X45809523Y-77454251D01*
X46533333Y-77187584D02*
X46533333Y-77720918D01*
X46533333Y-77263775D02*
X46571428Y-77225680D01*
X46571428Y-77225680D02*
X46647618Y-77187584D01*
X46647618Y-77187584D02*
X46761904Y-77187584D01*
X46761904Y-77187584D02*
X46838095Y-77225680D01*
X46838095Y-77225680D02*
X46876190Y-77301870D01*
X46876190Y-77301870D02*
X46876190Y-77720918D01*
X47219047Y-77682823D02*
X47295238Y-77720918D01*
X47295238Y-77720918D02*
X47447619Y-77720918D01*
X47447619Y-77720918D02*
X47523809Y-77682823D01*
X47523809Y-77682823D02*
X47561905Y-77606632D01*
X47561905Y-77606632D02*
X47561905Y-77568537D01*
X47561905Y-77568537D02*
X47523809Y-77492346D01*
X47523809Y-77492346D02*
X47447619Y-77454251D01*
X47447619Y-77454251D02*
X47333333Y-77454251D01*
X47333333Y-77454251D02*
X47257143Y-77416156D01*
X47257143Y-77416156D02*
X47219047Y-77339965D01*
X47219047Y-77339965D02*
X47219047Y-77301870D01*
X47219047Y-77301870D02*
X47257143Y-77225680D01*
X47257143Y-77225680D02*
X47333333Y-77187584D01*
X47333333Y-77187584D02*
X47447619Y-77187584D01*
X47447619Y-77187584D02*
X47523809Y-77225680D01*
X48019047Y-77720918D02*
X47942857Y-77682823D01*
X47942857Y-77682823D02*
X47904762Y-77644727D01*
X47904762Y-77644727D02*
X47866666Y-77568537D01*
X47866666Y-77568537D02*
X47866666Y-77339965D01*
X47866666Y-77339965D02*
X47904762Y-77263775D01*
X47904762Y-77263775D02*
X47942857Y-77225680D01*
X47942857Y-77225680D02*
X48019047Y-77187584D01*
X48019047Y-77187584D02*
X48133333Y-77187584D01*
X48133333Y-77187584D02*
X48209524Y-77225680D01*
X48209524Y-77225680D02*
X48247619Y-77263775D01*
X48247619Y-77263775D02*
X48285714Y-77339965D01*
X48285714Y-77339965D02*
X48285714Y-77568537D01*
X48285714Y-77568537D02*
X48247619Y-77644727D01*
X48247619Y-77644727D02*
X48209524Y-77682823D01*
X48209524Y-77682823D02*
X48133333Y-77720918D01*
X48133333Y-77720918D02*
X48019047Y-77720918D01*
X48628572Y-77720918D02*
X48628572Y-77187584D01*
X48628572Y-77339965D02*
X48666667Y-77263775D01*
X48666667Y-77263775D02*
X48704762Y-77225680D01*
X48704762Y-77225680D02*
X48780953Y-77187584D01*
X48780953Y-77187584D02*
X48857143Y-77187584D01*
X50190477Y-77720918D02*
X49923810Y-77339965D01*
X49733334Y-77720918D02*
X49733334Y-76920918D01*
X49733334Y-76920918D02*
X50038096Y-76920918D01*
X50038096Y-76920918D02*
X50114286Y-76959013D01*
X50114286Y-76959013D02*
X50152381Y-76997108D01*
X50152381Y-76997108D02*
X50190477Y-77073299D01*
X50190477Y-77073299D02*
X50190477Y-77187584D01*
X50190477Y-77187584D02*
X50152381Y-77263775D01*
X50152381Y-77263775D02*
X50114286Y-77301870D01*
X50114286Y-77301870D02*
X50038096Y-77339965D01*
X50038096Y-77339965D02*
X49733334Y-77339965D01*
X50457143Y-76920918D02*
X50990477Y-77720918D01*
X50990477Y-76920918D02*
X50457143Y-77720918D01*
X47390476Y-78246968D02*
X47314286Y-78208873D01*
X47314286Y-78208873D02*
X47200000Y-78208873D01*
X47200000Y-78208873D02*
X47085714Y-78246968D01*
X47085714Y-78246968D02*
X47009524Y-78323158D01*
X47009524Y-78323158D02*
X46971429Y-78399349D01*
X46971429Y-78399349D02*
X46933333Y-78551730D01*
X46933333Y-78551730D02*
X46933333Y-78666016D01*
X46933333Y-78666016D02*
X46971429Y-78818397D01*
X46971429Y-78818397D02*
X47009524Y-78894587D01*
X47009524Y-78894587D02*
X47085714Y-78970778D01*
X47085714Y-78970778D02*
X47200000Y-79008873D01*
X47200000Y-79008873D02*
X47276191Y-79008873D01*
X47276191Y-79008873D02*
X47390476Y-78970778D01*
X47390476Y-78970778D02*
X47428572Y-78932682D01*
X47428572Y-78932682D02*
X47428572Y-78666016D01*
X47428572Y-78666016D02*
X47276191Y-78666016D01*
X47771429Y-79008873D02*
X47771429Y-78208873D01*
X47771429Y-78208873D02*
X48228572Y-79008873D01*
X48228572Y-79008873D02*
X48228572Y-78208873D01*
X48609524Y-79008873D02*
X48609524Y-78208873D01*
X48609524Y-78208873D02*
X48800000Y-78208873D01*
X48800000Y-78208873D02*
X48914286Y-78246968D01*
X48914286Y-78246968D02*
X48990476Y-78323158D01*
X48990476Y-78323158D02*
X49028571Y-78399349D01*
X49028571Y-78399349D02*
X49066667Y-78551730D01*
X49066667Y-78551730D02*
X49066667Y-78666016D01*
X49066667Y-78666016D02*
X49028571Y-78818397D01*
X49028571Y-78818397D02*
X48990476Y-78894587D01*
X48990476Y-78894587D02*
X48914286Y-78970778D01*
X48914286Y-78970778D02*
X48800000Y-79008873D01*
X48800000Y-79008873D02*
X48609524Y-79008873D01*
X46971429Y-79992066D02*
X47580953Y-79992066D01*
X47276191Y-80296828D02*
X47276191Y-79687304D01*
X48342857Y-79496828D02*
X47961905Y-79496828D01*
X47961905Y-79496828D02*
X47923809Y-79877780D01*
X47923809Y-79877780D02*
X47961905Y-79839685D01*
X47961905Y-79839685D02*
X48038095Y-79801590D01*
X48038095Y-79801590D02*
X48228571Y-79801590D01*
X48228571Y-79801590D02*
X48304762Y-79839685D01*
X48304762Y-79839685D02*
X48342857Y-79877780D01*
X48342857Y-79877780D02*
X48380952Y-79953971D01*
X48380952Y-79953971D02*
X48380952Y-80144447D01*
X48380952Y-80144447D02*
X48342857Y-80220637D01*
X48342857Y-80220637D02*
X48304762Y-80258733D01*
X48304762Y-80258733D02*
X48228571Y-80296828D01*
X48228571Y-80296828D02*
X48038095Y-80296828D01*
X48038095Y-80296828D02*
X47961905Y-80258733D01*
X47961905Y-80258733D02*
X47923809Y-80220637D01*
X48609524Y-79496828D02*
X48876191Y-80296828D01*
X48876191Y-80296828D02*
X49142857Y-79496828D01*
D10*
X65726816Y-77867219D02*
X66298244Y-77867219D01*
X66012530Y-78867219D02*
X66012530Y-77867219D01*
X66631578Y-78867219D02*
X66631578Y-77867219D01*
X66631578Y-77867219D02*
X66964911Y-78581504D01*
X66964911Y-78581504D02*
X67298244Y-77867219D01*
X67298244Y-77867219D02*
X67298244Y-78867219D01*
X68298244Y-78867219D02*
X67726816Y-78867219D01*
X68012530Y-78867219D02*
X68012530Y-77867219D01*
X68012530Y-77867219D02*
X67917292Y-78010076D01*
X67917292Y-78010076D02*
X67822054Y-78105314D01*
X67822054Y-78105314D02*
X67726816Y-78152933D01*
X69155387Y-77867219D02*
X68964911Y-77867219D01*
X68964911Y-77867219D02*
X68869673Y-77914838D01*
X68869673Y-77914838D02*
X68822054Y-77962457D01*
X68822054Y-77962457D02*
X68726816Y-78105314D01*
X68726816Y-78105314D02*
X68679197Y-78295790D01*
X68679197Y-78295790D02*
X68679197Y-78676742D01*
X68679197Y-78676742D02*
X68726816Y-78771980D01*
X68726816Y-78771980D02*
X68774435Y-78819600D01*
X68774435Y-78819600D02*
X68869673Y-78867219D01*
X68869673Y-78867219D02*
X69060149Y-78867219D01*
X69060149Y-78867219D02*
X69155387Y-78819600D01*
X69155387Y-78819600D02*
X69203006Y-78771980D01*
X69203006Y-78771980D02*
X69250625Y-78676742D01*
X69250625Y-78676742D02*
X69250625Y-78438647D01*
X69250625Y-78438647D02*
X69203006Y-78343409D01*
X69203006Y-78343409D02*
X69155387Y-78295790D01*
X69155387Y-78295790D02*
X69060149Y-78248171D01*
X69060149Y-78248171D02*
X68869673Y-78248171D01*
X68869673Y-78248171D02*
X68774435Y-78295790D01*
X68774435Y-78295790D02*
X68726816Y-78343409D01*
X68726816Y-78343409D02*
X68679197Y-78438647D01*
X69583959Y-77867219D02*
X70203006Y-77867219D01*
X70203006Y-77867219D02*
X69869673Y-78248171D01*
X69869673Y-78248171D02*
X70012530Y-78248171D01*
X70012530Y-78248171D02*
X70107768Y-78295790D01*
X70107768Y-78295790D02*
X70155387Y-78343409D01*
X70155387Y-78343409D02*
X70203006Y-78438647D01*
X70203006Y-78438647D02*
X70203006Y-78676742D01*
X70203006Y-78676742D02*
X70155387Y-78771980D01*
X70155387Y-78771980D02*
X70107768Y-78819600D01*
X70107768Y-78819600D02*
X70012530Y-78867219D01*
X70012530Y-78867219D02*
X69726816Y-78867219D01*
X69726816Y-78867219D02*
X69631578Y-78819600D01*
X69631578Y-78819600D02*
X69583959Y-78771980D01*
X70536340Y-77867219D02*
X71203006Y-77867219D01*
X71203006Y-77867219D02*
X70774435Y-78867219D01*
X72774435Y-78200552D02*
X72774435Y-78867219D01*
X72536340Y-77819600D02*
X72298245Y-78533885D01*
X72298245Y-78533885D02*
X72917292Y-78533885D01*
X73298245Y-78486266D02*
X74060150Y-78486266D01*
X74536340Y-78867219D02*
X74536340Y-77867219D01*
X74536340Y-77867219D02*
X74774435Y-77867219D01*
X74774435Y-77867219D02*
X74917292Y-77914838D01*
X74917292Y-77914838D02*
X75012530Y-78010076D01*
X75012530Y-78010076D02*
X75060149Y-78105314D01*
X75060149Y-78105314D02*
X75107768Y-78295790D01*
X75107768Y-78295790D02*
X75107768Y-78438647D01*
X75107768Y-78438647D02*
X75060149Y-78629123D01*
X75060149Y-78629123D02*
X75012530Y-78724361D01*
X75012530Y-78724361D02*
X74917292Y-78819600D01*
X74917292Y-78819600D02*
X74774435Y-78867219D01*
X74774435Y-78867219D02*
X74536340Y-78867219D01*
X75536340Y-78867219D02*
X75536340Y-78200552D01*
X75536340Y-77867219D02*
X75488721Y-77914838D01*
X75488721Y-77914838D02*
X75536340Y-77962457D01*
X75536340Y-77962457D02*
X75583959Y-77914838D01*
X75583959Y-77914838D02*
X75536340Y-77867219D01*
X75536340Y-77867219D02*
X75536340Y-77962457D01*
X76441101Y-78200552D02*
X76441101Y-79010076D01*
X76441101Y-79010076D02*
X76393482Y-79105314D01*
X76393482Y-79105314D02*
X76345863Y-79152933D01*
X76345863Y-79152933D02*
X76250625Y-79200552D01*
X76250625Y-79200552D02*
X76107768Y-79200552D01*
X76107768Y-79200552D02*
X76012530Y-79152933D01*
X76441101Y-78819600D02*
X76345863Y-78867219D01*
X76345863Y-78867219D02*
X76155387Y-78867219D01*
X76155387Y-78867219D02*
X76060149Y-78819600D01*
X76060149Y-78819600D02*
X76012530Y-78771980D01*
X76012530Y-78771980D02*
X75964911Y-78676742D01*
X75964911Y-78676742D02*
X75964911Y-78391028D01*
X75964911Y-78391028D02*
X76012530Y-78295790D01*
X76012530Y-78295790D02*
X76060149Y-78248171D01*
X76060149Y-78248171D02*
X76155387Y-78200552D01*
X76155387Y-78200552D02*
X76345863Y-78200552D01*
X76345863Y-78200552D02*
X76441101Y-78248171D01*
X76917292Y-78867219D02*
X76917292Y-78200552D01*
X76917292Y-77867219D02*
X76869673Y-77914838D01*
X76869673Y-77914838D02*
X76917292Y-77962457D01*
X76917292Y-77962457D02*
X76964911Y-77914838D01*
X76964911Y-77914838D02*
X76917292Y-77867219D01*
X76917292Y-77867219D02*
X76917292Y-77962457D01*
X77250625Y-78200552D02*
X77631577Y-78200552D01*
X77393482Y-77867219D02*
X77393482Y-78724361D01*
X77393482Y-78724361D02*
X77441101Y-78819600D01*
X77441101Y-78819600D02*
X77536339Y-78867219D01*
X77536339Y-78867219D02*
X77631577Y-78867219D01*
X78631578Y-77867219D02*
X79298244Y-77867219D01*
X79298244Y-77867219D02*
X78869673Y-78867219D01*
X79679197Y-78486266D02*
X80441102Y-78486266D01*
X80869673Y-78819600D02*
X81012530Y-78867219D01*
X81012530Y-78867219D02*
X81250625Y-78867219D01*
X81250625Y-78867219D02*
X81345863Y-78819600D01*
X81345863Y-78819600D02*
X81393482Y-78771980D01*
X81393482Y-78771980D02*
X81441101Y-78676742D01*
X81441101Y-78676742D02*
X81441101Y-78581504D01*
X81441101Y-78581504D02*
X81393482Y-78486266D01*
X81393482Y-78486266D02*
X81345863Y-78438647D01*
X81345863Y-78438647D02*
X81250625Y-78391028D01*
X81250625Y-78391028D02*
X81060149Y-78343409D01*
X81060149Y-78343409D02*
X80964911Y-78295790D01*
X80964911Y-78295790D02*
X80917292Y-78248171D01*
X80917292Y-78248171D02*
X80869673Y-78152933D01*
X80869673Y-78152933D02*
X80869673Y-78057695D01*
X80869673Y-78057695D02*
X80917292Y-77962457D01*
X80917292Y-77962457D02*
X80964911Y-77914838D01*
X80964911Y-77914838D02*
X81060149Y-77867219D01*
X81060149Y-77867219D02*
X81298244Y-77867219D01*
X81298244Y-77867219D02*
X81441101Y-77914838D01*
X82250625Y-78819600D02*
X82155387Y-78867219D01*
X82155387Y-78867219D02*
X81964911Y-78867219D01*
X81964911Y-78867219D02*
X81869673Y-78819600D01*
X81869673Y-78819600D02*
X81822054Y-78724361D01*
X81822054Y-78724361D02*
X81822054Y-78343409D01*
X81822054Y-78343409D02*
X81869673Y-78248171D01*
X81869673Y-78248171D02*
X81964911Y-78200552D01*
X81964911Y-78200552D02*
X82155387Y-78200552D01*
X82155387Y-78200552D02*
X82250625Y-78248171D01*
X82250625Y-78248171D02*
X82298244Y-78343409D01*
X82298244Y-78343409D02*
X82298244Y-78438647D01*
X82298244Y-78438647D02*
X81822054Y-78533885D01*
X83155387Y-78200552D02*
X83155387Y-79010076D01*
X83155387Y-79010076D02*
X83107768Y-79105314D01*
X83107768Y-79105314D02*
X83060149Y-79152933D01*
X83060149Y-79152933D02*
X82964911Y-79200552D01*
X82964911Y-79200552D02*
X82822054Y-79200552D01*
X82822054Y-79200552D02*
X82726816Y-79152933D01*
X83155387Y-78819600D02*
X83060149Y-78867219D01*
X83060149Y-78867219D02*
X82869673Y-78867219D01*
X82869673Y-78867219D02*
X82774435Y-78819600D01*
X82774435Y-78819600D02*
X82726816Y-78771980D01*
X82726816Y-78771980D02*
X82679197Y-78676742D01*
X82679197Y-78676742D02*
X82679197Y-78391028D01*
X82679197Y-78391028D02*
X82726816Y-78295790D01*
X82726816Y-78295790D02*
X82774435Y-78248171D01*
X82774435Y-78248171D02*
X82869673Y-78200552D01*
X82869673Y-78200552D02*
X83060149Y-78200552D01*
X83060149Y-78200552D02*
X83155387Y-78248171D01*
X83631578Y-78867219D02*
X83631578Y-78200552D01*
X83631578Y-78295790D02*
X83679197Y-78248171D01*
X83679197Y-78248171D02*
X83774435Y-78200552D01*
X83774435Y-78200552D02*
X83917292Y-78200552D01*
X83917292Y-78200552D02*
X84012530Y-78248171D01*
X84012530Y-78248171D02*
X84060149Y-78343409D01*
X84060149Y-78343409D02*
X84060149Y-78867219D01*
X84060149Y-78343409D02*
X84107768Y-78248171D01*
X84107768Y-78248171D02*
X84203006Y-78200552D01*
X84203006Y-78200552D02*
X84345863Y-78200552D01*
X84345863Y-78200552D02*
X84441102Y-78248171D01*
X84441102Y-78248171D02*
X84488721Y-78343409D01*
X84488721Y-78343409D02*
X84488721Y-78867219D01*
X85345863Y-78819600D02*
X85250625Y-78867219D01*
X85250625Y-78867219D02*
X85060149Y-78867219D01*
X85060149Y-78867219D02*
X84964911Y-78819600D01*
X84964911Y-78819600D02*
X84917292Y-78724361D01*
X84917292Y-78724361D02*
X84917292Y-78343409D01*
X84917292Y-78343409D02*
X84964911Y-78248171D01*
X84964911Y-78248171D02*
X85060149Y-78200552D01*
X85060149Y-78200552D02*
X85250625Y-78200552D01*
X85250625Y-78200552D02*
X85345863Y-78248171D01*
X85345863Y-78248171D02*
X85393482Y-78343409D01*
X85393482Y-78343409D02*
X85393482Y-78438647D01*
X85393482Y-78438647D02*
X84917292Y-78533885D01*
X85822054Y-78200552D02*
X85822054Y-78867219D01*
X85822054Y-78295790D02*
X85869673Y-78248171D01*
X85869673Y-78248171D02*
X85964911Y-78200552D01*
X85964911Y-78200552D02*
X86107768Y-78200552D01*
X86107768Y-78200552D02*
X86203006Y-78248171D01*
X86203006Y-78248171D02*
X86250625Y-78343409D01*
X86250625Y-78343409D02*
X86250625Y-78867219D01*
X86583959Y-78200552D02*
X86964911Y-78200552D01*
X86726816Y-77867219D02*
X86726816Y-78724361D01*
X86726816Y-78724361D02*
X86774435Y-78819600D01*
X86774435Y-78819600D02*
X86869673Y-78867219D01*
X86869673Y-78867219D02*
X86964911Y-78867219D01*
X88060150Y-78867219D02*
X88060150Y-77867219D01*
X88060150Y-77867219D02*
X88298245Y-77867219D01*
X88298245Y-77867219D02*
X88441102Y-77914838D01*
X88441102Y-77914838D02*
X88536340Y-78010076D01*
X88536340Y-78010076D02*
X88583959Y-78105314D01*
X88583959Y-78105314D02*
X88631578Y-78295790D01*
X88631578Y-78295790D02*
X88631578Y-78438647D01*
X88631578Y-78438647D02*
X88583959Y-78629123D01*
X88583959Y-78629123D02*
X88536340Y-78724361D01*
X88536340Y-78724361D02*
X88441102Y-78819600D01*
X88441102Y-78819600D02*
X88298245Y-78867219D01*
X88298245Y-78867219D02*
X88060150Y-78867219D01*
X89060150Y-78867219D02*
X89060150Y-78200552D01*
X89060150Y-77867219D02*
X89012531Y-77914838D01*
X89012531Y-77914838D02*
X89060150Y-77962457D01*
X89060150Y-77962457D02*
X89107769Y-77914838D01*
X89107769Y-77914838D02*
X89060150Y-77867219D01*
X89060150Y-77867219D02*
X89060150Y-77962457D01*
X89488721Y-78819600D02*
X89583959Y-78867219D01*
X89583959Y-78867219D02*
X89774435Y-78867219D01*
X89774435Y-78867219D02*
X89869673Y-78819600D01*
X89869673Y-78819600D02*
X89917292Y-78724361D01*
X89917292Y-78724361D02*
X89917292Y-78676742D01*
X89917292Y-78676742D02*
X89869673Y-78581504D01*
X89869673Y-78581504D02*
X89774435Y-78533885D01*
X89774435Y-78533885D02*
X89631578Y-78533885D01*
X89631578Y-78533885D02*
X89536340Y-78486266D01*
X89536340Y-78486266D02*
X89488721Y-78391028D01*
X89488721Y-78391028D02*
X89488721Y-78343409D01*
X89488721Y-78343409D02*
X89536340Y-78248171D01*
X89536340Y-78248171D02*
X89631578Y-78200552D01*
X89631578Y-78200552D02*
X89774435Y-78200552D01*
X89774435Y-78200552D02*
X89869673Y-78248171D01*
X90345864Y-78200552D02*
X90345864Y-79200552D01*
X90345864Y-78248171D02*
X90441102Y-78200552D01*
X90441102Y-78200552D02*
X90631578Y-78200552D01*
X90631578Y-78200552D02*
X90726816Y-78248171D01*
X90726816Y-78248171D02*
X90774435Y-78295790D01*
X90774435Y-78295790D02*
X90822054Y-78391028D01*
X90822054Y-78391028D02*
X90822054Y-78676742D01*
X90822054Y-78676742D02*
X90774435Y-78771980D01*
X90774435Y-78771980D02*
X90726816Y-78819600D01*
X90726816Y-78819600D02*
X90631578Y-78867219D01*
X90631578Y-78867219D02*
X90441102Y-78867219D01*
X90441102Y-78867219D02*
X90345864Y-78819600D01*
X91393483Y-78867219D02*
X91298245Y-78819600D01*
X91298245Y-78819600D02*
X91250626Y-78724361D01*
X91250626Y-78724361D02*
X91250626Y-77867219D01*
X92203007Y-78867219D02*
X92203007Y-78343409D01*
X92203007Y-78343409D02*
X92155388Y-78248171D01*
X92155388Y-78248171D02*
X92060150Y-78200552D01*
X92060150Y-78200552D02*
X91869674Y-78200552D01*
X91869674Y-78200552D02*
X91774436Y-78248171D01*
X92203007Y-78819600D02*
X92107769Y-78867219D01*
X92107769Y-78867219D02*
X91869674Y-78867219D01*
X91869674Y-78867219D02*
X91774436Y-78819600D01*
X91774436Y-78819600D02*
X91726817Y-78724361D01*
X91726817Y-78724361D02*
X91726817Y-78629123D01*
X91726817Y-78629123D02*
X91774436Y-78533885D01*
X91774436Y-78533885D02*
X91869674Y-78486266D01*
X91869674Y-78486266D02*
X92107769Y-78486266D01*
X92107769Y-78486266D02*
X92203007Y-78438647D01*
X92583960Y-78200552D02*
X92822055Y-78867219D01*
X93060150Y-78200552D02*
X92822055Y-78867219D01*
X92822055Y-78867219D02*
X92726817Y-79105314D01*
X92726817Y-79105314D02*
X92679198Y-79152933D01*
X92679198Y-79152933D02*
X92583960Y-79200552D01*
D12*
X106607142Y-75913097D02*
X106535714Y-75984526D01*
X106535714Y-75984526D02*
X106321428Y-76055954D01*
X106321428Y-76055954D02*
X106178571Y-76055954D01*
X106178571Y-76055954D02*
X105964285Y-75984526D01*
X105964285Y-75984526D02*
X105821428Y-75841668D01*
X105821428Y-75841668D02*
X105749999Y-75698811D01*
X105749999Y-75698811D02*
X105678571Y-75413097D01*
X105678571Y-75413097D02*
X105678571Y-75198811D01*
X105678571Y-75198811D02*
X105749999Y-74913097D01*
X105749999Y-74913097D02*
X105821428Y-74770240D01*
X105821428Y-74770240D02*
X105964285Y-74627383D01*
X105964285Y-74627383D02*
X106178571Y-74555954D01*
X106178571Y-74555954D02*
X106321428Y-74555954D01*
X106321428Y-74555954D02*
X106535714Y-74627383D01*
X106535714Y-74627383D02*
X106607142Y-74698811D01*
X107964285Y-76055954D02*
X107249999Y-76055954D01*
X107249999Y-76055954D02*
X107249999Y-74555954D01*
X108464285Y-76055954D02*
X108464285Y-74555954D01*
X109321428Y-76055954D02*
X108678571Y-75198811D01*
X109321428Y-74555954D02*
X108464285Y-75413097D01*
X105964285Y-78470870D02*
X105964285Y-76970870D01*
X105964285Y-76970870D02*
X106321428Y-76970870D01*
X106321428Y-76970870D02*
X106535714Y-77042299D01*
X106535714Y-77042299D02*
X106678571Y-77185156D01*
X106678571Y-77185156D02*
X106750000Y-77328013D01*
X106750000Y-77328013D02*
X106821428Y-77613727D01*
X106821428Y-77613727D02*
X106821428Y-77828013D01*
X106821428Y-77828013D02*
X106750000Y-78113727D01*
X106750000Y-78113727D02*
X106678571Y-78256584D01*
X106678571Y-78256584D02*
X106535714Y-78399442D01*
X106535714Y-78399442D02*
X106321428Y-78470870D01*
X106321428Y-78470870D02*
X105964285Y-78470870D01*
X107464285Y-78470870D02*
X107464285Y-76970870D01*
X108464286Y-76970870D02*
X108750000Y-76970870D01*
X108750000Y-76970870D02*
X108892857Y-77042299D01*
X108892857Y-77042299D02*
X109035714Y-77185156D01*
X109035714Y-77185156D02*
X109107143Y-77470870D01*
X109107143Y-77470870D02*
X109107143Y-77970870D01*
X109107143Y-77970870D02*
X109035714Y-78256584D01*
X109035714Y-78256584D02*
X108892857Y-78399442D01*
X108892857Y-78399442D02*
X108750000Y-78470870D01*
X108750000Y-78470870D02*
X108464286Y-78470870D01*
X108464286Y-78470870D02*
X108321429Y-78399442D01*
X108321429Y-78399442D02*
X108178571Y-78256584D01*
X108178571Y-78256584D02*
X108107143Y-77970870D01*
X108107143Y-77970870D02*
X108107143Y-77470870D01*
X108107143Y-77470870D02*
X108178571Y-77185156D01*
X108178571Y-77185156D02*
X108321429Y-77042299D01*
X108321429Y-77042299D02*
X108464286Y-76970870D01*
X105571428Y-80314358D02*
X106714286Y-80314358D01*
X106142857Y-80885786D02*
X106142857Y-79742929D01*
X108142857Y-79385786D02*
X107428571Y-79385786D01*
X107428571Y-79385786D02*
X107357143Y-80100072D01*
X107357143Y-80100072D02*
X107428571Y-80028643D01*
X107428571Y-80028643D02*
X107571429Y-79957215D01*
X107571429Y-79957215D02*
X107928571Y-79957215D01*
X107928571Y-79957215D02*
X108071429Y-80028643D01*
X108071429Y-80028643D02*
X108142857Y-80100072D01*
X108142857Y-80100072D02*
X108214286Y-80242929D01*
X108214286Y-80242929D02*
X108214286Y-80600072D01*
X108214286Y-80600072D02*
X108142857Y-80742929D01*
X108142857Y-80742929D02*
X108071429Y-80814358D01*
X108071429Y-80814358D02*
X107928571Y-80885786D01*
X107928571Y-80885786D02*
X107571429Y-80885786D01*
X107571429Y-80885786D02*
X107428571Y-80814358D01*
X107428571Y-80814358D02*
X107357143Y-80742929D01*
X108642857Y-79385786D02*
X109142857Y-80885786D01*
X109142857Y-80885786D02*
X109642857Y-79385786D01*
X106357143Y-81872131D02*
X106214286Y-81800702D01*
X106214286Y-81800702D02*
X106000000Y-81800702D01*
X106000000Y-81800702D02*
X105785714Y-81872131D01*
X105785714Y-81872131D02*
X105642857Y-82014988D01*
X105642857Y-82014988D02*
X105571428Y-82157845D01*
X105571428Y-82157845D02*
X105500000Y-82443559D01*
X105500000Y-82443559D02*
X105500000Y-82657845D01*
X105500000Y-82657845D02*
X105571428Y-82943559D01*
X105571428Y-82943559D02*
X105642857Y-83086416D01*
X105642857Y-83086416D02*
X105785714Y-83229274D01*
X105785714Y-83229274D02*
X106000000Y-83300702D01*
X106000000Y-83300702D02*
X106142857Y-83300702D01*
X106142857Y-83300702D02*
X106357143Y-83229274D01*
X106357143Y-83229274D02*
X106428571Y-83157845D01*
X106428571Y-83157845D02*
X106428571Y-82657845D01*
X106428571Y-82657845D02*
X106142857Y-82657845D01*
X107071428Y-83300702D02*
X107071428Y-81800702D01*
X107071428Y-81800702D02*
X107928571Y-83300702D01*
X107928571Y-83300702D02*
X107928571Y-81800702D01*
X108642857Y-83300702D02*
X108642857Y-81800702D01*
X108642857Y-81800702D02*
X109000000Y-81800702D01*
X109000000Y-81800702D02*
X109214286Y-81872131D01*
X109214286Y-81872131D02*
X109357143Y-82014988D01*
X109357143Y-82014988D02*
X109428572Y-82157845D01*
X109428572Y-82157845D02*
X109500000Y-82443559D01*
X109500000Y-82443559D02*
X109500000Y-82657845D01*
X109500000Y-82657845D02*
X109428572Y-82943559D01*
X109428572Y-82943559D02*
X109357143Y-83086416D01*
X109357143Y-83086416D02*
X109214286Y-83229274D01*
X109214286Y-83229274D02*
X109000000Y-83300702D01*
X109000000Y-83300702D02*
X108642857Y-83300702D01*
X71983082Y-99982257D02*
X72697368Y-99982257D01*
X71840225Y-100410828D02*
X72340225Y-98910828D01*
X72340225Y-98910828D02*
X72840225Y-100410828D01*
X73340224Y-100410828D02*
X73340224Y-99410828D01*
X73340224Y-99696542D02*
X73411653Y-99553685D01*
X73411653Y-99553685D02*
X73483082Y-99482257D01*
X73483082Y-99482257D02*
X73625939Y-99410828D01*
X73625939Y-99410828D02*
X73768796Y-99410828D01*
X74911653Y-100410828D02*
X74911653Y-98910828D01*
X74911653Y-100339400D02*
X74768795Y-100410828D01*
X74768795Y-100410828D02*
X74483081Y-100410828D01*
X74483081Y-100410828D02*
X74340224Y-100339400D01*
X74340224Y-100339400D02*
X74268795Y-100267971D01*
X74268795Y-100267971D02*
X74197367Y-100125114D01*
X74197367Y-100125114D02*
X74197367Y-99696542D01*
X74197367Y-99696542D02*
X74268795Y-99553685D01*
X74268795Y-99553685D02*
X74340224Y-99482257D01*
X74340224Y-99482257D02*
X74483081Y-99410828D01*
X74483081Y-99410828D02*
X74768795Y-99410828D01*
X74768795Y-99410828D02*
X74911653Y-99482257D01*
X76268796Y-99410828D02*
X76268796Y-100410828D01*
X75625938Y-99410828D02*
X75625938Y-100196542D01*
X75625938Y-100196542D02*
X75697367Y-100339400D01*
X75697367Y-100339400D02*
X75840224Y-100410828D01*
X75840224Y-100410828D02*
X76054510Y-100410828D01*
X76054510Y-100410828D02*
X76197367Y-100339400D01*
X76197367Y-100339400D02*
X76268796Y-100267971D01*
X76983081Y-100410828D02*
X76983081Y-99410828D01*
X76983081Y-98910828D02*
X76911653Y-98982257D01*
X76911653Y-98982257D02*
X76983081Y-99053685D01*
X76983081Y-99053685D02*
X77054510Y-98982257D01*
X77054510Y-98982257D02*
X76983081Y-98910828D01*
X76983081Y-98910828D02*
X76983081Y-99053685D01*
X77697367Y-99410828D02*
X77697367Y-100410828D01*
X77697367Y-99553685D02*
X77768796Y-99482257D01*
X77768796Y-99482257D02*
X77911653Y-99410828D01*
X77911653Y-99410828D02*
X78125939Y-99410828D01*
X78125939Y-99410828D02*
X78268796Y-99482257D01*
X78268796Y-99482257D02*
X78340225Y-99625114D01*
X78340225Y-99625114D02*
X78340225Y-100410828D01*
X79268796Y-100410828D02*
X79125939Y-100339400D01*
X79125939Y-100339400D02*
X79054510Y-100267971D01*
X79054510Y-100267971D02*
X78983082Y-100125114D01*
X78983082Y-100125114D02*
X78983082Y-99696542D01*
X78983082Y-99696542D02*
X79054510Y-99553685D01*
X79054510Y-99553685D02*
X79125939Y-99482257D01*
X79125939Y-99482257D02*
X79268796Y-99410828D01*
X79268796Y-99410828D02*
X79483082Y-99410828D01*
X79483082Y-99410828D02*
X79625939Y-99482257D01*
X79625939Y-99482257D02*
X79697368Y-99553685D01*
X79697368Y-99553685D02*
X79768796Y-99696542D01*
X79768796Y-99696542D02*
X79768796Y-100125114D01*
X79768796Y-100125114D02*
X79697368Y-100267971D01*
X79697368Y-100267971D02*
X79625939Y-100339400D01*
X79625939Y-100339400D02*
X79483082Y-100410828D01*
X79483082Y-100410828D02*
X79268796Y-100410828D01*
X81554510Y-100410828D02*
X81554510Y-98910828D01*
X81554510Y-98910828D02*
X82411653Y-100410828D01*
X82411653Y-100410828D02*
X82411653Y-98910828D01*
X83768797Y-100410828D02*
X83768797Y-99625114D01*
X83768797Y-99625114D02*
X83697368Y-99482257D01*
X83697368Y-99482257D02*
X83554511Y-99410828D01*
X83554511Y-99410828D02*
X83268797Y-99410828D01*
X83268797Y-99410828D02*
X83125939Y-99482257D01*
X83768797Y-100339400D02*
X83625939Y-100410828D01*
X83625939Y-100410828D02*
X83268797Y-100410828D01*
X83268797Y-100410828D02*
X83125939Y-100339400D01*
X83125939Y-100339400D02*
X83054511Y-100196542D01*
X83054511Y-100196542D02*
X83054511Y-100053685D01*
X83054511Y-100053685D02*
X83125939Y-99910828D01*
X83125939Y-99910828D02*
X83268797Y-99839400D01*
X83268797Y-99839400D02*
X83625939Y-99839400D01*
X83625939Y-99839400D02*
X83768797Y-99767971D01*
X84483082Y-99410828D02*
X84483082Y-100410828D01*
X84483082Y-99553685D02*
X84554511Y-99482257D01*
X84554511Y-99482257D02*
X84697368Y-99410828D01*
X84697368Y-99410828D02*
X84911654Y-99410828D01*
X84911654Y-99410828D02*
X85054511Y-99482257D01*
X85054511Y-99482257D02*
X85125940Y-99625114D01*
X85125940Y-99625114D02*
X85125940Y-100410828D01*
X86054511Y-100410828D02*
X85911654Y-100339400D01*
X85911654Y-100339400D02*
X85840225Y-100267971D01*
X85840225Y-100267971D02*
X85768797Y-100125114D01*
X85768797Y-100125114D02*
X85768797Y-99696542D01*
X85768797Y-99696542D02*
X85840225Y-99553685D01*
X85840225Y-99553685D02*
X85911654Y-99482257D01*
X85911654Y-99482257D02*
X86054511Y-99410828D01*
X86054511Y-99410828D02*
X86268797Y-99410828D01*
X86268797Y-99410828D02*
X86411654Y-99482257D01*
X86411654Y-99482257D02*
X86483083Y-99553685D01*
X86483083Y-99553685D02*
X86554511Y-99696542D01*
X86554511Y-99696542D02*
X86554511Y-100125114D01*
X86554511Y-100125114D02*
X86483083Y-100267971D01*
X86483083Y-100267971D02*
X86411654Y-100339400D01*
X86411654Y-100339400D02*
X86268797Y-100410828D01*
X86268797Y-100410828D02*
X86054511Y-100410828D01*
D13*
X55239347Y-113734438D02*
X55239347Y-111734438D01*
X55239347Y-111734438D02*
X55715537Y-111734438D01*
X55715537Y-111734438D02*
X56001252Y-111829676D01*
X56001252Y-111829676D02*
X56191728Y-112020152D01*
X56191728Y-112020152D02*
X56286966Y-112210628D01*
X56286966Y-112210628D02*
X56382204Y-112591580D01*
X56382204Y-112591580D02*
X56382204Y-112877295D01*
X56382204Y-112877295D02*
X56286966Y-113258247D01*
X56286966Y-113258247D02*
X56191728Y-113448723D01*
X56191728Y-113448723D02*
X56001252Y-113639200D01*
X56001252Y-113639200D02*
X55715537Y-113734438D01*
X55715537Y-113734438D02*
X55239347Y-113734438D01*
X57906014Y-112686819D02*
X57239347Y-112686819D01*
X57239347Y-113734438D02*
X57239347Y-111734438D01*
X57239347Y-111734438D02*
X58191728Y-111734438D01*
X60096490Y-113734438D02*
X59429823Y-112782057D01*
X58953633Y-113734438D02*
X58953633Y-111734438D01*
X58953633Y-111734438D02*
X59715538Y-111734438D01*
X59715538Y-111734438D02*
X59906014Y-111829676D01*
X59906014Y-111829676D02*
X60001252Y-111924914D01*
X60001252Y-111924914D02*
X60096490Y-112115390D01*
X60096490Y-112115390D02*
X60096490Y-112401104D01*
X60096490Y-112401104D02*
X60001252Y-112591580D01*
X60001252Y-112591580D02*
X59906014Y-112686819D01*
X59906014Y-112686819D02*
X59715538Y-112782057D01*
X59715538Y-112782057D02*
X58953633Y-112782057D01*
X61239347Y-113734438D02*
X61048871Y-113639200D01*
X61048871Y-113639200D02*
X60953633Y-113543961D01*
X60953633Y-113543961D02*
X60858395Y-113353485D01*
X60858395Y-113353485D02*
X60858395Y-112782057D01*
X60858395Y-112782057D02*
X60953633Y-112591580D01*
X60953633Y-112591580D02*
X61048871Y-112496342D01*
X61048871Y-112496342D02*
X61239347Y-112401104D01*
X61239347Y-112401104D02*
X61525062Y-112401104D01*
X61525062Y-112401104D02*
X61715538Y-112496342D01*
X61715538Y-112496342D02*
X61810776Y-112591580D01*
X61810776Y-112591580D02*
X61906014Y-112782057D01*
X61906014Y-112782057D02*
X61906014Y-113353485D01*
X61906014Y-113353485D02*
X61810776Y-113543961D01*
X61810776Y-113543961D02*
X61715538Y-113639200D01*
X61715538Y-113639200D02*
X61525062Y-113734438D01*
X61525062Y-113734438D02*
X61239347Y-113734438D01*
X62763157Y-113734438D02*
X62763157Y-111734438D01*
X62763157Y-112496342D02*
X62953633Y-112401104D01*
X62953633Y-112401104D02*
X63334586Y-112401104D01*
X63334586Y-112401104D02*
X63525062Y-112496342D01*
X63525062Y-112496342D02*
X63620300Y-112591580D01*
X63620300Y-112591580D02*
X63715538Y-112782057D01*
X63715538Y-112782057D02*
X63715538Y-113353485D01*
X63715538Y-113353485D02*
X63620300Y-113543961D01*
X63620300Y-113543961D02*
X63525062Y-113639200D01*
X63525062Y-113639200D02*
X63334586Y-113734438D01*
X63334586Y-113734438D02*
X62953633Y-113734438D01*
X62953633Y-113734438D02*
X62763157Y-113639200D01*
X64858395Y-113734438D02*
X64667919Y-113639200D01*
X64667919Y-113639200D02*
X64572681Y-113543961D01*
X64572681Y-113543961D02*
X64477443Y-113353485D01*
X64477443Y-113353485D02*
X64477443Y-112782057D01*
X64477443Y-112782057D02*
X64572681Y-112591580D01*
X64572681Y-112591580D02*
X64667919Y-112496342D01*
X64667919Y-112496342D02*
X64858395Y-112401104D01*
X64858395Y-112401104D02*
X65144110Y-112401104D01*
X65144110Y-112401104D02*
X65334586Y-112496342D01*
X65334586Y-112496342D02*
X65429824Y-112591580D01*
X65429824Y-112591580D02*
X65525062Y-112782057D01*
X65525062Y-112782057D02*
X65525062Y-113353485D01*
X65525062Y-113353485D02*
X65429824Y-113543961D01*
X65429824Y-113543961D02*
X65334586Y-113639200D01*
X65334586Y-113639200D02*
X65144110Y-113734438D01*
X65144110Y-113734438D02*
X64858395Y-113734438D01*
X66096491Y-112401104D02*
X66858395Y-112401104D01*
X66382205Y-111734438D02*
X66382205Y-113448723D01*
X66382205Y-113448723D02*
X66477443Y-113639200D01*
X66477443Y-113639200D02*
X66667919Y-113734438D01*
X66667919Y-113734438D02*
X66858395Y-113734438D01*
X69048872Y-113734438D02*
X69048872Y-111734438D01*
X69048872Y-111734438D02*
X69715539Y-113163009D01*
X69715539Y-113163009D02*
X70382205Y-111734438D01*
X70382205Y-111734438D02*
X70382205Y-113734438D01*
X72191729Y-112401104D02*
X72191729Y-113734438D01*
X71334586Y-112401104D02*
X71334586Y-113448723D01*
X71334586Y-113448723D02*
X71429824Y-113639200D01*
X71429824Y-113639200D02*
X71620300Y-113734438D01*
X71620300Y-113734438D02*
X71906015Y-113734438D01*
X71906015Y-113734438D02*
X72096491Y-113639200D01*
X72096491Y-113639200D02*
X72191729Y-113543961D01*
X73429824Y-113734438D02*
X73239348Y-113639200D01*
X73239348Y-113639200D02*
X73144110Y-113448723D01*
X73144110Y-113448723D02*
X73144110Y-111734438D01*
X73906015Y-112401104D02*
X74667919Y-112401104D01*
X74191729Y-111734438D02*
X74191729Y-113448723D01*
X74191729Y-113448723D02*
X74286967Y-113639200D01*
X74286967Y-113639200D02*
X74477443Y-113734438D01*
X74477443Y-113734438D02*
X74667919Y-113734438D01*
X75334586Y-113734438D02*
X75334586Y-112401104D01*
X75334586Y-111734438D02*
X75239348Y-111829676D01*
X75239348Y-111829676D02*
X75334586Y-111924914D01*
X75334586Y-111924914D02*
X75429824Y-111829676D01*
X75429824Y-111829676D02*
X75334586Y-111734438D01*
X75334586Y-111734438D02*
X75334586Y-111924914D01*
X76286967Y-112972533D02*
X77810777Y-112972533D01*
X79810776Y-111829676D02*
X79620300Y-111734438D01*
X79620300Y-111734438D02*
X79334586Y-111734438D01*
X79334586Y-111734438D02*
X79048871Y-111829676D01*
X79048871Y-111829676D02*
X78858395Y-112020152D01*
X78858395Y-112020152D02*
X78763157Y-112210628D01*
X78763157Y-112210628D02*
X78667919Y-112591580D01*
X78667919Y-112591580D02*
X78667919Y-112877295D01*
X78667919Y-112877295D02*
X78763157Y-113258247D01*
X78763157Y-113258247D02*
X78858395Y-113448723D01*
X78858395Y-113448723D02*
X79048871Y-113639200D01*
X79048871Y-113639200D02*
X79334586Y-113734438D01*
X79334586Y-113734438D02*
X79525062Y-113734438D01*
X79525062Y-113734438D02*
X79810776Y-113639200D01*
X79810776Y-113639200D02*
X79906014Y-113543961D01*
X79906014Y-113543961D02*
X79906014Y-112877295D01*
X79906014Y-112877295D02*
X79525062Y-112877295D01*
X81620300Y-113734438D02*
X81620300Y-112686819D01*
X81620300Y-112686819D02*
X81525062Y-112496342D01*
X81525062Y-112496342D02*
X81334586Y-112401104D01*
X81334586Y-112401104D02*
X80953633Y-112401104D01*
X80953633Y-112401104D02*
X80763157Y-112496342D01*
X81620300Y-113639200D02*
X81429824Y-113734438D01*
X81429824Y-113734438D02*
X80953633Y-113734438D01*
X80953633Y-113734438D02*
X80763157Y-113639200D01*
X80763157Y-113639200D02*
X80667919Y-113448723D01*
X80667919Y-113448723D02*
X80667919Y-113258247D01*
X80667919Y-113258247D02*
X80763157Y-113067771D01*
X80763157Y-113067771D02*
X80953633Y-112972533D01*
X80953633Y-112972533D02*
X81429824Y-112972533D01*
X81429824Y-112972533D02*
X81620300Y-112877295D01*
X82477443Y-113639200D02*
X82667919Y-113734438D01*
X82667919Y-113734438D02*
X83048871Y-113734438D01*
X83048871Y-113734438D02*
X83239348Y-113639200D01*
X83239348Y-113639200D02*
X83334586Y-113448723D01*
X83334586Y-113448723D02*
X83334586Y-113353485D01*
X83334586Y-113353485D02*
X83239348Y-113163009D01*
X83239348Y-113163009D02*
X83048871Y-113067771D01*
X83048871Y-113067771D02*
X82763157Y-113067771D01*
X82763157Y-113067771D02*
X82572681Y-112972533D01*
X82572681Y-112972533D02*
X82477443Y-112782057D01*
X82477443Y-112782057D02*
X82477443Y-112686819D01*
X82477443Y-112686819D02*
X82572681Y-112496342D01*
X82572681Y-112496342D02*
X82763157Y-112401104D01*
X82763157Y-112401104D02*
X83048871Y-112401104D01*
X83048871Y-112401104D02*
X83239348Y-112496342D01*
X85429825Y-111734438D02*
X86572682Y-111734438D01*
X86001253Y-113734438D02*
X86001253Y-111734438D01*
X87239349Y-113734438D02*
X87239349Y-112401104D01*
X87239349Y-112782057D02*
X87334587Y-112591580D01*
X87334587Y-112591580D02*
X87429825Y-112496342D01*
X87429825Y-112496342D02*
X87620301Y-112401104D01*
X87620301Y-112401104D02*
X87810778Y-112401104D01*
X89334587Y-113734438D02*
X89334587Y-112686819D01*
X89334587Y-112686819D02*
X89239349Y-112496342D01*
X89239349Y-112496342D02*
X89048873Y-112401104D01*
X89048873Y-112401104D02*
X88667920Y-112401104D01*
X88667920Y-112401104D02*
X88477444Y-112496342D01*
X89334587Y-113639200D02*
X89144111Y-113734438D01*
X89144111Y-113734438D02*
X88667920Y-113734438D01*
X88667920Y-113734438D02*
X88477444Y-113639200D01*
X88477444Y-113639200D02*
X88382206Y-113448723D01*
X88382206Y-113448723D02*
X88382206Y-113258247D01*
X88382206Y-113258247D02*
X88477444Y-113067771D01*
X88477444Y-113067771D02*
X88667920Y-112972533D01*
X88667920Y-112972533D02*
X89144111Y-112972533D01*
X89144111Y-112972533D02*
X89334587Y-112877295D01*
X90286968Y-112401104D02*
X90286968Y-113734438D01*
X90286968Y-112591580D02*
X90382206Y-112496342D01*
X90382206Y-112496342D02*
X90572682Y-112401104D01*
X90572682Y-112401104D02*
X90858397Y-112401104D01*
X90858397Y-112401104D02*
X91048873Y-112496342D01*
X91048873Y-112496342D02*
X91144111Y-112686819D01*
X91144111Y-112686819D02*
X91144111Y-113734438D01*
X92001254Y-113639200D02*
X92191730Y-113734438D01*
X92191730Y-113734438D02*
X92572682Y-113734438D01*
X92572682Y-113734438D02*
X92763159Y-113639200D01*
X92763159Y-113639200D02*
X92858397Y-113448723D01*
X92858397Y-113448723D02*
X92858397Y-113353485D01*
X92858397Y-113353485D02*
X92763159Y-113163009D01*
X92763159Y-113163009D02*
X92572682Y-113067771D01*
X92572682Y-113067771D02*
X92286968Y-113067771D01*
X92286968Y-113067771D02*
X92096492Y-112972533D01*
X92096492Y-112972533D02*
X92001254Y-112782057D01*
X92001254Y-112782057D02*
X92001254Y-112686819D01*
X92001254Y-112686819D02*
X92096492Y-112496342D01*
X92096492Y-112496342D02*
X92286968Y-112401104D01*
X92286968Y-112401104D02*
X92572682Y-112401104D01*
X92572682Y-112401104D02*
X92763159Y-112496342D01*
X93715540Y-113734438D02*
X93715540Y-112401104D01*
X93715540Y-112591580D02*
X93810778Y-112496342D01*
X93810778Y-112496342D02*
X94001254Y-112401104D01*
X94001254Y-112401104D02*
X94286969Y-112401104D01*
X94286969Y-112401104D02*
X94477445Y-112496342D01*
X94477445Y-112496342D02*
X94572683Y-112686819D01*
X94572683Y-112686819D02*
X94572683Y-113734438D01*
X94572683Y-112686819D02*
X94667921Y-112496342D01*
X94667921Y-112496342D02*
X94858397Y-112401104D01*
X94858397Y-112401104D02*
X95144111Y-112401104D01*
X95144111Y-112401104D02*
X95334588Y-112496342D01*
X95334588Y-112496342D02*
X95429826Y-112686819D01*
X95429826Y-112686819D02*
X95429826Y-113734438D01*
X96382207Y-113734438D02*
X96382207Y-112401104D01*
X96382207Y-111734438D02*
X96286969Y-111829676D01*
X96286969Y-111829676D02*
X96382207Y-111924914D01*
X96382207Y-111924914D02*
X96477445Y-111829676D01*
X96477445Y-111829676D02*
X96382207Y-111734438D01*
X96382207Y-111734438D02*
X96382207Y-111924914D01*
X97048874Y-112401104D02*
X97810778Y-112401104D01*
X97334588Y-111734438D02*
X97334588Y-113448723D01*
X97334588Y-113448723D02*
X97429826Y-113639200D01*
X97429826Y-113639200D02*
X97620302Y-113734438D01*
X97620302Y-113734438D02*
X97810778Y-113734438D01*
X98191731Y-112401104D02*
X98953635Y-112401104D01*
X98477445Y-111734438D02*
X98477445Y-113448723D01*
X98477445Y-113448723D02*
X98572683Y-113639200D01*
X98572683Y-113639200D02*
X98763159Y-113734438D01*
X98763159Y-113734438D02*
X98953635Y-113734438D01*
X100382207Y-113639200D02*
X100191731Y-113734438D01*
X100191731Y-113734438D02*
X99810778Y-113734438D01*
X99810778Y-113734438D02*
X99620302Y-113639200D01*
X99620302Y-113639200D02*
X99525064Y-113448723D01*
X99525064Y-113448723D02*
X99525064Y-112686819D01*
X99525064Y-112686819D02*
X99620302Y-112496342D01*
X99620302Y-112496342D02*
X99810778Y-112401104D01*
X99810778Y-112401104D02*
X100191731Y-112401104D01*
X100191731Y-112401104D02*
X100382207Y-112496342D01*
X100382207Y-112496342D02*
X100477445Y-112686819D01*
X100477445Y-112686819D02*
X100477445Y-112877295D01*
X100477445Y-112877295D02*
X99525064Y-113067771D01*
X101334588Y-113734438D02*
X101334588Y-112401104D01*
X101334588Y-112782057D02*
X101429826Y-112591580D01*
X101429826Y-112591580D02*
X101525064Y-112496342D01*
X101525064Y-112496342D02*
X101715540Y-112401104D01*
X101715540Y-112401104D02*
X101906017Y-112401104D01*
D14*
X107738095Y-109304819D02*
X107738095Y-108304819D01*
X107738095Y-108781009D02*
X108309523Y-108781009D01*
X108309523Y-109304819D02*
X108309523Y-108304819D01*
X109214285Y-108638152D02*
X109214285Y-109304819D01*
X108976190Y-108257200D02*
X108738095Y-108971485D01*
X108738095Y-108971485D02*
X109357142Y-108971485D01*
X107738095Y-68454819D02*
X107738095Y-67454819D01*
X107738095Y-67931009D02*
X108309523Y-67931009D01*
X108309523Y-68454819D02*
X108309523Y-67454819D01*
X108738095Y-67550057D02*
X108785714Y-67502438D01*
X108785714Y-67502438D02*
X108880952Y-67454819D01*
X108880952Y-67454819D02*
X109119047Y-67454819D01*
X109119047Y-67454819D02*
X109214285Y-67502438D01*
X109214285Y-67502438D02*
X109261904Y-67550057D01*
X109261904Y-67550057D02*
X109309523Y-67645295D01*
X109309523Y-67645295D02*
X109309523Y-67740533D01*
X109309523Y-67740533D02*
X109261904Y-67883390D01*
X109261904Y-67883390D02*
X108690476Y-68454819D01*
X108690476Y-68454819D02*
X109309523Y-68454819D01*
X46738095Y-68454819D02*
X46738095Y-67454819D01*
X46738095Y-67931009D02*
X47309523Y-67931009D01*
X47309523Y-68454819D02*
X47309523Y-67454819D01*
X48309523Y-68454819D02*
X47738095Y-68454819D01*
X48023809Y-68454819D02*
X48023809Y-67454819D01*
X48023809Y-67454819D02*
X47928571Y-67597676D01*
X47928571Y-67597676D02*
X47833333Y-67692914D01*
X47833333Y-67692914D02*
X47738095Y-67740533D01*
X101166666Y-72264819D02*
X101166666Y-72979104D01*
X101166666Y-72979104D02*
X101119047Y-73121961D01*
X101119047Y-73121961D02*
X101023809Y-73217200D01*
X101023809Y-73217200D02*
X100880952Y-73264819D01*
X100880952Y-73264819D02*
X100785714Y-73264819D01*
X101595238Y-72360057D02*
X101642857Y-72312438D01*
X101642857Y-72312438D02*
X101738095Y-72264819D01*
X101738095Y-72264819D02*
X101976190Y-72264819D01*
X101976190Y-72264819D02*
X102071428Y-72312438D01*
X102071428Y-72312438D02*
X102119047Y-72360057D01*
X102119047Y-72360057D02*
X102166666Y-72455295D01*
X102166666Y-72455295D02*
X102166666Y-72550533D01*
X102166666Y-72550533D02*
X102119047Y-72693390D01*
X102119047Y-72693390D02*
X101547619Y-73264819D01*
X101547619Y-73264819D02*
X102166666Y-73264819D01*
X102449104Y-101334285D02*
X102449104Y-100858095D01*
X102734819Y-101429523D02*
X101734819Y-101096190D01*
X101734819Y-101096190D02*
X102734819Y-100762857D01*
X102734819Y-99905714D02*
X102734819Y-100477142D01*
X102734819Y-100191428D02*
X101734819Y-100191428D01*
X101734819Y-100191428D02*
X101877676Y-100286666D01*
X101877676Y-100286666D02*
X101972914Y-100381904D01*
X101972914Y-100381904D02*
X102020533Y-100477142D01*
X62185180Y-99358095D02*
X61375657Y-99358095D01*
X61375657Y-99358095D02*
X61280419Y-99405714D01*
X61280419Y-99405714D02*
X61232800Y-99453333D01*
X61232800Y-99453333D02*
X61185180Y-99548571D01*
X61185180Y-99548571D02*
X61185180Y-99739047D01*
X61185180Y-99739047D02*
X61232800Y-99834285D01*
X61232800Y-99834285D02*
X61280419Y-99881904D01*
X61280419Y-99881904D02*
X61375657Y-99929523D01*
X61375657Y-99929523D02*
X62185180Y-99929523D01*
X61232800Y-100358095D02*
X61185180Y-100500952D01*
X61185180Y-100500952D02*
X61185180Y-100739047D01*
X61185180Y-100739047D02*
X61232800Y-100834285D01*
X61232800Y-100834285D02*
X61280419Y-100881904D01*
X61280419Y-100881904D02*
X61375657Y-100929523D01*
X61375657Y-100929523D02*
X61470895Y-100929523D01*
X61470895Y-100929523D02*
X61566133Y-100881904D01*
X61566133Y-100881904D02*
X61613752Y-100834285D01*
X61613752Y-100834285D02*
X61661371Y-100739047D01*
X61661371Y-100739047D02*
X61708990Y-100548571D01*
X61708990Y-100548571D02*
X61756609Y-100453333D01*
X61756609Y-100453333D02*
X61804228Y-100405714D01*
X61804228Y-100405714D02*
X61899466Y-100358095D01*
X61899466Y-100358095D02*
X61994704Y-100358095D01*
X61994704Y-100358095D02*
X62089942Y-100405714D01*
X62089942Y-100405714D02*
X62137561Y-100453333D01*
X62137561Y-100453333D02*
X62185180Y-100548571D01*
X62185180Y-100548571D02*
X62185180Y-100786666D01*
X62185180Y-100786666D02*
X62137561Y-100929523D01*
X61708990Y-101691428D02*
X61661371Y-101834285D01*
X61661371Y-101834285D02*
X61613752Y-101881904D01*
X61613752Y-101881904D02*
X61518514Y-101929523D01*
X61518514Y-101929523D02*
X61375657Y-101929523D01*
X61375657Y-101929523D02*
X61280419Y-101881904D01*
X61280419Y-101881904D02*
X61232800Y-101834285D01*
X61232800Y-101834285D02*
X61185180Y-101739047D01*
X61185180Y-101739047D02*
X61185180Y-101358095D01*
X61185180Y-101358095D02*
X62185180Y-101358095D01*
X62185180Y-101358095D02*
X62185180Y-101691428D01*
X62185180Y-101691428D02*
X62137561Y-101786666D01*
X62137561Y-101786666D02*
X62089942Y-101834285D01*
X62089942Y-101834285D02*
X61994704Y-101881904D01*
X61994704Y-101881904D02*
X61899466Y-101881904D01*
X61899466Y-101881904D02*
X61804228Y-101834285D01*
X61804228Y-101834285D02*
X61756609Y-101786666D01*
X61756609Y-101786666D02*
X61708990Y-101691428D01*
X61708990Y-101691428D02*
X61708990Y-101358095D01*
X46738095Y-109304819D02*
X46738095Y-108304819D01*
X46738095Y-108781009D02*
X47309523Y-108781009D01*
X47309523Y-109304819D02*
X47309523Y-108304819D01*
X47690476Y-108304819D02*
X48309523Y-108304819D01*
X48309523Y-108304819D02*
X47976190Y-108685771D01*
X47976190Y-108685771D02*
X48119047Y-108685771D01*
X48119047Y-108685771D02*
X48214285Y-108733390D01*
X48214285Y-108733390D02*
X48261904Y-108781009D01*
X48261904Y-108781009D02*
X48309523Y-108876247D01*
X48309523Y-108876247D02*
X48309523Y-109114342D01*
X48309523Y-109114342D02*
X48261904Y-109209580D01*
X48261904Y-109209580D02*
X48214285Y-109257200D01*
X48214285Y-109257200D02*
X48119047Y-109304819D01*
X48119047Y-109304819D02*
X47833333Y-109304819D01*
X47833333Y-109304819D02*
X47738095Y-109257200D01*
X47738095Y-109257200D02*
X47690476Y-109209580D01*
X54436666Y-71454819D02*
X54436666Y-72169104D01*
X54436666Y-72169104D02*
X54389047Y-72311961D01*
X54389047Y-72311961D02*
X54293809Y-72407200D01*
X54293809Y-72407200D02*
X54150952Y-72454819D01*
X54150952Y-72454819D02*
X54055714Y-72454819D01*
X55436666Y-72454819D02*
X54865238Y-72454819D01*
X55150952Y-72454819D02*
X55150952Y-71454819D01*
X55150952Y-71454819D02*
X55055714Y-71597676D01*
X55055714Y-71597676D02*
X54960476Y-71692914D01*
X54960476Y-71692914D02*
X54865238Y-71740533D01*
%TO.C,J2*%
D15*
X100120000Y-73810000D02*
X101500000Y-73810000D01*
X100120000Y-75190000D02*
X100120000Y-73810000D01*
X100120000Y-76460000D02*
X100120000Y-84190000D01*
X100120000Y-76460000D02*
X102880000Y-76460000D01*
X100120000Y-84190000D02*
X102880000Y-84190000D01*
X102880000Y-76460000D02*
X102880000Y-84190000D01*
%TO.C,A1*%
X55160000Y-96680000D02*
X65580000Y-96680000D01*
X55160000Y-104560000D02*
X55160000Y-96680000D01*
X57700000Y-91600000D02*
X57700000Y-96680000D01*
X57700000Y-109640000D02*
X57700000Y-104560000D01*
X57700000Y-109640000D02*
X101140000Y-109640000D01*
X60370000Y-94270000D02*
X60370000Y-91600000D01*
X60370000Y-106970000D02*
X60370000Y-109640000D01*
X65580000Y-96680000D02*
X65580000Y-104560000D01*
X65580000Y-104560000D02*
X55160000Y-104560000D01*
X95930000Y-91600000D02*
X57700000Y-91600000D01*
X95930000Y-94270000D02*
X60370000Y-94270000D01*
X95930000Y-94270000D02*
X95930000Y-91600000D01*
X95930000Y-94270000D02*
X98470000Y-94270000D01*
X98470000Y-94270000D02*
X98470000Y-91600000D01*
X98470000Y-106970000D02*
X60370000Y-106970000D01*
X98470000Y-106970000D02*
X98470000Y-109640000D01*
X101140000Y-91600000D02*
X98470000Y-91600000D01*
X101140000Y-109640000D02*
X101140000Y-91600000D01*
%TO.C,J1*%
X52120000Y-73000000D02*
X53500000Y-73000000D01*
X52120000Y-74380000D02*
X52120000Y-73000000D01*
X52120000Y-75650000D02*
X52120000Y-83380000D01*
X52120000Y-75650000D02*
X54770000Y-75650000D01*
X52120000Y-83380000D02*
X57420000Y-83380000D01*
X54770000Y-73000000D02*
X57420000Y-73000000D01*
X54770000Y-75650000D02*
X54770000Y-73000000D01*
X57420000Y-73000000D02*
X57420000Y-83380000D01*
%TD*%
%LPC*%
D16*
%TO.C,H4*%
X108500000Y-113000000D03*
D17*
X108500000Y-113000000D03*
%TD*%
D16*
%TO.C,H2*%
X108500000Y-63000000D03*
D17*
X108500000Y-63000000D03*
%TD*%
D16*
%TO.C,H1*%
X47500000Y-63000000D03*
D17*
X47500000Y-63000000D03*
%TD*%
D18*
%TO.C,J2*%
X101500000Y-75190000D03*
D19*
X101500000Y-77730000D03*
X101500000Y-80270000D03*
X101500000Y-82810000D03*
%TD*%
D20*
%TO.C,A1*%
X97200000Y-93000000D03*
D21*
X94660000Y-93000000D03*
X92120000Y-93000000D03*
X89580000Y-93000000D03*
X87040000Y-93000000D03*
X84500000Y-93000000D03*
X81960000Y-93000000D03*
X79420000Y-93000000D03*
X76880000Y-93000000D03*
X74340000Y-93000000D03*
X71800000Y-93000000D03*
X69260000Y-93000000D03*
X66720000Y-93000000D03*
X64180000Y-93000000D03*
X61640000Y-93000000D03*
X61640000Y-108240000D03*
X64180000Y-108240000D03*
X66720000Y-108240000D03*
X69260000Y-108240000D03*
X71800000Y-108240000D03*
X74340000Y-108240000D03*
X76880000Y-108240000D03*
X79420000Y-108240000D03*
X81960000Y-108240000D03*
X84500000Y-108240000D03*
X87040000Y-108240000D03*
X89580000Y-108240000D03*
X92120000Y-108240000D03*
X94660000Y-108240000D03*
X97200000Y-108240000D03*
%TD*%
D16*
%TO.C,H3*%
X47500000Y-113000000D03*
D17*
X47500000Y-113000000D03*
%TD*%
D18*
%TO.C,J1*%
X53500000Y-74380000D03*
D19*
X56040000Y-74380000D03*
X53500000Y-76920000D03*
X56040000Y-76920000D03*
X53500000Y-79460000D03*
X56040000Y-79460000D03*
X53500000Y-82000000D03*
X56040000Y-82000000D03*
%TD*%
%LPD*%
M02*
