%TF.GenerationSoftware,KiCad,Pcbnew,10.0.3*%
%TF.CreationDate,2026-07-05T13:29:07+05:30*%
%TF.ProjectId,arduino_nano_pcb(phase1),61726475-696e-46f5-9f6e-616e6f5f7063,1*%
%TF.SameCoordinates,Original*%
%TF.FileFunction,Soldermask,Top*%
%TF.FilePolarity,Negative*%
%FSLAX46Y46*%
G04 Gerber Fmt 4.6, Leading zero omitted, Abs format (unit mm)*
G04 Created by KiCad (PCBNEW 10.0.3) date 2026-07-05 13:29:07*
%MOMM*%
%LPD*%
G01*
G04 APERTURE LIST*
%ADD10C,3.600000*%
%ADD11C,6.400000*%
%ADD12R,1.700000X1.700000*%
%ADD13C,1.700000*%
%ADD14R,1.600000X1.600000*%
%ADD15O,1.600000X1.600000*%
G04 APERTURE END LIST*
D10*
%TO.C,H4*%
X108500000Y-113000000D03*
D11*
X108500000Y-113000000D03*
%TD*%
D10*
%TO.C,H2*%
X108500000Y-63000000D03*
D11*
X108500000Y-63000000D03*
%TD*%
D10*
%TO.C,H1*%
X47500000Y-63000000D03*
D11*
X47500000Y-63000000D03*
%TD*%
D12*
%TO.C,J2*%
X101500000Y-75190000D03*
D13*
X101500000Y-77730000D03*
X101500000Y-80270000D03*
X101500000Y-82810000D03*
%TD*%
D14*
%TO.C,A1*%
X97200000Y-93000000D03*
D15*
X94660000Y-93000000D03*
X92120000Y-93000000D03*
X89580000Y-93000000D03*
X87040000Y-93000000D03*
X84500000Y-93000000D03*
X81960000Y-93000000D03*
X79420000Y-93000000D03*
X76880000Y-93000000D03*
X74340000Y-93000000D03*
X71800000Y-93000000D03*
X69260000Y-93000000D03*
X66720000Y-93000000D03*
X64180000Y-93000000D03*
X61640000Y-93000000D03*
X61640000Y-108240000D03*
X64180000Y-108240000D03*
X66720000Y-108240000D03*
X69260000Y-108240000D03*
X71800000Y-108240000D03*
X74340000Y-108240000D03*
X76880000Y-108240000D03*
X79420000Y-108240000D03*
X81960000Y-108240000D03*
X84500000Y-108240000D03*
X87040000Y-108240000D03*
X89580000Y-108240000D03*
X92120000Y-108240000D03*
X94660000Y-108240000D03*
X97200000Y-108240000D03*
%TD*%
D10*
%TO.C,H3*%
X47500000Y-113000000D03*
D11*
X47500000Y-113000000D03*
%TD*%
D12*
%TO.C,J1*%
X53500000Y-74380000D03*
D13*
X56040000Y-74380000D03*
X53500000Y-76920000D03*
X56040000Y-76920000D03*
X53500000Y-79460000D03*
X56040000Y-79460000D03*
X53500000Y-82000000D03*
X56040000Y-82000000D03*
%TD*%
M02*
