%TF.GenerationSoftware,KiCad,Pcbnew,10.0.3*%
%TF.CreationDate,2026-07-05T22:38:31+05:30*%
%TF.ProjectId,arduino_nano_pcb(phase1),61726475-696e-46f5-9f6e-616e6f5f7063,2*%
%TF.SameCoordinates,Original*%
%TF.FileFunction,Legend,Top*%
%TF.FilePolarity,Positive*%
%FSLAX46Y46*%
G04 Gerber Fmt 4.6, Leading zero omitted, Abs format (unit mm)*
G04 Created by KiCad (PCBNEW 10.0.3) date 2026-07-05 22:38:31*
%MOMM*%
%LPD*%
G01*
G04 APERTURE LIST*
%ADD10C,0.200000*%
%ADD11C,0.187500*%
%ADD12C,0.300000*%
%ADD13C,0.400000*%
%ADD14C,0.150000*%
%ADD15C,0.120000*%
%ADD16C,5.400000*%
%ADD17C,10.000000*%
%ADD18R,1.700000X1.700000*%
%ADD19C,1.700000*%
%ADD20R,1.600000X1.600000*%
%ADD21O,1.600000X1.600000*%
G04 APERTURE END LIST*
D10*
X96875000Y-74450000D02*
X99075000Y-74450000D01*
X99875000Y-74450000D02*
X100500000Y-74450000D01*
X100500000Y-74450000D02*
X100500000Y-76650000D01*
X100500000Y-77450000D02*
X100500000Y-79650000D01*
X100500000Y-80450000D02*
X100500000Y-81450000D01*
X100500000Y-81450000D02*
X98300000Y-81450000D01*
X97500000Y-81450000D02*
X96875000Y-81450000D01*
X96875000Y-81450000D02*
X96875000Y-79250000D01*
X96875000Y-78450000D02*
X96875000Y-76250000D01*
X96875000Y-75450000D02*
X96875000Y-74450000D01*
X100250000Y-84825000D02*
X102450000Y-84825000D01*
X103250000Y-84825000D02*
X105450000Y-84825000D01*
X106250000Y-84825000D02*
X108450000Y-84825000D01*
X109250000Y-84825000D02*
X111450000Y-84825000D01*
X112250000Y-84825000D02*
X112500000Y-84825000D01*
X112500000Y-84825000D02*
X112500000Y-87025000D01*
X112500000Y-87825000D02*
X112500000Y-90025000D01*
X112500000Y-90825000D02*
X112500000Y-93025000D01*
X112500000Y-93825000D02*
X112500000Y-95075000D01*
X112500000Y-95075000D02*
X110300000Y-95075000D01*
X109500000Y-95075000D02*
X107300000Y-95075000D01*
X106500000Y-95075000D02*
X104300000Y-95075000D01*
X103500000Y-95075000D02*
X101300000Y-95075000D01*
X100500000Y-95075000D02*
X100250000Y-95075000D01*
X100250000Y-95075000D02*
X100250000Y-92875000D01*
X100250000Y-92075000D02*
X100250000Y-89875000D01*
X100250000Y-89075000D02*
X100250000Y-86875000D01*
X100250000Y-86075000D02*
X100250000Y-84825000D01*
X62726816Y-65317219D02*
X63298244Y-65317219D01*
X63012530Y-66317219D02*
X63012530Y-65317219D01*
X63631578Y-66317219D02*
X63631578Y-65317219D01*
X63631578Y-65317219D02*
X63964911Y-66031504D01*
X63964911Y-66031504D02*
X64298244Y-65317219D01*
X64298244Y-65317219D02*
X64298244Y-66317219D01*
X65298244Y-66317219D02*
X64726816Y-66317219D01*
X65012530Y-66317219D02*
X65012530Y-65317219D01*
X65012530Y-65317219D02*
X64917292Y-65460076D01*
X64917292Y-65460076D02*
X64822054Y-65555314D01*
X64822054Y-65555314D02*
X64726816Y-65602933D01*
X66155387Y-65317219D02*
X65964911Y-65317219D01*
X65964911Y-65317219D02*
X65869673Y-65364838D01*
X65869673Y-65364838D02*
X65822054Y-65412457D01*
X65822054Y-65412457D02*
X65726816Y-65555314D01*
X65726816Y-65555314D02*
X65679197Y-65745790D01*
X65679197Y-65745790D02*
X65679197Y-66126742D01*
X65679197Y-66126742D02*
X65726816Y-66221980D01*
X65726816Y-66221980D02*
X65774435Y-66269600D01*
X65774435Y-66269600D02*
X65869673Y-66317219D01*
X65869673Y-66317219D02*
X66060149Y-66317219D01*
X66060149Y-66317219D02*
X66155387Y-66269600D01*
X66155387Y-66269600D02*
X66203006Y-66221980D01*
X66203006Y-66221980D02*
X66250625Y-66126742D01*
X66250625Y-66126742D02*
X66250625Y-65888647D01*
X66250625Y-65888647D02*
X66203006Y-65793409D01*
X66203006Y-65793409D02*
X66155387Y-65745790D01*
X66155387Y-65745790D02*
X66060149Y-65698171D01*
X66060149Y-65698171D02*
X65869673Y-65698171D01*
X65869673Y-65698171D02*
X65774435Y-65745790D01*
X65774435Y-65745790D02*
X65726816Y-65793409D01*
X65726816Y-65793409D02*
X65679197Y-65888647D01*
X66583959Y-65317219D02*
X67203006Y-65317219D01*
X67203006Y-65317219D02*
X66869673Y-65698171D01*
X66869673Y-65698171D02*
X67012530Y-65698171D01*
X67012530Y-65698171D02*
X67107768Y-65745790D01*
X67107768Y-65745790D02*
X67155387Y-65793409D01*
X67155387Y-65793409D02*
X67203006Y-65888647D01*
X67203006Y-65888647D02*
X67203006Y-66126742D01*
X67203006Y-66126742D02*
X67155387Y-66221980D01*
X67155387Y-66221980D02*
X67107768Y-66269600D01*
X67107768Y-66269600D02*
X67012530Y-66317219D01*
X67012530Y-66317219D02*
X66726816Y-66317219D01*
X66726816Y-66317219D02*
X66631578Y-66269600D01*
X66631578Y-66269600D02*
X66583959Y-66221980D01*
X67536340Y-65317219D02*
X68203006Y-65317219D01*
X68203006Y-65317219D02*
X67774435Y-66317219D01*
X69774435Y-65650552D02*
X69774435Y-66317219D01*
X69536340Y-65269600D02*
X69298245Y-65983885D01*
X69298245Y-65983885D02*
X69917292Y-65983885D01*
X70298245Y-65936266D02*
X71060150Y-65936266D01*
X71536340Y-66317219D02*
X71536340Y-65317219D01*
X71536340Y-65317219D02*
X71774435Y-65317219D01*
X71774435Y-65317219D02*
X71917292Y-65364838D01*
X71917292Y-65364838D02*
X72012530Y-65460076D01*
X72012530Y-65460076D02*
X72060149Y-65555314D01*
X72060149Y-65555314D02*
X72107768Y-65745790D01*
X72107768Y-65745790D02*
X72107768Y-65888647D01*
X72107768Y-65888647D02*
X72060149Y-66079123D01*
X72060149Y-66079123D02*
X72012530Y-66174361D01*
X72012530Y-66174361D02*
X71917292Y-66269600D01*
X71917292Y-66269600D02*
X71774435Y-66317219D01*
X71774435Y-66317219D02*
X71536340Y-66317219D01*
X72536340Y-66317219D02*
X72536340Y-65650552D01*
X72536340Y-65317219D02*
X72488721Y-65364838D01*
X72488721Y-65364838D02*
X72536340Y-65412457D01*
X72536340Y-65412457D02*
X72583959Y-65364838D01*
X72583959Y-65364838D02*
X72536340Y-65317219D01*
X72536340Y-65317219D02*
X72536340Y-65412457D01*
X73441101Y-65650552D02*
X73441101Y-66460076D01*
X73441101Y-66460076D02*
X73393482Y-66555314D01*
X73393482Y-66555314D02*
X73345863Y-66602933D01*
X73345863Y-66602933D02*
X73250625Y-66650552D01*
X73250625Y-66650552D02*
X73107768Y-66650552D01*
X73107768Y-66650552D02*
X73012530Y-66602933D01*
X73441101Y-66269600D02*
X73345863Y-66317219D01*
X73345863Y-66317219D02*
X73155387Y-66317219D01*
X73155387Y-66317219D02*
X73060149Y-66269600D01*
X73060149Y-66269600D02*
X73012530Y-66221980D01*
X73012530Y-66221980D02*
X72964911Y-66126742D01*
X72964911Y-66126742D02*
X72964911Y-65841028D01*
X72964911Y-65841028D02*
X73012530Y-65745790D01*
X73012530Y-65745790D02*
X73060149Y-65698171D01*
X73060149Y-65698171D02*
X73155387Y-65650552D01*
X73155387Y-65650552D02*
X73345863Y-65650552D01*
X73345863Y-65650552D02*
X73441101Y-65698171D01*
X73917292Y-66317219D02*
X73917292Y-65650552D01*
X73917292Y-65317219D02*
X73869673Y-65364838D01*
X73869673Y-65364838D02*
X73917292Y-65412457D01*
X73917292Y-65412457D02*
X73964911Y-65364838D01*
X73964911Y-65364838D02*
X73917292Y-65317219D01*
X73917292Y-65317219D02*
X73917292Y-65412457D01*
X74250625Y-65650552D02*
X74631577Y-65650552D01*
X74393482Y-65317219D02*
X74393482Y-66174361D01*
X74393482Y-66174361D02*
X74441101Y-66269600D01*
X74441101Y-66269600D02*
X74536339Y-66317219D01*
X74536339Y-66317219D02*
X74631577Y-66317219D01*
X75631578Y-65317219D02*
X76298244Y-65317219D01*
X76298244Y-65317219D02*
X75869673Y-66317219D01*
X76679197Y-65936266D02*
X77441102Y-65936266D01*
X77869673Y-66269600D02*
X78012530Y-66317219D01*
X78012530Y-66317219D02*
X78250625Y-66317219D01*
X78250625Y-66317219D02*
X78345863Y-66269600D01*
X78345863Y-66269600D02*
X78393482Y-66221980D01*
X78393482Y-66221980D02*
X78441101Y-66126742D01*
X78441101Y-66126742D02*
X78441101Y-66031504D01*
X78441101Y-66031504D02*
X78393482Y-65936266D01*
X78393482Y-65936266D02*
X78345863Y-65888647D01*
X78345863Y-65888647D02*
X78250625Y-65841028D01*
X78250625Y-65841028D02*
X78060149Y-65793409D01*
X78060149Y-65793409D02*
X77964911Y-65745790D01*
X77964911Y-65745790D02*
X77917292Y-65698171D01*
X77917292Y-65698171D02*
X77869673Y-65602933D01*
X77869673Y-65602933D02*
X77869673Y-65507695D01*
X77869673Y-65507695D02*
X77917292Y-65412457D01*
X77917292Y-65412457D02*
X77964911Y-65364838D01*
X77964911Y-65364838D02*
X78060149Y-65317219D01*
X78060149Y-65317219D02*
X78298244Y-65317219D01*
X78298244Y-65317219D02*
X78441101Y-65364838D01*
X79250625Y-66269600D02*
X79155387Y-66317219D01*
X79155387Y-66317219D02*
X78964911Y-66317219D01*
X78964911Y-66317219D02*
X78869673Y-66269600D01*
X78869673Y-66269600D02*
X78822054Y-66174361D01*
X78822054Y-66174361D02*
X78822054Y-65793409D01*
X78822054Y-65793409D02*
X78869673Y-65698171D01*
X78869673Y-65698171D02*
X78964911Y-65650552D01*
X78964911Y-65650552D02*
X79155387Y-65650552D01*
X79155387Y-65650552D02*
X79250625Y-65698171D01*
X79250625Y-65698171D02*
X79298244Y-65793409D01*
X79298244Y-65793409D02*
X79298244Y-65888647D01*
X79298244Y-65888647D02*
X78822054Y-65983885D01*
X80155387Y-65650552D02*
X80155387Y-66460076D01*
X80155387Y-66460076D02*
X80107768Y-66555314D01*
X80107768Y-66555314D02*
X80060149Y-66602933D01*
X80060149Y-66602933D02*
X79964911Y-66650552D01*
X79964911Y-66650552D02*
X79822054Y-66650552D01*
X79822054Y-66650552D02*
X79726816Y-66602933D01*
X80155387Y-66269600D02*
X80060149Y-66317219D01*
X80060149Y-66317219D02*
X79869673Y-66317219D01*
X79869673Y-66317219D02*
X79774435Y-66269600D01*
X79774435Y-66269600D02*
X79726816Y-66221980D01*
X79726816Y-66221980D02*
X79679197Y-66126742D01*
X79679197Y-66126742D02*
X79679197Y-65841028D01*
X79679197Y-65841028D02*
X79726816Y-65745790D01*
X79726816Y-65745790D02*
X79774435Y-65698171D01*
X79774435Y-65698171D02*
X79869673Y-65650552D01*
X79869673Y-65650552D02*
X80060149Y-65650552D01*
X80060149Y-65650552D02*
X80155387Y-65698171D01*
X80631578Y-66317219D02*
X80631578Y-65650552D01*
X80631578Y-65745790D02*
X80679197Y-65698171D01*
X80679197Y-65698171D02*
X80774435Y-65650552D01*
X80774435Y-65650552D02*
X80917292Y-65650552D01*
X80917292Y-65650552D02*
X81012530Y-65698171D01*
X81012530Y-65698171D02*
X81060149Y-65793409D01*
X81060149Y-65793409D02*
X81060149Y-66317219D01*
X81060149Y-65793409D02*
X81107768Y-65698171D01*
X81107768Y-65698171D02*
X81203006Y-65650552D01*
X81203006Y-65650552D02*
X81345863Y-65650552D01*
X81345863Y-65650552D02*
X81441102Y-65698171D01*
X81441102Y-65698171D02*
X81488721Y-65793409D01*
X81488721Y-65793409D02*
X81488721Y-66317219D01*
X82345863Y-66269600D02*
X82250625Y-66317219D01*
X82250625Y-66317219D02*
X82060149Y-66317219D01*
X82060149Y-66317219D02*
X81964911Y-66269600D01*
X81964911Y-66269600D02*
X81917292Y-66174361D01*
X81917292Y-66174361D02*
X81917292Y-65793409D01*
X81917292Y-65793409D02*
X81964911Y-65698171D01*
X81964911Y-65698171D02*
X82060149Y-65650552D01*
X82060149Y-65650552D02*
X82250625Y-65650552D01*
X82250625Y-65650552D02*
X82345863Y-65698171D01*
X82345863Y-65698171D02*
X82393482Y-65793409D01*
X82393482Y-65793409D02*
X82393482Y-65888647D01*
X82393482Y-65888647D02*
X81917292Y-65983885D01*
X82822054Y-65650552D02*
X82822054Y-66317219D01*
X82822054Y-65745790D02*
X82869673Y-65698171D01*
X82869673Y-65698171D02*
X82964911Y-65650552D01*
X82964911Y-65650552D02*
X83107768Y-65650552D01*
X83107768Y-65650552D02*
X83203006Y-65698171D01*
X83203006Y-65698171D02*
X83250625Y-65793409D01*
X83250625Y-65793409D02*
X83250625Y-66317219D01*
X83583959Y-65650552D02*
X83964911Y-65650552D01*
X83726816Y-65317219D02*
X83726816Y-66174361D01*
X83726816Y-66174361D02*
X83774435Y-66269600D01*
X83774435Y-66269600D02*
X83869673Y-66317219D01*
X83869673Y-66317219D02*
X83964911Y-66317219D01*
X85060150Y-66317219D02*
X85060150Y-65317219D01*
X85060150Y-65317219D02*
X85298245Y-65317219D01*
X85298245Y-65317219D02*
X85441102Y-65364838D01*
X85441102Y-65364838D02*
X85536340Y-65460076D01*
X85536340Y-65460076D02*
X85583959Y-65555314D01*
X85583959Y-65555314D02*
X85631578Y-65745790D01*
X85631578Y-65745790D02*
X85631578Y-65888647D01*
X85631578Y-65888647D02*
X85583959Y-66079123D01*
X85583959Y-66079123D02*
X85536340Y-66174361D01*
X85536340Y-66174361D02*
X85441102Y-66269600D01*
X85441102Y-66269600D02*
X85298245Y-66317219D01*
X85298245Y-66317219D02*
X85060150Y-66317219D01*
X86060150Y-66317219D02*
X86060150Y-65650552D01*
X86060150Y-65317219D02*
X86012531Y-65364838D01*
X86012531Y-65364838D02*
X86060150Y-65412457D01*
X86060150Y-65412457D02*
X86107769Y-65364838D01*
X86107769Y-65364838D02*
X86060150Y-65317219D01*
X86060150Y-65317219D02*
X86060150Y-65412457D01*
X86488721Y-66269600D02*
X86583959Y-66317219D01*
X86583959Y-66317219D02*
X86774435Y-66317219D01*
X86774435Y-66317219D02*
X86869673Y-66269600D01*
X86869673Y-66269600D02*
X86917292Y-66174361D01*
X86917292Y-66174361D02*
X86917292Y-66126742D01*
X86917292Y-66126742D02*
X86869673Y-66031504D01*
X86869673Y-66031504D02*
X86774435Y-65983885D01*
X86774435Y-65983885D02*
X86631578Y-65983885D01*
X86631578Y-65983885D02*
X86536340Y-65936266D01*
X86536340Y-65936266D02*
X86488721Y-65841028D01*
X86488721Y-65841028D02*
X86488721Y-65793409D01*
X86488721Y-65793409D02*
X86536340Y-65698171D01*
X86536340Y-65698171D02*
X86631578Y-65650552D01*
X86631578Y-65650552D02*
X86774435Y-65650552D01*
X86774435Y-65650552D02*
X86869673Y-65698171D01*
X87345864Y-65650552D02*
X87345864Y-66650552D01*
X87345864Y-65698171D02*
X87441102Y-65650552D01*
X87441102Y-65650552D02*
X87631578Y-65650552D01*
X87631578Y-65650552D02*
X87726816Y-65698171D01*
X87726816Y-65698171D02*
X87774435Y-65745790D01*
X87774435Y-65745790D02*
X87822054Y-65841028D01*
X87822054Y-65841028D02*
X87822054Y-66126742D01*
X87822054Y-66126742D02*
X87774435Y-66221980D01*
X87774435Y-66221980D02*
X87726816Y-66269600D01*
X87726816Y-66269600D02*
X87631578Y-66317219D01*
X87631578Y-66317219D02*
X87441102Y-66317219D01*
X87441102Y-66317219D02*
X87345864Y-66269600D01*
X88393483Y-66317219D02*
X88298245Y-66269600D01*
X88298245Y-66269600D02*
X88250626Y-66174361D01*
X88250626Y-66174361D02*
X88250626Y-65317219D01*
X89203007Y-66317219D02*
X89203007Y-65793409D01*
X89203007Y-65793409D02*
X89155388Y-65698171D01*
X89155388Y-65698171D02*
X89060150Y-65650552D01*
X89060150Y-65650552D02*
X88869674Y-65650552D01*
X88869674Y-65650552D02*
X88774436Y-65698171D01*
X89203007Y-66269600D02*
X89107769Y-66317219D01*
X89107769Y-66317219D02*
X88869674Y-66317219D01*
X88869674Y-66317219D02*
X88774436Y-66269600D01*
X88774436Y-66269600D02*
X88726817Y-66174361D01*
X88726817Y-66174361D02*
X88726817Y-66079123D01*
X88726817Y-66079123D02*
X88774436Y-65983885D01*
X88774436Y-65983885D02*
X88869674Y-65936266D01*
X88869674Y-65936266D02*
X89107769Y-65936266D01*
X89107769Y-65936266D02*
X89203007Y-65888647D01*
X89583960Y-65650552D02*
X89822055Y-66317219D01*
X90060150Y-65650552D02*
X89822055Y-66317219D01*
X89822055Y-66317219D02*
X89726817Y-66555314D01*
X89726817Y-66555314D02*
X89679198Y-66602933D01*
X89679198Y-66602933D02*
X89583960Y-66650552D01*
X97904761Y-75892064D02*
X97857142Y-75939684D01*
X97857142Y-75939684D02*
X97714285Y-75987303D01*
X97714285Y-75987303D02*
X97619047Y-75987303D01*
X97619047Y-75987303D02*
X97476190Y-75939684D01*
X97476190Y-75939684D02*
X97380952Y-75844445D01*
X97380952Y-75844445D02*
X97333333Y-75749207D01*
X97333333Y-75749207D02*
X97285714Y-75558731D01*
X97285714Y-75558731D02*
X97285714Y-75415874D01*
X97285714Y-75415874D02*
X97333333Y-75225398D01*
X97333333Y-75225398D02*
X97380952Y-75130160D01*
X97380952Y-75130160D02*
X97476190Y-75034922D01*
X97476190Y-75034922D02*
X97619047Y-74987303D01*
X97619047Y-74987303D02*
X97714285Y-74987303D01*
X97714285Y-74987303D02*
X97857142Y-75034922D01*
X97857142Y-75034922D02*
X97904761Y-75082541D01*
X98809523Y-75987303D02*
X98333333Y-75987303D01*
X98333333Y-75987303D02*
X98333333Y-74987303D01*
X99142857Y-75987303D02*
X99142857Y-74987303D01*
X99714285Y-75987303D02*
X99285714Y-75415874D01*
X99714285Y-74987303D02*
X99142857Y-75558731D01*
X97476191Y-77597247D02*
X97476191Y-76597247D01*
X97476191Y-76597247D02*
X97714286Y-76597247D01*
X97714286Y-76597247D02*
X97857143Y-76644866D01*
X97857143Y-76644866D02*
X97952381Y-76740104D01*
X97952381Y-76740104D02*
X98000000Y-76835342D01*
X98000000Y-76835342D02*
X98047619Y-77025818D01*
X98047619Y-77025818D02*
X98047619Y-77168675D01*
X98047619Y-77168675D02*
X98000000Y-77359151D01*
X98000000Y-77359151D02*
X97952381Y-77454389D01*
X97952381Y-77454389D02*
X97857143Y-77549628D01*
X97857143Y-77549628D02*
X97714286Y-77597247D01*
X97714286Y-77597247D02*
X97476191Y-77597247D01*
X98476191Y-77597247D02*
X98476191Y-76597247D01*
X99142857Y-76597247D02*
X99333333Y-76597247D01*
X99333333Y-76597247D02*
X99428571Y-76644866D01*
X99428571Y-76644866D02*
X99523809Y-76740104D01*
X99523809Y-76740104D02*
X99571428Y-76930580D01*
X99571428Y-76930580D02*
X99571428Y-77263913D01*
X99571428Y-77263913D02*
X99523809Y-77454389D01*
X99523809Y-77454389D02*
X99428571Y-77549628D01*
X99428571Y-77549628D02*
X99333333Y-77597247D01*
X99333333Y-77597247D02*
X99142857Y-77597247D01*
X99142857Y-77597247D02*
X99047619Y-77549628D01*
X99047619Y-77549628D02*
X98952381Y-77454389D01*
X98952381Y-77454389D02*
X98904762Y-77263913D01*
X98904762Y-77263913D02*
X98904762Y-76930580D01*
X98904762Y-76930580D02*
X98952381Y-76740104D01*
X98952381Y-76740104D02*
X99047619Y-76644866D01*
X99047619Y-76644866D02*
X99142857Y-76597247D01*
X97214286Y-78826238D02*
X97976191Y-78826238D01*
X97595238Y-79207191D02*
X97595238Y-78445286D01*
X98928571Y-78207191D02*
X98452381Y-78207191D01*
X98452381Y-78207191D02*
X98404762Y-78683381D01*
X98404762Y-78683381D02*
X98452381Y-78635762D01*
X98452381Y-78635762D02*
X98547619Y-78588143D01*
X98547619Y-78588143D02*
X98785714Y-78588143D01*
X98785714Y-78588143D02*
X98880952Y-78635762D01*
X98880952Y-78635762D02*
X98928571Y-78683381D01*
X98928571Y-78683381D02*
X98976190Y-78778619D01*
X98976190Y-78778619D02*
X98976190Y-79016714D01*
X98976190Y-79016714D02*
X98928571Y-79111952D01*
X98928571Y-79111952D02*
X98880952Y-79159572D01*
X98880952Y-79159572D02*
X98785714Y-79207191D01*
X98785714Y-79207191D02*
X98547619Y-79207191D01*
X98547619Y-79207191D02*
X98452381Y-79159572D01*
X98452381Y-79159572D02*
X98404762Y-79111952D01*
X99261905Y-78207191D02*
X99595238Y-79207191D01*
X99595238Y-79207191D02*
X99928571Y-78207191D01*
X97738095Y-79864754D02*
X97642857Y-79817135D01*
X97642857Y-79817135D02*
X97500000Y-79817135D01*
X97500000Y-79817135D02*
X97357143Y-79864754D01*
X97357143Y-79864754D02*
X97261905Y-79959992D01*
X97261905Y-79959992D02*
X97214286Y-80055230D01*
X97214286Y-80055230D02*
X97166667Y-80245706D01*
X97166667Y-80245706D02*
X97166667Y-80388563D01*
X97166667Y-80388563D02*
X97214286Y-80579039D01*
X97214286Y-80579039D02*
X97261905Y-80674277D01*
X97261905Y-80674277D02*
X97357143Y-80769516D01*
X97357143Y-80769516D02*
X97500000Y-80817135D01*
X97500000Y-80817135D02*
X97595238Y-80817135D01*
X97595238Y-80817135D02*
X97738095Y-80769516D01*
X97738095Y-80769516D02*
X97785714Y-80721896D01*
X97785714Y-80721896D02*
X97785714Y-80388563D01*
X97785714Y-80388563D02*
X97595238Y-80388563D01*
X98214286Y-80817135D02*
X98214286Y-79817135D01*
X98214286Y-79817135D02*
X98785714Y-80817135D01*
X98785714Y-80817135D02*
X98785714Y-79817135D01*
X99261905Y-80817135D02*
X99261905Y-79817135D01*
X99261905Y-79817135D02*
X99500000Y-79817135D01*
X99500000Y-79817135D02*
X99642857Y-79864754D01*
X99642857Y-79864754D02*
X99738095Y-79959992D01*
X99738095Y-79959992D02*
X99785714Y-80055230D01*
X99785714Y-80055230D02*
X99833333Y-80245706D01*
X99833333Y-80245706D02*
X99833333Y-80388563D01*
X99833333Y-80388563D02*
X99785714Y-80579039D01*
X99785714Y-80579039D02*
X99738095Y-80674277D01*
X99738095Y-80674277D02*
X99642857Y-80769516D01*
X99642857Y-80769516D02*
X99500000Y-80817135D01*
X99500000Y-80817135D02*
X99261905Y-80817135D01*
D11*
X101142858Y-87190376D02*
X101357144Y-87261804D01*
X101357144Y-87261804D02*
X101714286Y-87261804D01*
X101714286Y-87261804D02*
X101857144Y-87190376D01*
X101857144Y-87190376D02*
X101928572Y-87118947D01*
X101928572Y-87118947D02*
X102000001Y-86976090D01*
X102000001Y-86976090D02*
X102000001Y-86833233D01*
X102000001Y-86833233D02*
X101928572Y-86690376D01*
X101928572Y-86690376D02*
X101857144Y-86618947D01*
X101857144Y-86618947D02*
X101714286Y-86547518D01*
X101714286Y-86547518D02*
X101428572Y-86476090D01*
X101428572Y-86476090D02*
X101285715Y-86404661D01*
X101285715Y-86404661D02*
X101214286Y-86333233D01*
X101214286Y-86333233D02*
X101142858Y-86190376D01*
X101142858Y-86190376D02*
X101142858Y-86047518D01*
X101142858Y-86047518D02*
X101214286Y-85904661D01*
X101214286Y-85904661D02*
X101285715Y-85833233D01*
X101285715Y-85833233D02*
X101428572Y-85761804D01*
X101428572Y-85761804D02*
X101785715Y-85761804D01*
X101785715Y-85761804D02*
X102000001Y-85833233D01*
X103214286Y-87190376D02*
X103071429Y-87261804D01*
X103071429Y-87261804D02*
X102785715Y-87261804D01*
X102785715Y-87261804D02*
X102642857Y-87190376D01*
X102642857Y-87190376D02*
X102571429Y-87047518D01*
X102571429Y-87047518D02*
X102571429Y-86476090D01*
X102571429Y-86476090D02*
X102642857Y-86333233D01*
X102642857Y-86333233D02*
X102785715Y-86261804D01*
X102785715Y-86261804D02*
X103071429Y-86261804D01*
X103071429Y-86261804D02*
X103214286Y-86333233D01*
X103214286Y-86333233D02*
X103285715Y-86476090D01*
X103285715Y-86476090D02*
X103285715Y-86618947D01*
X103285715Y-86618947D02*
X102571429Y-86761804D01*
X103928571Y-86261804D02*
X103928571Y-87261804D01*
X103928571Y-86404661D02*
X104000000Y-86333233D01*
X104000000Y-86333233D02*
X104142857Y-86261804D01*
X104142857Y-86261804D02*
X104357143Y-86261804D01*
X104357143Y-86261804D02*
X104500000Y-86333233D01*
X104500000Y-86333233D02*
X104571429Y-86476090D01*
X104571429Y-86476090D02*
X104571429Y-87261804D01*
X105214286Y-87190376D02*
X105357143Y-87261804D01*
X105357143Y-87261804D02*
X105642857Y-87261804D01*
X105642857Y-87261804D02*
X105785714Y-87190376D01*
X105785714Y-87190376D02*
X105857143Y-87047518D01*
X105857143Y-87047518D02*
X105857143Y-86976090D01*
X105857143Y-86976090D02*
X105785714Y-86833233D01*
X105785714Y-86833233D02*
X105642857Y-86761804D01*
X105642857Y-86761804D02*
X105428572Y-86761804D01*
X105428572Y-86761804D02*
X105285714Y-86690376D01*
X105285714Y-86690376D02*
X105214286Y-86547518D01*
X105214286Y-86547518D02*
X105214286Y-86476090D01*
X105214286Y-86476090D02*
X105285714Y-86333233D01*
X105285714Y-86333233D02*
X105428572Y-86261804D01*
X105428572Y-86261804D02*
X105642857Y-86261804D01*
X105642857Y-86261804D02*
X105785714Y-86333233D01*
X106714286Y-87261804D02*
X106571429Y-87190376D01*
X106571429Y-87190376D02*
X106500000Y-87118947D01*
X106500000Y-87118947D02*
X106428572Y-86976090D01*
X106428572Y-86976090D02*
X106428572Y-86547518D01*
X106428572Y-86547518D02*
X106500000Y-86404661D01*
X106500000Y-86404661D02*
X106571429Y-86333233D01*
X106571429Y-86333233D02*
X106714286Y-86261804D01*
X106714286Y-86261804D02*
X106928572Y-86261804D01*
X106928572Y-86261804D02*
X107071429Y-86333233D01*
X107071429Y-86333233D02*
X107142858Y-86404661D01*
X107142858Y-86404661D02*
X107214286Y-86547518D01*
X107214286Y-86547518D02*
X107214286Y-86976090D01*
X107214286Y-86976090D02*
X107142858Y-87118947D01*
X107142858Y-87118947D02*
X107071429Y-87190376D01*
X107071429Y-87190376D02*
X106928572Y-87261804D01*
X106928572Y-87261804D02*
X106714286Y-87261804D01*
X107857143Y-87261804D02*
X107857143Y-86261804D01*
X107857143Y-86547518D02*
X107928572Y-86404661D01*
X107928572Y-86404661D02*
X108000001Y-86333233D01*
X108000001Y-86333233D02*
X108142858Y-86261804D01*
X108142858Y-86261804D02*
X108285715Y-86261804D01*
X109714286Y-85761804D02*
X110571429Y-85761804D01*
X110142857Y-87261804D02*
X110142857Y-85761804D01*
X110928571Y-85761804D02*
X111928571Y-87261804D01*
X111928571Y-85761804D02*
X110928571Y-87261804D01*
X100964286Y-89605292D02*
X101178572Y-89676720D01*
X101178572Y-89676720D02*
X101535714Y-89676720D01*
X101535714Y-89676720D02*
X101678572Y-89605292D01*
X101678572Y-89605292D02*
X101750000Y-89533863D01*
X101750000Y-89533863D02*
X101821429Y-89391006D01*
X101821429Y-89391006D02*
X101821429Y-89248149D01*
X101821429Y-89248149D02*
X101750000Y-89105292D01*
X101750000Y-89105292D02*
X101678572Y-89033863D01*
X101678572Y-89033863D02*
X101535714Y-88962434D01*
X101535714Y-88962434D02*
X101250000Y-88891006D01*
X101250000Y-88891006D02*
X101107143Y-88819577D01*
X101107143Y-88819577D02*
X101035714Y-88748149D01*
X101035714Y-88748149D02*
X100964286Y-88605292D01*
X100964286Y-88605292D02*
X100964286Y-88462434D01*
X100964286Y-88462434D02*
X101035714Y-88319577D01*
X101035714Y-88319577D02*
X101107143Y-88248149D01*
X101107143Y-88248149D02*
X101250000Y-88176720D01*
X101250000Y-88176720D02*
X101607143Y-88176720D01*
X101607143Y-88176720D02*
X101821429Y-88248149D01*
X103035714Y-89605292D02*
X102892857Y-89676720D01*
X102892857Y-89676720D02*
X102607143Y-89676720D01*
X102607143Y-89676720D02*
X102464285Y-89605292D01*
X102464285Y-89605292D02*
X102392857Y-89462434D01*
X102392857Y-89462434D02*
X102392857Y-88891006D01*
X102392857Y-88891006D02*
X102464285Y-88748149D01*
X102464285Y-88748149D02*
X102607143Y-88676720D01*
X102607143Y-88676720D02*
X102892857Y-88676720D01*
X102892857Y-88676720D02*
X103035714Y-88748149D01*
X103035714Y-88748149D02*
X103107143Y-88891006D01*
X103107143Y-88891006D02*
X103107143Y-89033863D01*
X103107143Y-89033863D02*
X102392857Y-89176720D01*
X103749999Y-88676720D02*
X103749999Y-89676720D01*
X103749999Y-88819577D02*
X103821428Y-88748149D01*
X103821428Y-88748149D02*
X103964285Y-88676720D01*
X103964285Y-88676720D02*
X104178571Y-88676720D01*
X104178571Y-88676720D02*
X104321428Y-88748149D01*
X104321428Y-88748149D02*
X104392857Y-88891006D01*
X104392857Y-88891006D02*
X104392857Y-89676720D01*
X105035714Y-89605292D02*
X105178571Y-89676720D01*
X105178571Y-89676720D02*
X105464285Y-89676720D01*
X105464285Y-89676720D02*
X105607142Y-89605292D01*
X105607142Y-89605292D02*
X105678571Y-89462434D01*
X105678571Y-89462434D02*
X105678571Y-89391006D01*
X105678571Y-89391006D02*
X105607142Y-89248149D01*
X105607142Y-89248149D02*
X105464285Y-89176720D01*
X105464285Y-89176720D02*
X105250000Y-89176720D01*
X105250000Y-89176720D02*
X105107142Y-89105292D01*
X105107142Y-89105292D02*
X105035714Y-88962434D01*
X105035714Y-88962434D02*
X105035714Y-88891006D01*
X105035714Y-88891006D02*
X105107142Y-88748149D01*
X105107142Y-88748149D02*
X105250000Y-88676720D01*
X105250000Y-88676720D02*
X105464285Y-88676720D01*
X105464285Y-88676720D02*
X105607142Y-88748149D01*
X106535714Y-89676720D02*
X106392857Y-89605292D01*
X106392857Y-89605292D02*
X106321428Y-89533863D01*
X106321428Y-89533863D02*
X106250000Y-89391006D01*
X106250000Y-89391006D02*
X106250000Y-88962434D01*
X106250000Y-88962434D02*
X106321428Y-88819577D01*
X106321428Y-88819577D02*
X106392857Y-88748149D01*
X106392857Y-88748149D02*
X106535714Y-88676720D01*
X106535714Y-88676720D02*
X106750000Y-88676720D01*
X106750000Y-88676720D02*
X106892857Y-88748149D01*
X106892857Y-88748149D02*
X106964286Y-88819577D01*
X106964286Y-88819577D02*
X107035714Y-88962434D01*
X107035714Y-88962434D02*
X107035714Y-89391006D01*
X107035714Y-89391006D02*
X106964286Y-89533863D01*
X106964286Y-89533863D02*
X106892857Y-89605292D01*
X106892857Y-89605292D02*
X106750000Y-89676720D01*
X106750000Y-89676720D02*
X106535714Y-89676720D01*
X107678571Y-89676720D02*
X107678571Y-88676720D01*
X107678571Y-88962434D02*
X107750000Y-88819577D01*
X107750000Y-88819577D02*
X107821429Y-88748149D01*
X107821429Y-88748149D02*
X107964286Y-88676720D01*
X107964286Y-88676720D02*
X108107143Y-88676720D01*
X110607142Y-89676720D02*
X110107142Y-88962434D01*
X109749999Y-89676720D02*
X109749999Y-88176720D01*
X109749999Y-88176720D02*
X110321428Y-88176720D01*
X110321428Y-88176720D02*
X110464285Y-88248149D01*
X110464285Y-88248149D02*
X110535714Y-88319577D01*
X110535714Y-88319577D02*
X110607142Y-88462434D01*
X110607142Y-88462434D02*
X110607142Y-88676720D01*
X110607142Y-88676720D02*
X110535714Y-88819577D01*
X110535714Y-88819577D02*
X110464285Y-88891006D01*
X110464285Y-88891006D02*
X110321428Y-88962434D01*
X110321428Y-88962434D02*
X109749999Y-88962434D01*
X111107142Y-88176720D02*
X112107142Y-89676720D01*
X112107142Y-88176720D02*
X111107142Y-89676720D01*
X105357143Y-90663065D02*
X105214286Y-90591636D01*
X105214286Y-90591636D02*
X105000000Y-90591636D01*
X105000000Y-90591636D02*
X104785714Y-90663065D01*
X104785714Y-90663065D02*
X104642857Y-90805922D01*
X104642857Y-90805922D02*
X104571428Y-90948779D01*
X104571428Y-90948779D02*
X104500000Y-91234493D01*
X104500000Y-91234493D02*
X104500000Y-91448779D01*
X104500000Y-91448779D02*
X104571428Y-91734493D01*
X104571428Y-91734493D02*
X104642857Y-91877350D01*
X104642857Y-91877350D02*
X104785714Y-92020208D01*
X104785714Y-92020208D02*
X105000000Y-92091636D01*
X105000000Y-92091636D02*
X105142857Y-92091636D01*
X105142857Y-92091636D02*
X105357143Y-92020208D01*
X105357143Y-92020208D02*
X105428571Y-91948779D01*
X105428571Y-91948779D02*
X105428571Y-91448779D01*
X105428571Y-91448779D02*
X105142857Y-91448779D01*
X106071428Y-92091636D02*
X106071428Y-90591636D01*
X106071428Y-90591636D02*
X106928571Y-92091636D01*
X106928571Y-92091636D02*
X106928571Y-90591636D01*
X107642857Y-92091636D02*
X107642857Y-90591636D01*
X107642857Y-90591636D02*
X108000000Y-90591636D01*
X108000000Y-90591636D02*
X108214286Y-90663065D01*
X108214286Y-90663065D02*
X108357143Y-90805922D01*
X108357143Y-90805922D02*
X108428572Y-90948779D01*
X108428572Y-90948779D02*
X108500000Y-91234493D01*
X108500000Y-91234493D02*
X108500000Y-91448779D01*
X108500000Y-91448779D02*
X108428572Y-91734493D01*
X108428572Y-91734493D02*
X108357143Y-91877350D01*
X108357143Y-91877350D02*
X108214286Y-92020208D01*
X108214286Y-92020208D02*
X108000000Y-92091636D01*
X108000000Y-92091636D02*
X107642857Y-92091636D01*
X104571428Y-93935124D02*
X105714286Y-93935124D01*
X105142857Y-94506552D02*
X105142857Y-93363695D01*
X107142857Y-93006552D02*
X106428571Y-93006552D01*
X106428571Y-93006552D02*
X106357143Y-93720838D01*
X106357143Y-93720838D02*
X106428571Y-93649409D01*
X106428571Y-93649409D02*
X106571429Y-93577981D01*
X106571429Y-93577981D02*
X106928571Y-93577981D01*
X106928571Y-93577981D02*
X107071429Y-93649409D01*
X107071429Y-93649409D02*
X107142857Y-93720838D01*
X107142857Y-93720838D02*
X107214286Y-93863695D01*
X107214286Y-93863695D02*
X107214286Y-94220838D01*
X107214286Y-94220838D02*
X107142857Y-94363695D01*
X107142857Y-94363695D02*
X107071429Y-94435124D01*
X107071429Y-94435124D02*
X106928571Y-94506552D01*
X106928571Y-94506552D02*
X106571429Y-94506552D01*
X106571429Y-94506552D02*
X106428571Y-94435124D01*
X106428571Y-94435124D02*
X106357143Y-94363695D01*
X107642857Y-93006552D02*
X108142857Y-94506552D01*
X108142857Y-94506552D02*
X108642857Y-93006552D01*
D12*
X47983082Y-90822257D02*
X48697368Y-90822257D01*
X47840225Y-91250828D02*
X48340225Y-89750828D01*
X48340225Y-89750828D02*
X48840225Y-91250828D01*
X49340224Y-91250828D02*
X49340224Y-90250828D01*
X49340224Y-90536542D02*
X49411653Y-90393685D01*
X49411653Y-90393685D02*
X49483082Y-90322257D01*
X49483082Y-90322257D02*
X49625939Y-90250828D01*
X49625939Y-90250828D02*
X49768796Y-90250828D01*
X50911653Y-91250828D02*
X50911653Y-89750828D01*
X50911653Y-91179400D02*
X50768795Y-91250828D01*
X50768795Y-91250828D02*
X50483081Y-91250828D01*
X50483081Y-91250828D02*
X50340224Y-91179400D01*
X50340224Y-91179400D02*
X50268795Y-91107971D01*
X50268795Y-91107971D02*
X50197367Y-90965114D01*
X50197367Y-90965114D02*
X50197367Y-90536542D01*
X50197367Y-90536542D02*
X50268795Y-90393685D01*
X50268795Y-90393685D02*
X50340224Y-90322257D01*
X50340224Y-90322257D02*
X50483081Y-90250828D01*
X50483081Y-90250828D02*
X50768795Y-90250828D01*
X50768795Y-90250828D02*
X50911653Y-90322257D01*
X52268796Y-90250828D02*
X52268796Y-91250828D01*
X51625938Y-90250828D02*
X51625938Y-91036542D01*
X51625938Y-91036542D02*
X51697367Y-91179400D01*
X51697367Y-91179400D02*
X51840224Y-91250828D01*
X51840224Y-91250828D02*
X52054510Y-91250828D01*
X52054510Y-91250828D02*
X52197367Y-91179400D01*
X52197367Y-91179400D02*
X52268796Y-91107971D01*
X52983081Y-91250828D02*
X52983081Y-90250828D01*
X52983081Y-89750828D02*
X52911653Y-89822257D01*
X52911653Y-89822257D02*
X52983081Y-89893685D01*
X52983081Y-89893685D02*
X53054510Y-89822257D01*
X53054510Y-89822257D02*
X52983081Y-89750828D01*
X52983081Y-89750828D02*
X52983081Y-89893685D01*
X53697367Y-90250828D02*
X53697367Y-91250828D01*
X53697367Y-90393685D02*
X53768796Y-90322257D01*
X53768796Y-90322257D02*
X53911653Y-90250828D01*
X53911653Y-90250828D02*
X54125939Y-90250828D01*
X54125939Y-90250828D02*
X54268796Y-90322257D01*
X54268796Y-90322257D02*
X54340225Y-90465114D01*
X54340225Y-90465114D02*
X54340225Y-91250828D01*
X55268796Y-91250828D02*
X55125939Y-91179400D01*
X55125939Y-91179400D02*
X55054510Y-91107971D01*
X55054510Y-91107971D02*
X54983082Y-90965114D01*
X54983082Y-90965114D02*
X54983082Y-90536542D01*
X54983082Y-90536542D02*
X55054510Y-90393685D01*
X55054510Y-90393685D02*
X55125939Y-90322257D01*
X55125939Y-90322257D02*
X55268796Y-90250828D01*
X55268796Y-90250828D02*
X55483082Y-90250828D01*
X55483082Y-90250828D02*
X55625939Y-90322257D01*
X55625939Y-90322257D02*
X55697368Y-90393685D01*
X55697368Y-90393685D02*
X55768796Y-90536542D01*
X55768796Y-90536542D02*
X55768796Y-90965114D01*
X55768796Y-90965114D02*
X55697368Y-91107971D01*
X55697368Y-91107971D02*
X55625939Y-91179400D01*
X55625939Y-91179400D02*
X55483082Y-91250828D01*
X55483082Y-91250828D02*
X55268796Y-91250828D01*
X57554510Y-91250828D02*
X57554510Y-89750828D01*
X57554510Y-89750828D02*
X58411653Y-91250828D01*
X58411653Y-91250828D02*
X58411653Y-89750828D01*
X59768797Y-91250828D02*
X59768797Y-90465114D01*
X59768797Y-90465114D02*
X59697368Y-90322257D01*
X59697368Y-90322257D02*
X59554511Y-90250828D01*
X59554511Y-90250828D02*
X59268797Y-90250828D01*
X59268797Y-90250828D02*
X59125939Y-90322257D01*
X59768797Y-91179400D02*
X59625939Y-91250828D01*
X59625939Y-91250828D02*
X59268797Y-91250828D01*
X59268797Y-91250828D02*
X59125939Y-91179400D01*
X59125939Y-91179400D02*
X59054511Y-91036542D01*
X59054511Y-91036542D02*
X59054511Y-90893685D01*
X59054511Y-90893685D02*
X59125939Y-90750828D01*
X59125939Y-90750828D02*
X59268797Y-90679400D01*
X59268797Y-90679400D02*
X59625939Y-90679400D01*
X59625939Y-90679400D02*
X59768797Y-90607971D01*
X60483082Y-90250828D02*
X60483082Y-91250828D01*
X60483082Y-90393685D02*
X60554511Y-90322257D01*
X60554511Y-90322257D02*
X60697368Y-90250828D01*
X60697368Y-90250828D02*
X60911654Y-90250828D01*
X60911654Y-90250828D02*
X61054511Y-90322257D01*
X61054511Y-90322257D02*
X61125940Y-90465114D01*
X61125940Y-90465114D02*
X61125940Y-91250828D01*
X62054511Y-91250828D02*
X61911654Y-91179400D01*
X61911654Y-91179400D02*
X61840225Y-91107971D01*
X61840225Y-91107971D02*
X61768797Y-90965114D01*
X61768797Y-90965114D02*
X61768797Y-90536542D01*
X61768797Y-90536542D02*
X61840225Y-90393685D01*
X61840225Y-90393685D02*
X61911654Y-90322257D01*
X61911654Y-90322257D02*
X62054511Y-90250828D01*
X62054511Y-90250828D02*
X62268797Y-90250828D01*
X62268797Y-90250828D02*
X62411654Y-90322257D01*
X62411654Y-90322257D02*
X62483083Y-90393685D01*
X62483083Y-90393685D02*
X62554511Y-90536542D01*
X62554511Y-90536542D02*
X62554511Y-90965114D01*
X62554511Y-90965114D02*
X62483083Y-91107971D01*
X62483083Y-91107971D02*
X62411654Y-91179400D01*
X62411654Y-91179400D02*
X62268797Y-91250828D01*
X62268797Y-91250828D02*
X62054511Y-91250828D01*
D13*
X52239347Y-110684438D02*
X52239347Y-108684438D01*
X52239347Y-108684438D02*
X52715537Y-108684438D01*
X52715537Y-108684438D02*
X53001252Y-108779676D01*
X53001252Y-108779676D02*
X53191728Y-108970152D01*
X53191728Y-108970152D02*
X53286966Y-109160628D01*
X53286966Y-109160628D02*
X53382204Y-109541580D01*
X53382204Y-109541580D02*
X53382204Y-109827295D01*
X53382204Y-109827295D02*
X53286966Y-110208247D01*
X53286966Y-110208247D02*
X53191728Y-110398723D01*
X53191728Y-110398723D02*
X53001252Y-110589200D01*
X53001252Y-110589200D02*
X52715537Y-110684438D01*
X52715537Y-110684438D02*
X52239347Y-110684438D01*
X54906014Y-109636819D02*
X54239347Y-109636819D01*
X54239347Y-110684438D02*
X54239347Y-108684438D01*
X54239347Y-108684438D02*
X55191728Y-108684438D01*
X57096490Y-110684438D02*
X56429823Y-109732057D01*
X55953633Y-110684438D02*
X55953633Y-108684438D01*
X55953633Y-108684438D02*
X56715538Y-108684438D01*
X56715538Y-108684438D02*
X56906014Y-108779676D01*
X56906014Y-108779676D02*
X57001252Y-108874914D01*
X57001252Y-108874914D02*
X57096490Y-109065390D01*
X57096490Y-109065390D02*
X57096490Y-109351104D01*
X57096490Y-109351104D02*
X57001252Y-109541580D01*
X57001252Y-109541580D02*
X56906014Y-109636819D01*
X56906014Y-109636819D02*
X56715538Y-109732057D01*
X56715538Y-109732057D02*
X55953633Y-109732057D01*
X58239347Y-110684438D02*
X58048871Y-110589200D01*
X58048871Y-110589200D02*
X57953633Y-110493961D01*
X57953633Y-110493961D02*
X57858395Y-110303485D01*
X57858395Y-110303485D02*
X57858395Y-109732057D01*
X57858395Y-109732057D02*
X57953633Y-109541580D01*
X57953633Y-109541580D02*
X58048871Y-109446342D01*
X58048871Y-109446342D02*
X58239347Y-109351104D01*
X58239347Y-109351104D02*
X58525062Y-109351104D01*
X58525062Y-109351104D02*
X58715538Y-109446342D01*
X58715538Y-109446342D02*
X58810776Y-109541580D01*
X58810776Y-109541580D02*
X58906014Y-109732057D01*
X58906014Y-109732057D02*
X58906014Y-110303485D01*
X58906014Y-110303485D02*
X58810776Y-110493961D01*
X58810776Y-110493961D02*
X58715538Y-110589200D01*
X58715538Y-110589200D02*
X58525062Y-110684438D01*
X58525062Y-110684438D02*
X58239347Y-110684438D01*
X59763157Y-110684438D02*
X59763157Y-108684438D01*
X59763157Y-109446342D02*
X59953633Y-109351104D01*
X59953633Y-109351104D02*
X60334586Y-109351104D01*
X60334586Y-109351104D02*
X60525062Y-109446342D01*
X60525062Y-109446342D02*
X60620300Y-109541580D01*
X60620300Y-109541580D02*
X60715538Y-109732057D01*
X60715538Y-109732057D02*
X60715538Y-110303485D01*
X60715538Y-110303485D02*
X60620300Y-110493961D01*
X60620300Y-110493961D02*
X60525062Y-110589200D01*
X60525062Y-110589200D02*
X60334586Y-110684438D01*
X60334586Y-110684438D02*
X59953633Y-110684438D01*
X59953633Y-110684438D02*
X59763157Y-110589200D01*
X61858395Y-110684438D02*
X61667919Y-110589200D01*
X61667919Y-110589200D02*
X61572681Y-110493961D01*
X61572681Y-110493961D02*
X61477443Y-110303485D01*
X61477443Y-110303485D02*
X61477443Y-109732057D01*
X61477443Y-109732057D02*
X61572681Y-109541580D01*
X61572681Y-109541580D02*
X61667919Y-109446342D01*
X61667919Y-109446342D02*
X61858395Y-109351104D01*
X61858395Y-109351104D02*
X62144110Y-109351104D01*
X62144110Y-109351104D02*
X62334586Y-109446342D01*
X62334586Y-109446342D02*
X62429824Y-109541580D01*
X62429824Y-109541580D02*
X62525062Y-109732057D01*
X62525062Y-109732057D02*
X62525062Y-110303485D01*
X62525062Y-110303485D02*
X62429824Y-110493961D01*
X62429824Y-110493961D02*
X62334586Y-110589200D01*
X62334586Y-110589200D02*
X62144110Y-110684438D01*
X62144110Y-110684438D02*
X61858395Y-110684438D01*
X63096491Y-109351104D02*
X63858395Y-109351104D01*
X63382205Y-108684438D02*
X63382205Y-110398723D01*
X63382205Y-110398723D02*
X63477443Y-110589200D01*
X63477443Y-110589200D02*
X63667919Y-110684438D01*
X63667919Y-110684438D02*
X63858395Y-110684438D01*
X66048872Y-110684438D02*
X66048872Y-108684438D01*
X66048872Y-108684438D02*
X66715539Y-110113009D01*
X66715539Y-110113009D02*
X67382205Y-108684438D01*
X67382205Y-108684438D02*
X67382205Y-110684438D01*
X69191729Y-109351104D02*
X69191729Y-110684438D01*
X68334586Y-109351104D02*
X68334586Y-110398723D01*
X68334586Y-110398723D02*
X68429824Y-110589200D01*
X68429824Y-110589200D02*
X68620300Y-110684438D01*
X68620300Y-110684438D02*
X68906015Y-110684438D01*
X68906015Y-110684438D02*
X69096491Y-110589200D01*
X69096491Y-110589200D02*
X69191729Y-110493961D01*
X70429824Y-110684438D02*
X70239348Y-110589200D01*
X70239348Y-110589200D02*
X70144110Y-110398723D01*
X70144110Y-110398723D02*
X70144110Y-108684438D01*
X70906015Y-109351104D02*
X71667919Y-109351104D01*
X71191729Y-108684438D02*
X71191729Y-110398723D01*
X71191729Y-110398723D02*
X71286967Y-110589200D01*
X71286967Y-110589200D02*
X71477443Y-110684438D01*
X71477443Y-110684438D02*
X71667919Y-110684438D01*
X72334586Y-110684438D02*
X72334586Y-109351104D01*
X72334586Y-108684438D02*
X72239348Y-108779676D01*
X72239348Y-108779676D02*
X72334586Y-108874914D01*
X72334586Y-108874914D02*
X72429824Y-108779676D01*
X72429824Y-108779676D02*
X72334586Y-108684438D01*
X72334586Y-108684438D02*
X72334586Y-108874914D01*
X73286967Y-109922533D02*
X74810777Y-109922533D01*
X76810776Y-108779676D02*
X76620300Y-108684438D01*
X76620300Y-108684438D02*
X76334586Y-108684438D01*
X76334586Y-108684438D02*
X76048871Y-108779676D01*
X76048871Y-108779676D02*
X75858395Y-108970152D01*
X75858395Y-108970152D02*
X75763157Y-109160628D01*
X75763157Y-109160628D02*
X75667919Y-109541580D01*
X75667919Y-109541580D02*
X75667919Y-109827295D01*
X75667919Y-109827295D02*
X75763157Y-110208247D01*
X75763157Y-110208247D02*
X75858395Y-110398723D01*
X75858395Y-110398723D02*
X76048871Y-110589200D01*
X76048871Y-110589200D02*
X76334586Y-110684438D01*
X76334586Y-110684438D02*
X76525062Y-110684438D01*
X76525062Y-110684438D02*
X76810776Y-110589200D01*
X76810776Y-110589200D02*
X76906014Y-110493961D01*
X76906014Y-110493961D02*
X76906014Y-109827295D01*
X76906014Y-109827295D02*
X76525062Y-109827295D01*
X78620300Y-110684438D02*
X78620300Y-109636819D01*
X78620300Y-109636819D02*
X78525062Y-109446342D01*
X78525062Y-109446342D02*
X78334586Y-109351104D01*
X78334586Y-109351104D02*
X77953633Y-109351104D01*
X77953633Y-109351104D02*
X77763157Y-109446342D01*
X78620300Y-110589200D02*
X78429824Y-110684438D01*
X78429824Y-110684438D02*
X77953633Y-110684438D01*
X77953633Y-110684438D02*
X77763157Y-110589200D01*
X77763157Y-110589200D02*
X77667919Y-110398723D01*
X77667919Y-110398723D02*
X77667919Y-110208247D01*
X77667919Y-110208247D02*
X77763157Y-110017771D01*
X77763157Y-110017771D02*
X77953633Y-109922533D01*
X77953633Y-109922533D02*
X78429824Y-109922533D01*
X78429824Y-109922533D02*
X78620300Y-109827295D01*
X79477443Y-110589200D02*
X79667919Y-110684438D01*
X79667919Y-110684438D02*
X80048871Y-110684438D01*
X80048871Y-110684438D02*
X80239348Y-110589200D01*
X80239348Y-110589200D02*
X80334586Y-110398723D01*
X80334586Y-110398723D02*
X80334586Y-110303485D01*
X80334586Y-110303485D02*
X80239348Y-110113009D01*
X80239348Y-110113009D02*
X80048871Y-110017771D01*
X80048871Y-110017771D02*
X79763157Y-110017771D01*
X79763157Y-110017771D02*
X79572681Y-109922533D01*
X79572681Y-109922533D02*
X79477443Y-109732057D01*
X79477443Y-109732057D02*
X79477443Y-109636819D01*
X79477443Y-109636819D02*
X79572681Y-109446342D01*
X79572681Y-109446342D02*
X79763157Y-109351104D01*
X79763157Y-109351104D02*
X80048871Y-109351104D01*
X80048871Y-109351104D02*
X80239348Y-109446342D01*
X82429825Y-108684438D02*
X83572682Y-108684438D01*
X83001253Y-110684438D02*
X83001253Y-108684438D01*
X84239349Y-110684438D02*
X84239349Y-109351104D01*
X84239349Y-109732057D02*
X84334587Y-109541580D01*
X84334587Y-109541580D02*
X84429825Y-109446342D01*
X84429825Y-109446342D02*
X84620301Y-109351104D01*
X84620301Y-109351104D02*
X84810778Y-109351104D01*
X86334587Y-110684438D02*
X86334587Y-109636819D01*
X86334587Y-109636819D02*
X86239349Y-109446342D01*
X86239349Y-109446342D02*
X86048873Y-109351104D01*
X86048873Y-109351104D02*
X85667920Y-109351104D01*
X85667920Y-109351104D02*
X85477444Y-109446342D01*
X86334587Y-110589200D02*
X86144111Y-110684438D01*
X86144111Y-110684438D02*
X85667920Y-110684438D01*
X85667920Y-110684438D02*
X85477444Y-110589200D01*
X85477444Y-110589200D02*
X85382206Y-110398723D01*
X85382206Y-110398723D02*
X85382206Y-110208247D01*
X85382206Y-110208247D02*
X85477444Y-110017771D01*
X85477444Y-110017771D02*
X85667920Y-109922533D01*
X85667920Y-109922533D02*
X86144111Y-109922533D01*
X86144111Y-109922533D02*
X86334587Y-109827295D01*
X87286968Y-109351104D02*
X87286968Y-110684438D01*
X87286968Y-109541580D02*
X87382206Y-109446342D01*
X87382206Y-109446342D02*
X87572682Y-109351104D01*
X87572682Y-109351104D02*
X87858397Y-109351104D01*
X87858397Y-109351104D02*
X88048873Y-109446342D01*
X88048873Y-109446342D02*
X88144111Y-109636819D01*
X88144111Y-109636819D02*
X88144111Y-110684438D01*
X89001254Y-110589200D02*
X89191730Y-110684438D01*
X89191730Y-110684438D02*
X89572682Y-110684438D01*
X89572682Y-110684438D02*
X89763159Y-110589200D01*
X89763159Y-110589200D02*
X89858397Y-110398723D01*
X89858397Y-110398723D02*
X89858397Y-110303485D01*
X89858397Y-110303485D02*
X89763159Y-110113009D01*
X89763159Y-110113009D02*
X89572682Y-110017771D01*
X89572682Y-110017771D02*
X89286968Y-110017771D01*
X89286968Y-110017771D02*
X89096492Y-109922533D01*
X89096492Y-109922533D02*
X89001254Y-109732057D01*
X89001254Y-109732057D02*
X89001254Y-109636819D01*
X89001254Y-109636819D02*
X89096492Y-109446342D01*
X89096492Y-109446342D02*
X89286968Y-109351104D01*
X89286968Y-109351104D02*
X89572682Y-109351104D01*
X89572682Y-109351104D02*
X89763159Y-109446342D01*
X90715540Y-110684438D02*
X90715540Y-109351104D01*
X90715540Y-109541580D02*
X90810778Y-109446342D01*
X90810778Y-109446342D02*
X91001254Y-109351104D01*
X91001254Y-109351104D02*
X91286969Y-109351104D01*
X91286969Y-109351104D02*
X91477445Y-109446342D01*
X91477445Y-109446342D02*
X91572683Y-109636819D01*
X91572683Y-109636819D02*
X91572683Y-110684438D01*
X91572683Y-109636819D02*
X91667921Y-109446342D01*
X91667921Y-109446342D02*
X91858397Y-109351104D01*
X91858397Y-109351104D02*
X92144111Y-109351104D01*
X92144111Y-109351104D02*
X92334588Y-109446342D01*
X92334588Y-109446342D02*
X92429826Y-109636819D01*
X92429826Y-109636819D02*
X92429826Y-110684438D01*
X93382207Y-110684438D02*
X93382207Y-109351104D01*
X93382207Y-108684438D02*
X93286969Y-108779676D01*
X93286969Y-108779676D02*
X93382207Y-108874914D01*
X93382207Y-108874914D02*
X93477445Y-108779676D01*
X93477445Y-108779676D02*
X93382207Y-108684438D01*
X93382207Y-108684438D02*
X93382207Y-108874914D01*
X94048874Y-109351104D02*
X94810778Y-109351104D01*
X94334588Y-108684438D02*
X94334588Y-110398723D01*
X94334588Y-110398723D02*
X94429826Y-110589200D01*
X94429826Y-110589200D02*
X94620302Y-110684438D01*
X94620302Y-110684438D02*
X94810778Y-110684438D01*
X95191731Y-109351104D02*
X95953635Y-109351104D01*
X95477445Y-108684438D02*
X95477445Y-110398723D01*
X95477445Y-110398723D02*
X95572683Y-110589200D01*
X95572683Y-110589200D02*
X95763159Y-110684438D01*
X95763159Y-110684438D02*
X95953635Y-110684438D01*
X97382207Y-110589200D02*
X97191731Y-110684438D01*
X97191731Y-110684438D02*
X96810778Y-110684438D01*
X96810778Y-110684438D02*
X96620302Y-110589200D01*
X96620302Y-110589200D02*
X96525064Y-110398723D01*
X96525064Y-110398723D02*
X96525064Y-109636819D01*
X96525064Y-109636819D02*
X96620302Y-109446342D01*
X96620302Y-109446342D02*
X96810778Y-109351104D01*
X96810778Y-109351104D02*
X97191731Y-109351104D01*
X97191731Y-109351104D02*
X97382207Y-109446342D01*
X97382207Y-109446342D02*
X97477445Y-109636819D01*
X97477445Y-109636819D02*
X97477445Y-109827295D01*
X97477445Y-109827295D02*
X96525064Y-110017771D01*
X98334588Y-110684438D02*
X98334588Y-109351104D01*
X98334588Y-109732057D02*
X98429826Y-109541580D01*
X98429826Y-109541580D02*
X98525064Y-109446342D01*
X98525064Y-109446342D02*
X98715540Y-109351104D01*
X98715540Y-109351104D02*
X98906017Y-109351104D01*
D14*
X103738095Y-103454819D02*
X103738095Y-102454819D01*
X103738095Y-102931009D02*
X104309523Y-102931009D01*
X104309523Y-103454819D02*
X104309523Y-102454819D01*
X105309523Y-103454819D02*
X104738095Y-103454819D01*
X105023809Y-103454819D02*
X105023809Y-102454819D01*
X105023809Y-102454819D02*
X104928571Y-102597676D01*
X104928571Y-102597676D02*
X104833333Y-102692914D01*
X104833333Y-102692914D02*
X104738095Y-102740533D01*
X104738095Y-66454819D02*
X104738095Y-65454819D01*
X104738095Y-65931009D02*
X105309523Y-65931009D01*
X105309523Y-66454819D02*
X105309523Y-65454819D01*
X105690476Y-65454819D02*
X106309523Y-65454819D01*
X106309523Y-65454819D02*
X105976190Y-65835771D01*
X105976190Y-65835771D02*
X106119047Y-65835771D01*
X106119047Y-65835771D02*
X106214285Y-65883390D01*
X106214285Y-65883390D02*
X106261904Y-65931009D01*
X106261904Y-65931009D02*
X106309523Y-66026247D01*
X106309523Y-66026247D02*
X106309523Y-66264342D01*
X106309523Y-66264342D02*
X106261904Y-66359580D01*
X106261904Y-66359580D02*
X106214285Y-66407200D01*
X106214285Y-66407200D02*
X106119047Y-66454819D01*
X106119047Y-66454819D02*
X105833333Y-66454819D01*
X105833333Y-66454819D02*
X105738095Y-66407200D01*
X105738095Y-66407200D02*
X105690476Y-66359580D01*
X43738095Y-66454819D02*
X43738095Y-65454819D01*
X43738095Y-65931009D02*
X44309523Y-65931009D01*
X44309523Y-66454819D02*
X44309523Y-65454819D01*
X45214285Y-65788152D02*
X45214285Y-66454819D01*
X44976190Y-65407200D02*
X44738095Y-66121485D01*
X44738095Y-66121485D02*
X45357142Y-66121485D01*
X118346666Y-83324819D02*
X118346666Y-84039104D01*
X118346666Y-84039104D02*
X118299047Y-84181961D01*
X118299047Y-84181961D02*
X118203809Y-84277200D01*
X118203809Y-84277200D02*
X118060952Y-84324819D01*
X118060952Y-84324819D02*
X117965714Y-84324819D01*
X119346666Y-84324819D02*
X118775238Y-84324819D01*
X119060952Y-84324819D02*
X119060952Y-83324819D01*
X119060952Y-83324819D02*
X118965714Y-83467676D01*
X118965714Y-83467676D02*
X118870476Y-83562914D01*
X118870476Y-83562914D02*
X118775238Y-83610533D01*
X94166666Y-60404819D02*
X94166666Y-61119104D01*
X94166666Y-61119104D02*
X94119047Y-61261961D01*
X94119047Y-61261961D02*
X94023809Y-61357200D01*
X94023809Y-61357200D02*
X93880952Y-61404819D01*
X93880952Y-61404819D02*
X93785714Y-61404819D01*
X94595238Y-60500057D02*
X94642857Y-60452438D01*
X94642857Y-60452438D02*
X94738095Y-60404819D01*
X94738095Y-60404819D02*
X94976190Y-60404819D01*
X94976190Y-60404819D02*
X95071428Y-60452438D01*
X95071428Y-60452438D02*
X95119047Y-60500057D01*
X95119047Y-60500057D02*
X95166666Y-60595295D01*
X95166666Y-60595295D02*
X95166666Y-60690533D01*
X95166666Y-60690533D02*
X95119047Y-60833390D01*
X95119047Y-60833390D02*
X94547619Y-61404819D01*
X94547619Y-61404819D02*
X95166666Y-61404819D01*
X77949104Y-90674285D02*
X77949104Y-90198095D01*
X78234819Y-90769523D02*
X77234819Y-90436190D01*
X77234819Y-90436190D02*
X78234819Y-90102857D01*
X78234819Y-89245714D02*
X78234819Y-89817142D01*
X78234819Y-89531428D02*
X77234819Y-89531428D01*
X77234819Y-89531428D02*
X77377676Y-89626666D01*
X77377676Y-89626666D02*
X77472914Y-89721904D01*
X77472914Y-89721904D02*
X77520533Y-89817142D01*
X37685180Y-88698095D02*
X36875657Y-88698095D01*
X36875657Y-88698095D02*
X36780419Y-88745714D01*
X36780419Y-88745714D02*
X36732800Y-88793333D01*
X36732800Y-88793333D02*
X36685180Y-88888571D01*
X36685180Y-88888571D02*
X36685180Y-89079047D01*
X36685180Y-89079047D02*
X36732800Y-89174285D01*
X36732800Y-89174285D02*
X36780419Y-89221904D01*
X36780419Y-89221904D02*
X36875657Y-89269523D01*
X36875657Y-89269523D02*
X37685180Y-89269523D01*
X36732800Y-89698095D02*
X36685180Y-89840952D01*
X36685180Y-89840952D02*
X36685180Y-90079047D01*
X36685180Y-90079047D02*
X36732800Y-90174285D01*
X36732800Y-90174285D02*
X36780419Y-90221904D01*
X36780419Y-90221904D02*
X36875657Y-90269523D01*
X36875657Y-90269523D02*
X36970895Y-90269523D01*
X36970895Y-90269523D02*
X37066133Y-90221904D01*
X37066133Y-90221904D02*
X37113752Y-90174285D01*
X37113752Y-90174285D02*
X37161371Y-90079047D01*
X37161371Y-90079047D02*
X37208990Y-89888571D01*
X37208990Y-89888571D02*
X37256609Y-89793333D01*
X37256609Y-89793333D02*
X37304228Y-89745714D01*
X37304228Y-89745714D02*
X37399466Y-89698095D01*
X37399466Y-89698095D02*
X37494704Y-89698095D01*
X37494704Y-89698095D02*
X37589942Y-89745714D01*
X37589942Y-89745714D02*
X37637561Y-89793333D01*
X37637561Y-89793333D02*
X37685180Y-89888571D01*
X37685180Y-89888571D02*
X37685180Y-90126666D01*
X37685180Y-90126666D02*
X37637561Y-90269523D01*
X37208990Y-91031428D02*
X37161371Y-91174285D01*
X37161371Y-91174285D02*
X37113752Y-91221904D01*
X37113752Y-91221904D02*
X37018514Y-91269523D01*
X37018514Y-91269523D02*
X36875657Y-91269523D01*
X36875657Y-91269523D02*
X36780419Y-91221904D01*
X36780419Y-91221904D02*
X36732800Y-91174285D01*
X36732800Y-91174285D02*
X36685180Y-91079047D01*
X36685180Y-91079047D02*
X36685180Y-90698095D01*
X36685180Y-90698095D02*
X37685180Y-90698095D01*
X37685180Y-90698095D02*
X37685180Y-91031428D01*
X37685180Y-91031428D02*
X37637561Y-91126666D01*
X37637561Y-91126666D02*
X37589942Y-91174285D01*
X37589942Y-91174285D02*
X37494704Y-91221904D01*
X37494704Y-91221904D02*
X37399466Y-91221904D01*
X37399466Y-91221904D02*
X37304228Y-91174285D01*
X37304228Y-91174285D02*
X37256609Y-91126666D01*
X37256609Y-91126666D02*
X37208990Y-91031428D01*
X37208990Y-91031428D02*
X37208990Y-90698095D01*
X43738095Y-103454819D02*
X43738095Y-102454819D01*
X43738095Y-102931009D02*
X44309523Y-102931009D01*
X44309523Y-103454819D02*
X44309523Y-102454819D01*
X44738095Y-102550057D02*
X44785714Y-102502438D01*
X44785714Y-102502438D02*
X44880952Y-102454819D01*
X44880952Y-102454819D02*
X45119047Y-102454819D01*
X45119047Y-102454819D02*
X45214285Y-102502438D01*
X45214285Y-102502438D02*
X45261904Y-102550057D01*
X45261904Y-102550057D02*
X45309523Y-102645295D01*
X45309523Y-102645295D02*
X45309523Y-102740533D01*
X45309523Y-102740533D02*
X45261904Y-102883390D01*
X45261904Y-102883390D02*
X44690476Y-103454819D01*
X44690476Y-103454819D02*
X45309523Y-103454819D01*
%TO.C,J1*%
D15*
X113025000Y-84870000D02*
X114295000Y-84870000D01*
X113025000Y-86140000D02*
X113025000Y-84870000D01*
X115372358Y-88250000D02*
X115685000Y-88250000D01*
X115372358Y-89110000D02*
X115685000Y-89110000D01*
X115372358Y-90790000D02*
X115685000Y-90790000D01*
X115372358Y-91650000D02*
X115685000Y-91650000D01*
X115372358Y-93330000D02*
X115685000Y-93330000D01*
X115372358Y-94190000D02*
X115685000Y-94190000D01*
X115455000Y-85710000D02*
X115685000Y-85710000D01*
X115455000Y-86570000D02*
X115685000Y-86570000D01*
X115685000Y-87410000D02*
X118445000Y-87410000D01*
X115685000Y-89950000D02*
X118445000Y-89950000D01*
X115685000Y-92490000D02*
X118445000Y-92490000D01*
X118445000Y-88250000D02*
X124445000Y-88250000D01*
X118445000Y-90790000D02*
X124445000Y-90790000D01*
X118445000Y-93330000D02*
X124445000Y-93330000D01*
X124445000Y-88250000D02*
X124445000Y-89110000D01*
X124445000Y-89110000D02*
X118445000Y-89110000D01*
X124445000Y-90790000D02*
X124445000Y-91650000D01*
X124445000Y-91650000D02*
X118445000Y-91650000D01*
X124445000Y-93330000D02*
X124445000Y-94190000D01*
X124445000Y-94190000D02*
X118445000Y-94190000D01*
X115685000Y-84760000D02*
X118445000Y-84760000D01*
X118445000Y-95140000D01*
X115685000Y-95140000D01*
X115685000Y-84760000D01*
X118445000Y-85710000D02*
X124445000Y-85710000D01*
X124445000Y-86570000D01*
X118445000Y-86570000D01*
X118445000Y-85710000D01*
G36*
X118445000Y-85710000D02*
G01*
X124445000Y-85710000D01*
X124445000Y-86570000D01*
X118445000Y-86570000D01*
X118445000Y-85710000D01*
G37*
%TO.C,J2*%
X93120000Y-61950000D02*
X94500000Y-61950000D01*
X93120000Y-63330000D02*
X93120000Y-61950000D01*
X93120000Y-64600000D02*
X93120000Y-72330000D01*
X93120000Y-64600000D02*
X95880000Y-64600000D01*
X93120000Y-72330000D02*
X95880000Y-72330000D01*
X95880000Y-64600000D02*
X95880000Y-72330000D01*
%TO.C,A1*%
X30660000Y-86020000D02*
X41080000Y-86020000D01*
X30660000Y-93900000D02*
X30660000Y-86020000D01*
X33200000Y-80940000D02*
X33200000Y-86020000D01*
X33200000Y-98980000D02*
X33200000Y-93900000D01*
X33200000Y-98980000D02*
X76640000Y-98980000D01*
X35870000Y-83610000D02*
X35870000Y-80940000D01*
X35870000Y-96310000D02*
X35870000Y-98980000D01*
X41080000Y-86020000D02*
X41080000Y-93900000D01*
X41080000Y-93900000D02*
X30660000Y-93900000D01*
X71430000Y-80940000D02*
X33200000Y-80940000D01*
X71430000Y-83610000D02*
X35870000Y-83610000D01*
X71430000Y-83610000D02*
X71430000Y-80940000D01*
X71430000Y-83610000D02*
X73970000Y-83610000D01*
X73970000Y-83610000D02*
X73970000Y-80940000D01*
X73970000Y-96310000D02*
X35870000Y-96310000D01*
X73970000Y-96310000D02*
X73970000Y-98980000D01*
X76640000Y-80940000D02*
X73970000Y-80940000D01*
X76640000Y-98980000D02*
X76640000Y-80940000D01*
%TD*%
%LPC*%
D16*
%TO.C,H1*%
X104500000Y-108950000D03*
D17*
X104500000Y-108950000D03*
%TD*%
D16*
%TO.C,H3*%
X105500000Y-71950000D03*
D17*
X105500000Y-71950000D03*
%TD*%
D16*
%TO.C,H4*%
X44500000Y-71950000D03*
D17*
X44500000Y-71950000D03*
%TD*%
D18*
%TO.C,J1*%
X114295000Y-86140000D03*
D19*
X114295000Y-88680000D03*
X114295000Y-91220000D03*
X114295000Y-93760000D03*
%TD*%
D18*
%TO.C,J2*%
X94500000Y-63330000D03*
D19*
X94500000Y-65870000D03*
X94500000Y-68410000D03*
X94500000Y-70950000D03*
%TD*%
D20*
%TO.C,A1*%
X72700000Y-82340000D03*
D21*
X70160000Y-82340000D03*
X67620000Y-82340000D03*
X65080000Y-82340000D03*
X62540000Y-82340000D03*
X60000000Y-82340000D03*
X57460000Y-82340000D03*
X54920000Y-82340000D03*
X52380000Y-82340000D03*
X49840000Y-82340000D03*
X47300000Y-82340000D03*
X44760000Y-82340000D03*
X42220000Y-82340000D03*
X39680000Y-82340000D03*
X37140000Y-82340000D03*
X37140000Y-97580000D03*
X39680000Y-97580000D03*
X42220000Y-97580000D03*
X44760000Y-97580000D03*
X47300000Y-97580000D03*
X49840000Y-97580000D03*
X52380000Y-97580000D03*
X54920000Y-97580000D03*
X57460000Y-97580000D03*
X60000000Y-97580000D03*
X62540000Y-97580000D03*
X65080000Y-97580000D03*
X67620000Y-97580000D03*
X70160000Y-97580000D03*
X72700000Y-97580000D03*
%TD*%
D16*
%TO.C,H2*%
X44500000Y-108950000D03*
D17*
X44500000Y-108950000D03*
%TD*%
%LPD*%
M02*
