%TF.GenerationSoftware,KiCad,Pcbnew,10.0.3*%
%TF.CreationDate,2026-07-05T22:38:30+05:30*%
%TF.ProjectId,arduino_nano_pcb(phase1),61726475-696e-46f5-9f6e-616e6f5f7063,2*%
%TF.SameCoordinates,Original*%
%TF.FileFunction,Copper,L1,Top*%
%TF.FilePolarity,Positive*%
%FSLAX46Y46*%
G04 Gerber Fmt 4.6, Leading zero omitted, Abs format (unit mm)*
G04 Created by KiCad (PCBNEW 10.0.3) date 2026-07-05 22:38:30*
%MOMM*%
%LPD*%
G01*
G04 APERTURE LIST*
%TA.AperFunction,ComponentPad*%
%ADD10C,5.400000*%
%TD*%
%TA.AperFunction,ConnectorPad*%
%ADD11C,10.000000*%
%TD*%
%TA.AperFunction,ComponentPad*%
%ADD12R,1.700000X1.700000*%
%TD*%
%TA.AperFunction,ComponentPad*%
%ADD13C,1.700000*%
%TD*%
%TA.AperFunction,ComponentPad*%
%ADD14R,1.600000X1.600000*%
%TD*%
%TA.AperFunction,ComponentPad*%
%ADD15O,1.600000X1.600000*%
%TD*%
G04 APERTURE END LIST*
D10*
%TO.P,H1,1,1_1*%
%TO.N,GND*%
X104500000Y-108950000D03*
D11*
X104500000Y-108950000D03*
%TD*%
D10*
%TO.P,H3,1,1_1*%
%TO.N,GND*%
X105500000Y-71950000D03*
D11*
X105500000Y-71950000D03*
%TD*%
D10*
%TO.P,H4,1,1_1*%
%TO.N,GND*%
X44500000Y-71950000D03*
D11*
X44500000Y-71950000D03*
%TD*%
D12*
%TO.P,J1,1,Pin_1_1*%
%TO.N,/MCU_RX_SENSOR_TX*%
X114295000Y-86140000D03*
D13*
%TO.P,J1,2,Pin_2_2*%
%TO.N,/MCU_TX_SENSOR_RX*%
X114295000Y-88680000D03*
%TO.P,J1,3,Pin_3_3*%
%TO.N,GND*%
X114295000Y-91220000D03*
%TO.P,J1,4,Pin_4_4*%
%TO.N,VCC*%
X114295000Y-93760000D03*
%TD*%
D12*
%TO.P,J2,1,Pin_1_1*%
%TO.N,/TM1637_CLK*%
X94500000Y-63330000D03*
D13*
%TO.P,J2,2,Pin_2_2*%
%TO.N,/TM1637_DIO*%
X94500000Y-65870000D03*
%TO.P,J2,3,Pin_3_3*%
%TO.N,VCC*%
X94500000Y-68410000D03*
%TO.P,J2,4,Pin_4_4*%
%TO.N,GND*%
X94500000Y-70950000D03*
%TD*%
D14*
%TO.P,A1,1,D1/TX_1*%
%TO.N,unconnected-(A1-D1{slash}TX-Pad1)*%
X72700000Y-82340000D03*
D15*
%TO.P,A1,2,D0/RX_2*%
%TO.N,unconnected-(A1-D0{slash}RX-Pad2)*%
X70160000Y-82340000D03*
%TO.P,A1,3,~{RESET}_3*%
%TO.N,unconnected-(A1-~{RESET}-Pad3)*%
X67620000Y-82340000D03*
%TO.P,A1,4,GND_4*%
%TO.N,GND*%
X65080000Y-82340000D03*
%TO.P,A1,5,D2_5*%
%TO.N,/TM1637_DIO*%
X62540000Y-82340000D03*
%TO.P,A1,6,D3_6*%
%TO.N,/TM1637_CLK*%
X60000000Y-82340000D03*
%TO.P,A1,7,D4_7*%
%TO.N,unconnected-(A1-D4-Pad7)*%
X57460000Y-82340000D03*
%TO.P,A1,8,D5_8*%
%TO.N,unconnected-(A1-D5-Pad8)*%
X54920000Y-82340000D03*
%TO.P,A1,9,D6_9*%
%TO.N,unconnected-(A1-D6-Pad9)*%
X52380000Y-82340000D03*
%TO.P,A1,10,D7_10*%
%TO.N,unconnected-(A1-D7-Pad10)*%
X49840000Y-82340000D03*
%TO.P,A1,11,D8_11*%
%TO.N,unconnected-(A1-D8-Pad11)*%
X47300000Y-82340000D03*
%TO.P,A1,12,D9_12*%
%TO.N,unconnected-(A1-D9-Pad12)*%
X44760000Y-82340000D03*
%TO.P,A1,13,D10_13*%
%TO.N,unconnected-(A1-D10-Pad13)*%
X42220000Y-82340000D03*
%TO.P,A1,14,D11_14*%
%TO.N,/MCU_RX_SENSOR_TX*%
X39680000Y-82340000D03*
%TO.P,A1,15,D12_15*%
%TO.N,/MCU_TX_SENSOR_RX*%
X37140000Y-82340000D03*
%TO.P,A1,16,D13_16*%
%TO.N,unconnected-(A1-D13-Pad16)*%
X37140000Y-97580000D03*
%TO.P,A1,17,3V3_17*%
%TO.N,unconnected-(A1-3V3-Pad17)*%
X39680000Y-97580000D03*
%TO.P,A1,18,AREF_18*%
%TO.N,unconnected-(A1-AREF-Pad18)*%
X42220000Y-97580000D03*
%TO.P,A1,19,A0_19*%
%TO.N,unconnected-(A1-A0-Pad19)*%
X44760000Y-97580000D03*
%TO.P,A1,20,A1_20*%
%TO.N,unconnected-(A1-A1-Pad20)*%
X47300000Y-97580000D03*
%TO.P,A1,21,A2_21*%
%TO.N,unconnected-(A1-A2-Pad21)*%
X49840000Y-97580000D03*
%TO.P,A1,22,A3_22*%
%TO.N,unconnected-(A1-A3-Pad22)*%
X52380000Y-97580000D03*
%TO.P,A1,23,A4_23*%
%TO.N,unconnected-(A1-A4-Pad23)*%
X54920000Y-97580000D03*
%TO.P,A1,24,A5_24*%
%TO.N,unconnected-(A1-A5-Pad24)*%
X57460000Y-97580000D03*
%TO.P,A1,25,A6_25*%
%TO.N,unconnected-(A1-A6-Pad25)*%
X60000000Y-97580000D03*
%TO.P,A1,26,A7_26*%
%TO.N,unconnected-(A1-A7-Pad26)*%
X62540000Y-97580000D03*
%TO.P,A1,27,+5V_27*%
%TO.N,VCC*%
X65080000Y-97580000D03*
%TO.P,A1,28,~{RESET}_28*%
%TO.N,unconnected-(A1-~{RESET}-Pad28)*%
X67620000Y-97580000D03*
%TO.P,A1,29,GND_29*%
%TO.N,unconnected-(A1-GND-Pad29)*%
X70160000Y-97580000D03*
%TO.P,A1,30,VIN_30*%
%TO.N,unconnected-(A1-VIN-Pad30)*%
X72700000Y-97580000D03*
%TD*%
D10*
%TO.P,H2,1,1_1*%
%TO.N,GND*%
X44500000Y-108950000D03*
D11*
X44500000Y-108950000D03*
%TD*%
%TA.AperFunction,Conductor*%
%TO.N,GND*%
G36*
X76281102Y-48517331D02*
G01*
X76284922Y-48517448D01*
X77562937Y-48576765D01*
X77566731Y-48577000D01*
X78842295Y-48675795D01*
X78846058Y-48676145D01*
X80117983Y-48814330D01*
X80121740Y-48814798D01*
X81388780Y-48992237D01*
X81392532Y-48992823D01*
X82653460Y-49209344D01*
X82657154Y-49210037D01*
X83910835Y-49465445D01*
X83914485Y-49466247D01*
X85159711Y-49760300D01*
X85163313Y-49761210D01*
X86398769Y-50093596D01*
X86402453Y-50094648D01*
X87627046Y-50465069D01*
X87630669Y-50466226D01*
X88843219Y-50874325D01*
X88846780Y-50875585D01*
X90046153Y-51320983D01*
X90049664Y-51322349D01*
X91234684Y-51804606D01*
X91238208Y-51806104D01*
X92407722Y-52324752D01*
X92411175Y-52326348D01*
X93564121Y-52880914D01*
X93567510Y-52882609D01*
X94207812Y-53215349D01*
X94702733Y-53472540D01*
X94706107Y-53474360D01*
X95822574Y-54099116D01*
X95825866Y-54101025D01*
X96739508Y-54650044D01*
X96922467Y-54759987D01*
X96925722Y-54762012D01*
X98001443Y-55454570D01*
X98004593Y-55456668D01*
X99058422Y-56182173D01*
X99061481Y-56184349D01*
X100092340Y-56942058D01*
X100095394Y-56944376D01*
X101102326Y-57733583D01*
X101105306Y-57735994D01*
X102087336Y-58555934D01*
X102090241Y-58558436D01*
X103046479Y-59408366D01*
X103049305Y-59410957D01*
X103978806Y-60290039D01*
X103981550Y-60292716D01*
X104407018Y-60720785D01*
X104883457Y-61200137D01*
X104886067Y-61202846D01*
X105611673Y-61979500D01*
X105759475Y-62137700D01*
X105762049Y-62140542D01*
X106606105Y-63101912D01*
X106608590Y-63104831D01*
X107422569Y-64091891D01*
X107424953Y-64094876D01*
X107527890Y-64227873D01*
X108207995Y-65106585D01*
X108210294Y-65109652D01*
X108961692Y-66145094D01*
X108963896Y-66148232D01*
X109682931Y-67206418D01*
X109685036Y-67209622D01*
X110246656Y-68093760D01*
X110370986Y-68289487D01*
X110372981Y-68292737D01*
X110603925Y-68682419D01*
X111025269Y-69393375D01*
X111027172Y-69396703D01*
X111394322Y-70062304D01*
X111626973Y-70484075D01*
X111645090Y-70516918D01*
X111646886Y-70520298D01*
X111768068Y-70757007D01*
X112229885Y-71659097D01*
X112231579Y-71662536D01*
X112779090Y-72818807D01*
X112780677Y-72822297D01*
X113292184Y-73994948D01*
X113293662Y-73998485D01*
X113768674Y-75186392D01*
X113770042Y-75189974D01*
X114208090Y-76391962D01*
X114209347Y-76395584D01*
X114610036Y-77610568D01*
X114611181Y-77614227D01*
X114974125Y-78841040D01*
X114975155Y-78844732D01*
X115299989Y-80082144D01*
X115300905Y-80085867D01*
X115587330Y-81332726D01*
X115588131Y-81336476D01*
X115835879Y-82591624D01*
X115836563Y-82595396D01*
X116045388Y-83857592D01*
X116045955Y-83861384D01*
X116215657Y-85129409D01*
X116216107Y-85133216D01*
X116346529Y-86405903D01*
X116346861Y-86409722D01*
X116437878Y-87685856D01*
X116438091Y-87689684D01*
X116489611Y-88967948D01*
X116489707Y-88971781D01*
X116501687Y-90251121D01*
X116501663Y-90254955D01*
X116474087Y-91533990D01*
X116473945Y-91537821D01*
X116406841Y-92815397D01*
X116406581Y-92819222D01*
X116300014Y-94094121D01*
X116299636Y-94097936D01*
X116153706Y-95368941D01*
X116153210Y-95372743D01*
X115968053Y-96638650D01*
X115967439Y-96642434D01*
X115743246Y-97901959D01*
X115742516Y-97905723D01*
X115479485Y-99157745D01*
X115478639Y-99161484D01*
X115177026Y-100404789D01*
X115176064Y-100408501D01*
X114836172Y-101641836D01*
X114835097Y-101645515D01*
X114457220Y-102867820D01*
X114456031Y-102871465D01*
X114040564Y-104081454D01*
X114039263Y-104085061D01*
X113586577Y-105281659D01*
X113585165Y-105285223D01*
X113095716Y-106467224D01*
X113094195Y-106470743D01*
X112568423Y-107637080D01*
X112566793Y-107640551D01*
X112005237Y-108790035D01*
X112003502Y-108793453D01*
X111406652Y-109925078D01*
X111404811Y-109928441D01*
X110773281Y-111041040D01*
X110771337Y-111044345D01*
X110105699Y-112136912D01*
X110103654Y-112140154D01*
X109404575Y-113211597D01*
X109402430Y-113214776D01*
X108670560Y-114264096D01*
X108668319Y-114267206D01*
X108085899Y-115049547D01*
X108030077Y-115091566D01*
X107986435Y-115099500D01*
X42013565Y-115099500D01*
X41946526Y-115079815D01*
X41914101Y-115049547D01*
X41331680Y-114267206D01*
X41329439Y-114264096D01*
X40597569Y-113214776D01*
X40595424Y-113211597D01*
X39896345Y-112140154D01*
X39894300Y-112136912D01*
X39681036Y-111786865D01*
X39228648Y-111044321D01*
X39226732Y-111041064D01*
X38595171Y-109928410D01*
X38593364Y-109925110D01*
X37996497Y-108793453D01*
X37994762Y-108790035D01*
X37433206Y-107640551D01*
X37431576Y-107637080D01*
X37411422Y-107592372D01*
X36905782Y-106470693D01*
X36904305Y-106467275D01*
X36414832Y-105285218D01*
X36413422Y-105281659D01*
X35960727Y-104085037D01*
X35959435Y-104081454D01*
X35925772Y-103983415D01*
X35543955Y-102871427D01*
X35542779Y-102867820D01*
X35164902Y-101645515D01*
X35163827Y-101641836D01*
X34823935Y-100408501D01*
X34822973Y-100404789D01*
X34521360Y-99161484D01*
X34520514Y-99157745D01*
X34486303Y-98994899D01*
X34257472Y-97905669D01*
X34256763Y-97902013D01*
X34181227Y-97477648D01*
X35839500Y-97477648D01*
X35839500Y-97682351D01*
X35871522Y-97884534D01*
X35934781Y-98079223D01*
X36027715Y-98261613D01*
X36148028Y-98427213D01*
X36292786Y-98571971D01*
X36447749Y-98684556D01*
X36458390Y-98692287D01*
X36574607Y-98751503D01*
X36640776Y-98785218D01*
X36640778Y-98785218D01*
X36640781Y-98785220D01*
X36745137Y-98819127D01*
X36835465Y-98848477D01*
X36936557Y-98864488D01*
X37037648Y-98880500D01*
X37037649Y-98880500D01*
X37242351Y-98880500D01*
X37242352Y-98880500D01*
X37444534Y-98848477D01*
X37639219Y-98785220D01*
X37821610Y-98692287D01*
X37914590Y-98624732D01*
X37987213Y-98571971D01*
X37987215Y-98571968D01*
X37987219Y-98571966D01*
X38131966Y-98427219D01*
X38131968Y-98427215D01*
X38131971Y-98427213D01*
X38252284Y-98261614D01*
X38252285Y-98261613D01*
X38252287Y-98261610D01*
X38299516Y-98168917D01*
X38347489Y-98118123D01*
X38415310Y-98101328D01*
X38481445Y-98123865D01*
X38520485Y-98168919D01*
X38567715Y-98261614D01*
X38688028Y-98427213D01*
X38832786Y-98571971D01*
X38987749Y-98684556D01*
X38998390Y-98692287D01*
X39114607Y-98751503D01*
X39180776Y-98785218D01*
X39180778Y-98785218D01*
X39180781Y-98785220D01*
X39285137Y-98819127D01*
X39375465Y-98848477D01*
X39476557Y-98864488D01*
X39577648Y-98880500D01*
X39577649Y-98880500D01*
X39782351Y-98880500D01*
X39782352Y-98880500D01*
X39984534Y-98848477D01*
X40179219Y-98785220D01*
X40361610Y-98692287D01*
X40454590Y-98624732D01*
X40527213Y-98571971D01*
X40527215Y-98571968D01*
X40527219Y-98571966D01*
X40671966Y-98427219D01*
X40671968Y-98427215D01*
X40671971Y-98427213D01*
X40792284Y-98261614D01*
X40792285Y-98261613D01*
X40792287Y-98261610D01*
X40839516Y-98168917D01*
X40887489Y-98118123D01*
X40955310Y-98101328D01*
X41021445Y-98123865D01*
X41060485Y-98168919D01*
X41107715Y-98261614D01*
X41228028Y-98427213D01*
X41372786Y-98571971D01*
X41527749Y-98684556D01*
X41538390Y-98692287D01*
X41654607Y-98751503D01*
X41720776Y-98785218D01*
X41720778Y-98785218D01*
X41720781Y-98785220D01*
X41825137Y-98819127D01*
X41915465Y-98848477D01*
X42016557Y-98864488D01*
X42117648Y-98880500D01*
X42117649Y-98880500D01*
X42322351Y-98880500D01*
X42322352Y-98880500D01*
X42524534Y-98848477D01*
X42719219Y-98785220D01*
X42901610Y-98692287D01*
X42994590Y-98624732D01*
X43067213Y-98571971D01*
X43067215Y-98571968D01*
X43067219Y-98571966D01*
X43211966Y-98427219D01*
X43211968Y-98427215D01*
X43211971Y-98427213D01*
X43332284Y-98261614D01*
X43332285Y-98261613D01*
X43332287Y-98261610D01*
X43379516Y-98168917D01*
X43427489Y-98118123D01*
X43495310Y-98101328D01*
X43561445Y-98123865D01*
X43600485Y-98168919D01*
X43647715Y-98261614D01*
X43768028Y-98427213D01*
X43912786Y-98571971D01*
X44067749Y-98684556D01*
X44078390Y-98692287D01*
X44194607Y-98751503D01*
X44260776Y-98785218D01*
X44260778Y-98785218D01*
X44260781Y-98785220D01*
X44365137Y-98819127D01*
X44455465Y-98848477D01*
X44556557Y-98864488D01*
X44657648Y-98880500D01*
X44657649Y-98880500D01*
X44862351Y-98880500D01*
X44862352Y-98880500D01*
X45064534Y-98848477D01*
X45259219Y-98785220D01*
X45441610Y-98692287D01*
X45534590Y-98624732D01*
X45607213Y-98571971D01*
X45607215Y-98571968D01*
X45607219Y-98571966D01*
X45751966Y-98427219D01*
X45751968Y-98427215D01*
X45751971Y-98427213D01*
X45872284Y-98261614D01*
X45872285Y-98261613D01*
X45872287Y-98261610D01*
X45919516Y-98168917D01*
X45967489Y-98118123D01*
X46035310Y-98101328D01*
X46101445Y-98123865D01*
X46140485Y-98168919D01*
X46187715Y-98261614D01*
X46308028Y-98427213D01*
X46452786Y-98571971D01*
X46607749Y-98684556D01*
X46618390Y-98692287D01*
X46734607Y-98751503D01*
X46800776Y-98785218D01*
X46800778Y-98785218D01*
X46800781Y-98785220D01*
X46905137Y-98819127D01*
X46995465Y-98848477D01*
X47096557Y-98864488D01*
X47197648Y-98880500D01*
X47197649Y-98880500D01*
X47402351Y-98880500D01*
X47402352Y-98880500D01*
X47604534Y-98848477D01*
X47799219Y-98785220D01*
X47981610Y-98692287D01*
X48074590Y-98624732D01*
X48147213Y-98571971D01*
X48147215Y-98571968D01*
X48147219Y-98571966D01*
X48291966Y-98427219D01*
X48291968Y-98427215D01*
X48291971Y-98427213D01*
X48412284Y-98261614D01*
X48412285Y-98261613D01*
X48412287Y-98261610D01*
X48459516Y-98168917D01*
X48507489Y-98118123D01*
X48575310Y-98101328D01*
X48641445Y-98123865D01*
X48680485Y-98168919D01*
X48727715Y-98261614D01*
X48848028Y-98427213D01*
X48992786Y-98571971D01*
X49147749Y-98684556D01*
X49158390Y-98692287D01*
X49274607Y-98751503D01*
X49340776Y-98785218D01*
X49340778Y-98785218D01*
X49340781Y-98785220D01*
X49445137Y-98819127D01*
X49535465Y-98848477D01*
X49636557Y-98864488D01*
X49737648Y-98880500D01*
X49737649Y-98880500D01*
X49942351Y-98880500D01*
X49942352Y-98880500D01*
X50144534Y-98848477D01*
X50339219Y-98785220D01*
X50521610Y-98692287D01*
X50614590Y-98624732D01*
X50687213Y-98571971D01*
X50687215Y-98571968D01*
X50687219Y-98571966D01*
X50831966Y-98427219D01*
X50831968Y-98427215D01*
X50831971Y-98427213D01*
X50952284Y-98261614D01*
X50952285Y-98261613D01*
X50952287Y-98261610D01*
X50999516Y-98168917D01*
X51047489Y-98118123D01*
X51115310Y-98101328D01*
X51181445Y-98123865D01*
X51220485Y-98168919D01*
X51267715Y-98261614D01*
X51388028Y-98427213D01*
X51532786Y-98571971D01*
X51687749Y-98684556D01*
X51698390Y-98692287D01*
X51814607Y-98751503D01*
X51880776Y-98785218D01*
X51880778Y-98785218D01*
X51880781Y-98785220D01*
X51985137Y-98819127D01*
X52075465Y-98848477D01*
X52176557Y-98864488D01*
X52277648Y-98880500D01*
X52277649Y-98880500D01*
X52482351Y-98880500D01*
X52482352Y-98880500D01*
X52684534Y-98848477D01*
X52879219Y-98785220D01*
X53061610Y-98692287D01*
X53154590Y-98624732D01*
X53227213Y-98571971D01*
X53227215Y-98571968D01*
X53227219Y-98571966D01*
X53371966Y-98427219D01*
X53371968Y-98427215D01*
X53371971Y-98427213D01*
X53492284Y-98261614D01*
X53492285Y-98261613D01*
X53492287Y-98261610D01*
X53539516Y-98168917D01*
X53587489Y-98118123D01*
X53655310Y-98101328D01*
X53721445Y-98123865D01*
X53760485Y-98168919D01*
X53807715Y-98261614D01*
X53928028Y-98427213D01*
X54072786Y-98571971D01*
X54227749Y-98684556D01*
X54238390Y-98692287D01*
X54354607Y-98751503D01*
X54420776Y-98785218D01*
X54420778Y-98785218D01*
X54420781Y-98785220D01*
X54525137Y-98819127D01*
X54615465Y-98848477D01*
X54716557Y-98864488D01*
X54817648Y-98880500D01*
X54817649Y-98880500D01*
X55022351Y-98880500D01*
X55022352Y-98880500D01*
X55224534Y-98848477D01*
X55419219Y-98785220D01*
X55601610Y-98692287D01*
X55694590Y-98624732D01*
X55767213Y-98571971D01*
X55767215Y-98571968D01*
X55767219Y-98571966D01*
X55911966Y-98427219D01*
X55911968Y-98427215D01*
X55911971Y-98427213D01*
X56032284Y-98261614D01*
X56032285Y-98261613D01*
X56032287Y-98261610D01*
X56079516Y-98168917D01*
X56127489Y-98118123D01*
X56195310Y-98101328D01*
X56261445Y-98123865D01*
X56300485Y-98168919D01*
X56347715Y-98261614D01*
X56468028Y-98427213D01*
X56612786Y-98571971D01*
X56767749Y-98684556D01*
X56778390Y-98692287D01*
X56894607Y-98751503D01*
X56960776Y-98785218D01*
X56960778Y-98785218D01*
X56960781Y-98785220D01*
X57065137Y-98819127D01*
X57155465Y-98848477D01*
X57256557Y-98864488D01*
X57357648Y-98880500D01*
X57357649Y-98880500D01*
X57562351Y-98880500D01*
X57562352Y-98880500D01*
X57764534Y-98848477D01*
X57959219Y-98785220D01*
X58141610Y-98692287D01*
X58234590Y-98624732D01*
X58307213Y-98571971D01*
X58307215Y-98571968D01*
X58307219Y-98571966D01*
X58451966Y-98427219D01*
X58451968Y-98427215D01*
X58451971Y-98427213D01*
X58572284Y-98261614D01*
X58572285Y-98261613D01*
X58572287Y-98261610D01*
X58619516Y-98168917D01*
X58667489Y-98118123D01*
X58735310Y-98101328D01*
X58801445Y-98123865D01*
X58840485Y-98168919D01*
X58887715Y-98261614D01*
X59008028Y-98427213D01*
X59152786Y-98571971D01*
X59307749Y-98684556D01*
X59318390Y-98692287D01*
X59434607Y-98751503D01*
X59500776Y-98785218D01*
X59500778Y-98785218D01*
X59500781Y-98785220D01*
X59605137Y-98819127D01*
X59695465Y-98848477D01*
X59796557Y-98864488D01*
X59897648Y-98880500D01*
X59897649Y-98880500D01*
X60102351Y-98880500D01*
X60102352Y-98880500D01*
X60304534Y-98848477D01*
X60499219Y-98785220D01*
X60681610Y-98692287D01*
X60774590Y-98624732D01*
X60847213Y-98571971D01*
X60847215Y-98571968D01*
X60847219Y-98571966D01*
X60991966Y-98427219D01*
X60991968Y-98427215D01*
X60991971Y-98427213D01*
X61112284Y-98261614D01*
X61112285Y-98261613D01*
X61112287Y-98261610D01*
X61159516Y-98168917D01*
X61207489Y-98118123D01*
X61275310Y-98101328D01*
X61341445Y-98123865D01*
X61380485Y-98168919D01*
X61427715Y-98261614D01*
X61548028Y-98427213D01*
X61692786Y-98571971D01*
X61847749Y-98684556D01*
X61858390Y-98692287D01*
X61974607Y-98751503D01*
X62040776Y-98785218D01*
X62040778Y-98785218D01*
X62040781Y-98785220D01*
X62145137Y-98819127D01*
X62235465Y-98848477D01*
X62336557Y-98864488D01*
X62437648Y-98880500D01*
X62437649Y-98880500D01*
X62642351Y-98880500D01*
X62642352Y-98880500D01*
X62844534Y-98848477D01*
X63039219Y-98785220D01*
X63221610Y-98692287D01*
X63314590Y-98624732D01*
X63387213Y-98571971D01*
X63387215Y-98571968D01*
X63387219Y-98571966D01*
X63531966Y-98427219D01*
X63531968Y-98427215D01*
X63531971Y-98427213D01*
X63652284Y-98261614D01*
X63652285Y-98261613D01*
X63652287Y-98261610D01*
X63699516Y-98168917D01*
X63747489Y-98118123D01*
X63815310Y-98101328D01*
X63881445Y-98123865D01*
X63920485Y-98168919D01*
X63967715Y-98261614D01*
X64088028Y-98427213D01*
X64232786Y-98571971D01*
X64387749Y-98684556D01*
X64398390Y-98692287D01*
X64514607Y-98751503D01*
X64580776Y-98785218D01*
X64580778Y-98785218D01*
X64580781Y-98785220D01*
X64685137Y-98819127D01*
X64775465Y-98848477D01*
X64876557Y-98864488D01*
X64977648Y-98880500D01*
X64977649Y-98880500D01*
X65182351Y-98880500D01*
X65182352Y-98880500D01*
X65384534Y-98848477D01*
X65579219Y-98785220D01*
X65761610Y-98692287D01*
X65854590Y-98624732D01*
X65927213Y-98571971D01*
X65927215Y-98571968D01*
X65927219Y-98571966D01*
X66071966Y-98427219D01*
X66071968Y-98427215D01*
X66071971Y-98427213D01*
X66192284Y-98261614D01*
X66192285Y-98261613D01*
X66192287Y-98261610D01*
X66239516Y-98168917D01*
X66287489Y-98118123D01*
X66355310Y-98101328D01*
X66421445Y-98123865D01*
X66460485Y-98168919D01*
X66507715Y-98261614D01*
X66628028Y-98427213D01*
X66772786Y-98571971D01*
X66927749Y-98684556D01*
X66938390Y-98692287D01*
X67054607Y-98751503D01*
X67120776Y-98785218D01*
X67120778Y-98785218D01*
X67120781Y-98785220D01*
X67225137Y-98819127D01*
X67315465Y-98848477D01*
X67416557Y-98864488D01*
X67517648Y-98880500D01*
X67517649Y-98880500D01*
X67722351Y-98880500D01*
X67722352Y-98880500D01*
X67924534Y-98848477D01*
X68119219Y-98785220D01*
X68301610Y-98692287D01*
X68394590Y-98624732D01*
X68467213Y-98571971D01*
X68467215Y-98571968D01*
X68467219Y-98571966D01*
X68611966Y-98427219D01*
X68611968Y-98427215D01*
X68611971Y-98427213D01*
X68732284Y-98261614D01*
X68732285Y-98261613D01*
X68732287Y-98261610D01*
X68779516Y-98168917D01*
X68827489Y-98118123D01*
X68895310Y-98101328D01*
X68961445Y-98123865D01*
X69000485Y-98168919D01*
X69047715Y-98261614D01*
X69168028Y-98427213D01*
X69312786Y-98571971D01*
X69467749Y-98684556D01*
X69478390Y-98692287D01*
X69594607Y-98751503D01*
X69660776Y-98785218D01*
X69660778Y-98785218D01*
X69660781Y-98785220D01*
X69765137Y-98819127D01*
X69855465Y-98848477D01*
X69956557Y-98864488D01*
X70057648Y-98880500D01*
X70057649Y-98880500D01*
X70262351Y-98880500D01*
X70262352Y-98880500D01*
X70464534Y-98848477D01*
X70659219Y-98785220D01*
X70841610Y-98692287D01*
X70934590Y-98624732D01*
X71007213Y-98571971D01*
X71007215Y-98571968D01*
X71007219Y-98571966D01*
X71151966Y-98427219D01*
X71151968Y-98427215D01*
X71151971Y-98427213D01*
X71272284Y-98261614D01*
X71272285Y-98261613D01*
X71272287Y-98261610D01*
X71319516Y-98168917D01*
X71367489Y-98118123D01*
X71435310Y-98101328D01*
X71501445Y-98123865D01*
X71540485Y-98168919D01*
X71587715Y-98261614D01*
X71708028Y-98427213D01*
X71852786Y-98571971D01*
X72007749Y-98684556D01*
X72018390Y-98692287D01*
X72134607Y-98751503D01*
X72200776Y-98785218D01*
X72200778Y-98785218D01*
X72200781Y-98785220D01*
X72305137Y-98819127D01*
X72395465Y-98848477D01*
X72496557Y-98864488D01*
X72597648Y-98880500D01*
X72597649Y-98880500D01*
X72802351Y-98880500D01*
X72802352Y-98880500D01*
X73004534Y-98848477D01*
X73199219Y-98785220D01*
X73381610Y-98692287D01*
X73474590Y-98624732D01*
X73547213Y-98571971D01*
X73547215Y-98571968D01*
X73547219Y-98571966D01*
X73691966Y-98427219D01*
X73691968Y-98427215D01*
X73691971Y-98427213D01*
X73744732Y-98354590D01*
X73812287Y-98261610D01*
X73905220Y-98079219D01*
X73968477Y-97884534D01*
X74000500Y-97682352D01*
X74000500Y-97477648D01*
X73968477Y-97275466D01*
X73905220Y-97080781D01*
X73905218Y-97080778D01*
X73905218Y-97080776D01*
X73859515Y-96991080D01*
X73812287Y-96898390D01*
X73804556Y-96887749D01*
X73691971Y-96732786D01*
X73547213Y-96588028D01*
X73381613Y-96467715D01*
X73381612Y-96467714D01*
X73381610Y-96467713D01*
X73324653Y-96438691D01*
X73199223Y-96374781D01*
X73004534Y-96311522D01*
X72829995Y-96283878D01*
X72802352Y-96279500D01*
X72597648Y-96279500D01*
X72573329Y-96283351D01*
X72395465Y-96311522D01*
X72200776Y-96374781D01*
X72018386Y-96467715D01*
X71852786Y-96588028D01*
X71708028Y-96732786D01*
X71587715Y-96898386D01*
X71540485Y-96991080D01*
X71492510Y-97041876D01*
X71424689Y-97058671D01*
X71358554Y-97036134D01*
X71319515Y-96991080D01*
X71318883Y-96989840D01*
X71272287Y-96898390D01*
X71264556Y-96887749D01*
X71151971Y-96732786D01*
X71007213Y-96588028D01*
X70841613Y-96467715D01*
X70841612Y-96467714D01*
X70841610Y-96467713D01*
X70784653Y-96438691D01*
X70659223Y-96374781D01*
X70464534Y-96311522D01*
X70289995Y-96283878D01*
X70262352Y-96279500D01*
X70057648Y-96279500D01*
X70033329Y-96283351D01*
X69855465Y-96311522D01*
X69660776Y-96374781D01*
X69478386Y-96467715D01*
X69312786Y-96588028D01*
X69168028Y-96732786D01*
X69047715Y-96898386D01*
X69000485Y-96991080D01*
X68952510Y-97041876D01*
X68884689Y-97058671D01*
X68818554Y-97036134D01*
X68779515Y-96991080D01*
X68778883Y-96989840D01*
X68732287Y-96898390D01*
X68724556Y-96887749D01*
X68611971Y-96732786D01*
X68467213Y-96588028D01*
X68301613Y-96467715D01*
X68301612Y-96467714D01*
X68301610Y-96467713D01*
X68244653Y-96438691D01*
X68119223Y-96374781D01*
X67924534Y-96311522D01*
X67749995Y-96283878D01*
X67722352Y-96279500D01*
X67517648Y-96279500D01*
X67493329Y-96283351D01*
X67315465Y-96311522D01*
X67120776Y-96374781D01*
X66938386Y-96467715D01*
X66772786Y-96588028D01*
X66628028Y-96732786D01*
X66507715Y-96898386D01*
X66460485Y-96991080D01*
X66412510Y-97041876D01*
X66344689Y-97058671D01*
X66278554Y-97036134D01*
X66239515Y-96991080D01*
X66238883Y-96989840D01*
X66192287Y-96898390D01*
X66184556Y-96887749D01*
X66071971Y-96732786D01*
X65927213Y-96588028D01*
X65761613Y-96467715D01*
X65761612Y-96467714D01*
X65761610Y-96467713D01*
X65704653Y-96438691D01*
X65579223Y-96374781D01*
X65384534Y-96311522D01*
X65209995Y-96283878D01*
X65182352Y-96279500D01*
X64977648Y-96279500D01*
X64953329Y-96283351D01*
X64775465Y-96311522D01*
X64580776Y-96374781D01*
X64398386Y-96467715D01*
X64232786Y-96588028D01*
X64088028Y-96732786D01*
X63967715Y-96898386D01*
X63920485Y-96991080D01*
X63872510Y-97041876D01*
X63804689Y-97058671D01*
X63738554Y-97036134D01*
X63699515Y-96991080D01*
X63698883Y-96989840D01*
X63652287Y-96898390D01*
X63644556Y-96887749D01*
X63531971Y-96732786D01*
X63387213Y-96588028D01*
X63221613Y-96467715D01*
X63221612Y-96467714D01*
X63221610Y-96467713D01*
X63164653Y-96438691D01*
X63039223Y-96374781D01*
X62844534Y-96311522D01*
X62669995Y-96283878D01*
X62642352Y-96279500D01*
X62437648Y-96279500D01*
X62413329Y-96283351D01*
X62235465Y-96311522D01*
X62040776Y-96374781D01*
X61858386Y-96467715D01*
X61692786Y-96588028D01*
X61548028Y-96732786D01*
X61427715Y-96898386D01*
X61380485Y-96991080D01*
X61332510Y-97041876D01*
X61264689Y-97058671D01*
X61198554Y-97036134D01*
X61159515Y-96991080D01*
X61158883Y-96989840D01*
X61112287Y-96898390D01*
X61104556Y-96887749D01*
X60991971Y-96732786D01*
X60847213Y-96588028D01*
X60681613Y-96467715D01*
X60681612Y-96467714D01*
X60681610Y-96467713D01*
X60624653Y-96438691D01*
X60499223Y-96374781D01*
X60304534Y-96311522D01*
X60129995Y-96283878D01*
X60102352Y-96279500D01*
X59897648Y-96279500D01*
X59873329Y-96283351D01*
X59695465Y-96311522D01*
X59500776Y-96374781D01*
X59318386Y-96467715D01*
X59152786Y-96588028D01*
X59008028Y-96732786D01*
X58887715Y-96898386D01*
X58840485Y-96991080D01*
X58792510Y-97041876D01*
X58724689Y-97058671D01*
X58658554Y-97036134D01*
X58619515Y-96991080D01*
X58618883Y-96989840D01*
X58572287Y-96898390D01*
X58564556Y-96887749D01*
X58451971Y-96732786D01*
X58307213Y-96588028D01*
X58141613Y-96467715D01*
X58141612Y-96467714D01*
X58141610Y-96467713D01*
X58084653Y-96438691D01*
X57959223Y-96374781D01*
X57764534Y-96311522D01*
X57589995Y-96283878D01*
X57562352Y-96279500D01*
X57357648Y-96279500D01*
X57333329Y-96283351D01*
X57155465Y-96311522D01*
X56960776Y-96374781D01*
X56778386Y-96467715D01*
X56612786Y-96588028D01*
X56468028Y-96732786D01*
X56347715Y-96898386D01*
X56300485Y-96991080D01*
X56252510Y-97041876D01*
X56184689Y-97058671D01*
X56118554Y-97036134D01*
X56079515Y-96991080D01*
X56078883Y-96989840D01*
X56032287Y-96898390D01*
X56024556Y-96887749D01*
X55911971Y-96732786D01*
X55767213Y-96588028D01*
X55601613Y-96467715D01*
X55601612Y-96467714D01*
X55601610Y-96467713D01*
X55544653Y-96438691D01*
X55419223Y-96374781D01*
X55224534Y-96311522D01*
X55049995Y-96283878D01*
X55022352Y-96279500D01*
X54817648Y-96279500D01*
X54793329Y-96283351D01*
X54615465Y-96311522D01*
X54420776Y-96374781D01*
X54238386Y-96467715D01*
X54072786Y-96588028D01*
X53928028Y-96732786D01*
X53807715Y-96898386D01*
X53760485Y-96991080D01*
X53712510Y-97041876D01*
X53644689Y-97058671D01*
X53578554Y-97036134D01*
X53539515Y-96991080D01*
X53538883Y-96989840D01*
X53492287Y-96898390D01*
X53484556Y-96887749D01*
X53371971Y-96732786D01*
X53227213Y-96588028D01*
X53061613Y-96467715D01*
X53061612Y-96467714D01*
X53061610Y-96467713D01*
X53004653Y-96438691D01*
X52879223Y-96374781D01*
X52684534Y-96311522D01*
X52509995Y-96283878D01*
X52482352Y-96279500D01*
X52277648Y-96279500D01*
X52253329Y-96283351D01*
X52075465Y-96311522D01*
X51880776Y-96374781D01*
X51698386Y-96467715D01*
X51532786Y-96588028D01*
X51388028Y-96732786D01*
X51267715Y-96898386D01*
X51220485Y-96991080D01*
X51172510Y-97041876D01*
X51104689Y-97058671D01*
X51038554Y-97036134D01*
X50999515Y-96991080D01*
X50998883Y-96989840D01*
X50952287Y-96898390D01*
X50944556Y-96887749D01*
X50831971Y-96732786D01*
X50687213Y-96588028D01*
X50521613Y-96467715D01*
X50521612Y-96467714D01*
X50521610Y-96467713D01*
X50464653Y-96438691D01*
X50339223Y-96374781D01*
X50144534Y-96311522D01*
X49969995Y-96283878D01*
X49942352Y-96279500D01*
X49737648Y-96279500D01*
X49713329Y-96283351D01*
X49535465Y-96311522D01*
X49340776Y-96374781D01*
X49158386Y-96467715D01*
X48992786Y-96588028D01*
X48848028Y-96732786D01*
X48727715Y-96898386D01*
X48680485Y-96991080D01*
X48632510Y-97041876D01*
X48564689Y-97058671D01*
X48498554Y-97036134D01*
X48459515Y-96991080D01*
X48458883Y-96989840D01*
X48412287Y-96898390D01*
X48404556Y-96887749D01*
X48291971Y-96732786D01*
X48147213Y-96588028D01*
X47981613Y-96467715D01*
X47981612Y-96467714D01*
X47981610Y-96467713D01*
X47924653Y-96438691D01*
X47799223Y-96374781D01*
X47604534Y-96311522D01*
X47429995Y-96283878D01*
X47402352Y-96279500D01*
X47197648Y-96279500D01*
X47173329Y-96283351D01*
X46995465Y-96311522D01*
X46800776Y-96374781D01*
X46618386Y-96467715D01*
X46452786Y-96588028D01*
X46308028Y-96732786D01*
X46187715Y-96898386D01*
X46140485Y-96991080D01*
X46092510Y-97041876D01*
X46024689Y-97058671D01*
X45958554Y-97036134D01*
X45919515Y-96991080D01*
X45918883Y-96989840D01*
X45872287Y-96898390D01*
X45864556Y-96887749D01*
X45751971Y-96732786D01*
X45607213Y-96588028D01*
X45441613Y-96467715D01*
X45441612Y-96467714D01*
X45441610Y-96467713D01*
X45384653Y-96438691D01*
X45259223Y-96374781D01*
X45064534Y-96311522D01*
X44889995Y-96283878D01*
X44862352Y-96279500D01*
X44657648Y-96279500D01*
X44633329Y-96283351D01*
X44455465Y-96311522D01*
X44260776Y-96374781D01*
X44078386Y-96467715D01*
X43912786Y-96588028D01*
X43768028Y-96732786D01*
X43647715Y-96898386D01*
X43600485Y-96991080D01*
X43552510Y-97041876D01*
X43484689Y-97058671D01*
X43418554Y-97036134D01*
X43379515Y-96991080D01*
X43378883Y-96989840D01*
X43332287Y-96898390D01*
X43324556Y-96887749D01*
X43211971Y-96732786D01*
X43067213Y-96588028D01*
X42901613Y-96467715D01*
X42901612Y-96467714D01*
X42901610Y-96467713D01*
X42844653Y-96438691D01*
X42719223Y-96374781D01*
X42524534Y-96311522D01*
X42349995Y-96283878D01*
X42322352Y-96279500D01*
X42117648Y-96279500D01*
X42093329Y-96283351D01*
X41915465Y-96311522D01*
X41720776Y-96374781D01*
X41538386Y-96467715D01*
X41372786Y-96588028D01*
X41228028Y-96732786D01*
X41107715Y-96898386D01*
X41060485Y-96991080D01*
X41012510Y-97041876D01*
X40944689Y-97058671D01*
X40878554Y-97036134D01*
X40839515Y-96991080D01*
X40838883Y-96989840D01*
X40792287Y-96898390D01*
X40784556Y-96887749D01*
X40671971Y-96732786D01*
X40527213Y-96588028D01*
X40361613Y-96467715D01*
X40361612Y-96467714D01*
X40361610Y-96467713D01*
X40304653Y-96438691D01*
X40179223Y-96374781D01*
X39984534Y-96311522D01*
X39809995Y-96283878D01*
X39782352Y-96279500D01*
X39577648Y-96279500D01*
X39553329Y-96283351D01*
X39375465Y-96311522D01*
X39180776Y-96374781D01*
X38998386Y-96467715D01*
X38832786Y-96588028D01*
X38688028Y-96732786D01*
X38567715Y-96898386D01*
X38520485Y-96991080D01*
X38472510Y-97041876D01*
X38404689Y-97058671D01*
X38338554Y-97036134D01*
X38299515Y-96991080D01*
X38298883Y-96989840D01*
X38252287Y-96898390D01*
X38244556Y-96887749D01*
X38131971Y-96732786D01*
X37987213Y-96588028D01*
X37821613Y-96467715D01*
X37821612Y-96467714D01*
X37821610Y-96467713D01*
X37764653Y-96438691D01*
X37639223Y-96374781D01*
X37444534Y-96311522D01*
X37269995Y-96283878D01*
X37242352Y-96279500D01*
X37037648Y-96279500D01*
X37013329Y-96283351D01*
X36835465Y-96311522D01*
X36640776Y-96374781D01*
X36458386Y-96467715D01*
X36292786Y-96588028D01*
X36148028Y-96732786D01*
X36027715Y-96898386D01*
X35934781Y-97080776D01*
X35871522Y-97275465D01*
X35839500Y-97477648D01*
X34181227Y-97477648D01*
X34032555Y-96642405D01*
X34031946Y-96638650D01*
X34024542Y-96588028D01*
X33846784Y-95372705D01*
X33846297Y-95368978D01*
X33700361Y-94097921D01*
X33699985Y-94094121D01*
X33698490Y-94076239D01*
X33593418Y-92819222D01*
X33593158Y-92815397D01*
X33581855Y-92600202D01*
X33526052Y-91537773D01*
X33525913Y-91534038D01*
X33498335Y-90254905D01*
X33498312Y-90251169D01*
X33510292Y-88971761D01*
X33510388Y-88967948D01*
X33521472Y-88692956D01*
X33561908Y-87689683D01*
X33562121Y-87685856D01*
X33576603Y-87482810D01*
X33653138Y-86409713D01*
X33653470Y-86405903D01*
X33684249Y-86105553D01*
X33772730Y-85242135D01*
X112944500Y-85242135D01*
X112944500Y-87037870D01*
X112944501Y-87037876D01*
X112950908Y-87097483D01*
X113001202Y-87232328D01*
X113001206Y-87232335D01*
X113087452Y-87347544D01*
X113087455Y-87347547D01*
X113202664Y-87433793D01*
X113202671Y-87433797D01*
X113334082Y-87482810D01*
X113390016Y-87524681D01*
X113414433Y-87590145D01*
X113399582Y-87658418D01*
X113378431Y-87686673D01*
X113264889Y-87800215D01*
X113139951Y-87972179D01*
X113043444Y-88161585D01*
X112977753Y-88363760D01*
X112944500Y-88573713D01*
X112944500Y-88786286D01*
X112977753Y-88996239D01*
X113043444Y-89198414D01*
X113139951Y-89387820D01*
X113264890Y-89559786D01*
X113415213Y-89710109D01*
X113587179Y-89835048D01*
X113587181Y-89835049D01*
X113587184Y-89835051D01*
X113596493Y-89839794D01*
X113647290Y-89887766D01*
X113664087Y-89955587D01*
X113641552Y-90021722D01*
X113596505Y-90060760D01*
X113587446Y-90065376D01*
X113587440Y-90065380D01*
X113533282Y-90104727D01*
X113533282Y-90104728D01*
X114165591Y-90737037D01*
X114102007Y-90754075D01*
X113987993Y-90819901D01*
X113894901Y-90912993D01*
X113829075Y-91027007D01*
X113812037Y-91090591D01*
X113179728Y-90458282D01*
X113179727Y-90458282D01*
X113140380Y-90512439D01*
X113043904Y-90701782D01*
X112978242Y-90903869D01*
X112978242Y-90903872D01*
X112945000Y-91113753D01*
X112945000Y-91326246D01*
X112978242Y-91536127D01*
X112978242Y-91536130D01*
X113043904Y-91738217D01*
X113140375Y-91927550D01*
X113179728Y-91981716D01*
X113812037Y-91349408D01*
X113829075Y-91412993D01*
X113894901Y-91527007D01*
X113987993Y-91620099D01*
X114102007Y-91685925D01*
X114165590Y-91702962D01*
X113533282Y-92335269D01*
X113533282Y-92335270D01*
X113587452Y-92374626D01*
X113587451Y-92374626D01*
X113596495Y-92379234D01*
X113647292Y-92427208D01*
X113664087Y-92495029D01*
X113641550Y-92561164D01*
X113596499Y-92600202D01*
X113587182Y-92604949D01*
X113415213Y-92729890D01*
X113264890Y-92880213D01*
X113139951Y-93052179D01*
X113043444Y-93241585D01*
X112977753Y-93443760D01*
X112944500Y-93653713D01*
X112944500Y-93866286D01*
X112977753Y-94076239D01*
X113043444Y-94278414D01*
X113139951Y-94467820D01*
X113264890Y-94639786D01*
X113415213Y-94790109D01*
X113587179Y-94915048D01*
X113587181Y-94915049D01*
X113587184Y-94915051D01*
X113776588Y-95011557D01*
X113978757Y-95077246D01*
X114188713Y-95110500D01*
X114188714Y-95110500D01*
X114401286Y-95110500D01*
X114401287Y-95110500D01*
X114611243Y-95077246D01*
X114813412Y-95011557D01*
X115002816Y-94915051D01*
X115024789Y-94899086D01*
X115174786Y-94790109D01*
X115174788Y-94790106D01*
X115174792Y-94790104D01*
X115325104Y-94639792D01*
X115325106Y-94639788D01*
X115325109Y-94639786D01*
X115450048Y-94467820D01*
X115450047Y-94467820D01*
X115450051Y-94467816D01*
X115546557Y-94278412D01*
X115612246Y-94076243D01*
X115645500Y-93866287D01*
X115645500Y-93653713D01*
X115612246Y-93443757D01*
X115546557Y-93241588D01*
X115450051Y-93052184D01*
X115450049Y-93052181D01*
X115450048Y-93052179D01*
X115325109Y-92880213D01*
X115174786Y-92729890D01*
X115002817Y-92604949D01*
X114993504Y-92600204D01*
X114942707Y-92552230D01*
X114925912Y-92484409D01*
X114948449Y-92418274D01*
X114993507Y-92379232D01*
X115002555Y-92374622D01*
X115056716Y-92335270D01*
X115056717Y-92335270D01*
X114424408Y-91702962D01*
X114487993Y-91685925D01*
X114602007Y-91620099D01*
X114695099Y-91527007D01*
X114760925Y-91412993D01*
X114777962Y-91349408D01*
X115410270Y-91981717D01*
X115410270Y-91981716D01*
X115449622Y-91927554D01*
X115546095Y-91738217D01*
X115611757Y-91536130D01*
X115611757Y-91536127D01*
X115645000Y-91326246D01*
X115645000Y-91113753D01*
X115611757Y-90903872D01*
X115611757Y-90903869D01*
X115546095Y-90701782D01*
X115449624Y-90512449D01*
X115410270Y-90458282D01*
X115410269Y-90458282D01*
X114777962Y-91090590D01*
X114760925Y-91027007D01*
X114695099Y-90912993D01*
X114602007Y-90819901D01*
X114487993Y-90754075D01*
X114424409Y-90737037D01*
X115056716Y-90104728D01*
X115002547Y-90065373D01*
X115002547Y-90065372D01*
X114993500Y-90060763D01*
X114942706Y-90012788D01*
X114925912Y-89944966D01*
X114948451Y-89878832D01*
X114993508Y-89839793D01*
X115002816Y-89835051D01*
X115082007Y-89777515D01*
X115174786Y-89710109D01*
X115174788Y-89710106D01*
X115174792Y-89710104D01*
X115325104Y-89559792D01*
X115325106Y-89559788D01*
X115325109Y-89559786D01*
X115450048Y-89387820D01*
X115450047Y-89387820D01*
X115450051Y-89387816D01*
X115546557Y-89198412D01*
X115612246Y-88996243D01*
X115645500Y-88786287D01*
X115645500Y-88573713D01*
X115612246Y-88363757D01*
X115546557Y-88161588D01*
X115450051Y-87972184D01*
X115450049Y-87972181D01*
X115450048Y-87972179D01*
X115325109Y-87800213D01*
X115211569Y-87686673D01*
X115178084Y-87625350D01*
X115183068Y-87555658D01*
X115224940Y-87499725D01*
X115255915Y-87482810D01*
X115387331Y-87433796D01*
X115502546Y-87347546D01*
X115588796Y-87232331D01*
X115639091Y-87097483D01*
X115645500Y-87037873D01*
X115645499Y-85242128D01*
X115639091Y-85182517D01*
X115619995Y-85131319D01*
X115588797Y-85047671D01*
X115588793Y-85047664D01*
X115502547Y-84932455D01*
X115502544Y-84932452D01*
X115387335Y-84846206D01*
X115387328Y-84846202D01*
X115252482Y-84795908D01*
X115252483Y-84795908D01*
X115192883Y-84789501D01*
X115192881Y-84789500D01*
X115192873Y-84789500D01*
X115192864Y-84789500D01*
X113397129Y-84789500D01*
X113397123Y-84789501D01*
X113337516Y-84795908D01*
X113202671Y-84846202D01*
X113202664Y-84846206D01*
X113087455Y-84932452D01*
X113087452Y-84932455D01*
X113001206Y-85047664D01*
X113001202Y-85047671D01*
X112950908Y-85182517D01*
X112946216Y-85226165D01*
X112944501Y-85242123D01*
X112944500Y-85242135D01*
X33772730Y-85242135D01*
X33783896Y-85133177D01*
X33784337Y-85129448D01*
X33954048Y-83861351D01*
X33954605Y-83857625D01*
X34163441Y-82595365D01*
X34164120Y-82591624D01*
X34193585Y-82442352D01*
X34233990Y-82237648D01*
X35839500Y-82237648D01*
X35839500Y-82442351D01*
X35871522Y-82644534D01*
X35934781Y-82839223D01*
X36027715Y-83021613D01*
X36148028Y-83187213D01*
X36292786Y-83331971D01*
X36447749Y-83444556D01*
X36458390Y-83452287D01*
X36547212Y-83497544D01*
X36640776Y-83545218D01*
X36640778Y-83545218D01*
X36640781Y-83545220D01*
X36745137Y-83579127D01*
X36835465Y-83608477D01*
X36936557Y-83624488D01*
X37037648Y-83640500D01*
X37037649Y-83640500D01*
X37242351Y-83640500D01*
X37242352Y-83640500D01*
X37444534Y-83608477D01*
X37639219Y-83545220D01*
X37821610Y-83452287D01*
X37917901Y-83382328D01*
X37987213Y-83331971D01*
X37987215Y-83331968D01*
X37987219Y-83331966D01*
X38131966Y-83187219D01*
X38131968Y-83187215D01*
X38131971Y-83187213D01*
X38252284Y-83021614D01*
X38252286Y-83021611D01*
X38252287Y-83021610D01*
X38299516Y-82928917D01*
X38347489Y-82878123D01*
X38415310Y-82861328D01*
X38481445Y-82883865D01*
X38520485Y-82928919D01*
X38567715Y-83021614D01*
X38688028Y-83187213D01*
X38832786Y-83331971D01*
X38987749Y-83444556D01*
X38998390Y-83452287D01*
X39087212Y-83497544D01*
X39180776Y-83545218D01*
X39180778Y-83545218D01*
X39180781Y-83545220D01*
X39285137Y-83579127D01*
X39375465Y-83608477D01*
X39476557Y-83624488D01*
X39577648Y-83640500D01*
X39577649Y-83640500D01*
X39782351Y-83640500D01*
X39782352Y-83640500D01*
X39984534Y-83608477D01*
X40179219Y-83545220D01*
X40361610Y-83452287D01*
X40457901Y-83382328D01*
X40527213Y-83331971D01*
X40527215Y-83331968D01*
X40527219Y-83331966D01*
X40671966Y-83187219D01*
X40671968Y-83187215D01*
X40671971Y-83187213D01*
X40792284Y-83021614D01*
X40792286Y-83021611D01*
X40792287Y-83021610D01*
X40839516Y-82928917D01*
X40887489Y-82878123D01*
X40955310Y-82861328D01*
X41021445Y-82883865D01*
X41060485Y-82928919D01*
X41107715Y-83021614D01*
X41228028Y-83187213D01*
X41372786Y-83331971D01*
X41527749Y-83444556D01*
X41538390Y-83452287D01*
X41627212Y-83497544D01*
X41720776Y-83545218D01*
X41720778Y-83545218D01*
X41720781Y-83545220D01*
X41825137Y-83579127D01*
X41915465Y-83608477D01*
X42016557Y-83624488D01*
X42117648Y-83640500D01*
X42117649Y-83640500D01*
X42322351Y-83640500D01*
X42322352Y-83640500D01*
X42524534Y-83608477D01*
X42719219Y-83545220D01*
X42901610Y-83452287D01*
X42997901Y-83382328D01*
X43067213Y-83331971D01*
X43067215Y-83331968D01*
X43067219Y-83331966D01*
X43211966Y-83187219D01*
X43211968Y-83187215D01*
X43211971Y-83187213D01*
X43332284Y-83021614D01*
X43332286Y-83021611D01*
X43332287Y-83021610D01*
X43379516Y-82928917D01*
X43427489Y-82878123D01*
X43495310Y-82861328D01*
X43561445Y-82883865D01*
X43600485Y-82928919D01*
X43647715Y-83021614D01*
X43768028Y-83187213D01*
X43912786Y-83331971D01*
X44067749Y-83444556D01*
X44078390Y-83452287D01*
X44167212Y-83497544D01*
X44260776Y-83545218D01*
X44260778Y-83545218D01*
X44260781Y-83545220D01*
X44365137Y-83579127D01*
X44455465Y-83608477D01*
X44556557Y-83624488D01*
X44657648Y-83640500D01*
X44657649Y-83640500D01*
X44862351Y-83640500D01*
X44862352Y-83640500D01*
X45064534Y-83608477D01*
X45259219Y-83545220D01*
X45441610Y-83452287D01*
X45537901Y-83382328D01*
X45607213Y-83331971D01*
X45607215Y-83331968D01*
X45607219Y-83331966D01*
X45751966Y-83187219D01*
X45751968Y-83187215D01*
X45751971Y-83187213D01*
X45872284Y-83021614D01*
X45872286Y-83021611D01*
X45872287Y-83021610D01*
X45919516Y-82928917D01*
X45967489Y-82878123D01*
X46035310Y-82861328D01*
X46101445Y-82883865D01*
X46140485Y-82928919D01*
X46187715Y-83021614D01*
X46308028Y-83187213D01*
X46452786Y-83331971D01*
X46607749Y-83444556D01*
X46618390Y-83452287D01*
X46707212Y-83497544D01*
X46800776Y-83545218D01*
X46800778Y-83545218D01*
X46800781Y-83545220D01*
X46905137Y-83579127D01*
X46995465Y-83608477D01*
X47096557Y-83624488D01*
X47197648Y-83640500D01*
X47197649Y-83640500D01*
X47402351Y-83640500D01*
X47402352Y-83640500D01*
X47604534Y-83608477D01*
X47799219Y-83545220D01*
X47981610Y-83452287D01*
X48077901Y-83382328D01*
X48147213Y-83331971D01*
X48147215Y-83331968D01*
X48147219Y-83331966D01*
X48291966Y-83187219D01*
X48291968Y-83187215D01*
X48291971Y-83187213D01*
X48412284Y-83021614D01*
X48412286Y-83021611D01*
X48412287Y-83021610D01*
X48459516Y-82928917D01*
X48507489Y-82878123D01*
X48575310Y-82861328D01*
X48641445Y-82883865D01*
X48680485Y-82928919D01*
X48727715Y-83021614D01*
X48848028Y-83187213D01*
X48992786Y-83331971D01*
X49147749Y-83444556D01*
X49158390Y-83452287D01*
X49247212Y-83497544D01*
X49340776Y-83545218D01*
X49340778Y-83545218D01*
X49340781Y-83545220D01*
X49445137Y-83579127D01*
X49535465Y-83608477D01*
X49636557Y-83624488D01*
X49737648Y-83640500D01*
X49737649Y-83640500D01*
X49942351Y-83640500D01*
X49942352Y-83640500D01*
X50144534Y-83608477D01*
X50339219Y-83545220D01*
X50521610Y-83452287D01*
X50617901Y-83382328D01*
X50687213Y-83331971D01*
X50687215Y-83331968D01*
X50687219Y-83331966D01*
X50831966Y-83187219D01*
X50831968Y-83187215D01*
X50831971Y-83187213D01*
X50952284Y-83021614D01*
X50952286Y-83021611D01*
X50952287Y-83021610D01*
X50999516Y-82928917D01*
X51047489Y-82878123D01*
X51115310Y-82861328D01*
X51181445Y-82883865D01*
X51220485Y-82928919D01*
X51267715Y-83021614D01*
X51388028Y-83187213D01*
X51532786Y-83331971D01*
X51687749Y-83444556D01*
X51698390Y-83452287D01*
X51787212Y-83497544D01*
X51880776Y-83545218D01*
X51880778Y-83545218D01*
X51880781Y-83545220D01*
X51985137Y-83579127D01*
X52075465Y-83608477D01*
X52176557Y-83624488D01*
X52277648Y-83640500D01*
X52277649Y-83640500D01*
X52482351Y-83640500D01*
X52482352Y-83640500D01*
X52684534Y-83608477D01*
X52879219Y-83545220D01*
X53061610Y-83452287D01*
X53157901Y-83382328D01*
X53227213Y-83331971D01*
X53227215Y-83331968D01*
X53227219Y-83331966D01*
X53371966Y-83187219D01*
X53371968Y-83187215D01*
X53371971Y-83187213D01*
X53492284Y-83021614D01*
X53492286Y-83021611D01*
X53492287Y-83021610D01*
X53539516Y-82928917D01*
X53587489Y-82878123D01*
X53655310Y-82861328D01*
X53721445Y-82883865D01*
X53760485Y-82928919D01*
X53807715Y-83021614D01*
X53928028Y-83187213D01*
X54072786Y-83331971D01*
X54227749Y-83444556D01*
X54238390Y-83452287D01*
X54327212Y-83497544D01*
X54420776Y-83545218D01*
X54420778Y-83545218D01*
X54420781Y-83545220D01*
X54525137Y-83579127D01*
X54615465Y-83608477D01*
X54716557Y-83624488D01*
X54817648Y-83640500D01*
X54817649Y-83640500D01*
X55022351Y-83640500D01*
X55022352Y-83640500D01*
X55224534Y-83608477D01*
X55419219Y-83545220D01*
X55601610Y-83452287D01*
X55697901Y-83382328D01*
X55767213Y-83331971D01*
X55767215Y-83331968D01*
X55767219Y-83331966D01*
X55911966Y-83187219D01*
X55911968Y-83187215D01*
X55911971Y-83187213D01*
X56032284Y-83021614D01*
X56032286Y-83021611D01*
X56032287Y-83021610D01*
X56079516Y-82928917D01*
X56127489Y-82878123D01*
X56195310Y-82861328D01*
X56261445Y-82883865D01*
X56300485Y-82928919D01*
X56347715Y-83021614D01*
X56468028Y-83187213D01*
X56612786Y-83331971D01*
X56767749Y-83444556D01*
X56778390Y-83452287D01*
X56867212Y-83497544D01*
X56960776Y-83545218D01*
X56960778Y-83545218D01*
X56960781Y-83545220D01*
X57065137Y-83579127D01*
X57155465Y-83608477D01*
X57256557Y-83624488D01*
X57357648Y-83640500D01*
X57357649Y-83640500D01*
X57562351Y-83640500D01*
X57562352Y-83640500D01*
X57764534Y-83608477D01*
X57959219Y-83545220D01*
X58141610Y-83452287D01*
X58237901Y-83382328D01*
X58307213Y-83331971D01*
X58307215Y-83331968D01*
X58307219Y-83331966D01*
X58451966Y-83187219D01*
X58451968Y-83187215D01*
X58451971Y-83187213D01*
X58572284Y-83021614D01*
X58572286Y-83021611D01*
X58572287Y-83021610D01*
X58619516Y-82928917D01*
X58667489Y-82878123D01*
X58735310Y-82861328D01*
X58801445Y-82883865D01*
X58840485Y-82928919D01*
X58887715Y-83021614D01*
X59008028Y-83187213D01*
X59152786Y-83331971D01*
X59307749Y-83444556D01*
X59318390Y-83452287D01*
X59407212Y-83497544D01*
X59500776Y-83545218D01*
X59500778Y-83545218D01*
X59500781Y-83545220D01*
X59605137Y-83579127D01*
X59695465Y-83608477D01*
X59796557Y-83624488D01*
X59897648Y-83640500D01*
X59897649Y-83640500D01*
X60102351Y-83640500D01*
X60102352Y-83640500D01*
X60304534Y-83608477D01*
X60499219Y-83545220D01*
X60681610Y-83452287D01*
X60777901Y-83382328D01*
X60847213Y-83331971D01*
X60847215Y-83331968D01*
X60847219Y-83331966D01*
X60991966Y-83187219D01*
X60991968Y-83187215D01*
X60991971Y-83187213D01*
X61112284Y-83021614D01*
X61112286Y-83021611D01*
X61112287Y-83021610D01*
X61159516Y-82928917D01*
X61207489Y-82878123D01*
X61275310Y-82861328D01*
X61341445Y-82883865D01*
X61380485Y-82928919D01*
X61427715Y-83021614D01*
X61548028Y-83187213D01*
X61692786Y-83331971D01*
X61847749Y-83444556D01*
X61858390Y-83452287D01*
X61947212Y-83497544D01*
X62040776Y-83545218D01*
X62040778Y-83545218D01*
X62040781Y-83545220D01*
X62145137Y-83579127D01*
X62235465Y-83608477D01*
X62336557Y-83624488D01*
X62437648Y-83640500D01*
X62437649Y-83640500D01*
X62642351Y-83640500D01*
X62642352Y-83640500D01*
X62844534Y-83608477D01*
X63039219Y-83545220D01*
X63221610Y-83452287D01*
X63317901Y-83382328D01*
X63387213Y-83331971D01*
X63387215Y-83331968D01*
X63387219Y-83331966D01*
X63531966Y-83187219D01*
X63531968Y-83187215D01*
X63531971Y-83187213D01*
X63652284Y-83021614D01*
X63652286Y-83021611D01*
X63652287Y-83021610D01*
X63699795Y-82928369D01*
X63747770Y-82877574D01*
X63815591Y-82860779D01*
X63881725Y-82883316D01*
X63920765Y-82928370D01*
X63968140Y-83021349D01*
X64088417Y-83186894D01*
X64088417Y-83186895D01*
X64233104Y-83331582D01*
X64398650Y-83451859D01*
X64580968Y-83544754D01*
X64775578Y-83607988D01*
X64830000Y-83616607D01*
X64830000Y-82773012D01*
X64887007Y-82805925D01*
X65014174Y-82840000D01*
X65145826Y-82840000D01*
X65272993Y-82805925D01*
X65330000Y-82773012D01*
X65330000Y-83616606D01*
X65384421Y-83607988D01*
X65579031Y-83544754D01*
X65761349Y-83451859D01*
X65926894Y-83331582D01*
X65926895Y-83331582D01*
X66071582Y-83186895D01*
X66071582Y-83186894D01*
X66191861Y-83021347D01*
X66239234Y-82928371D01*
X66287208Y-82877575D01*
X66355028Y-82860779D01*
X66421164Y-82883316D01*
X66460203Y-82928369D01*
X66507713Y-83021611D01*
X66628028Y-83187213D01*
X66772786Y-83331971D01*
X66927749Y-83444556D01*
X66938390Y-83452287D01*
X67027212Y-83497544D01*
X67120776Y-83545218D01*
X67120778Y-83545218D01*
X67120781Y-83545220D01*
X67225137Y-83579127D01*
X67315465Y-83608477D01*
X67416557Y-83624488D01*
X67517648Y-83640500D01*
X67517649Y-83640500D01*
X67722351Y-83640500D01*
X67722352Y-83640500D01*
X67924534Y-83608477D01*
X68119219Y-83545220D01*
X68301610Y-83452287D01*
X68397901Y-83382328D01*
X68467213Y-83331971D01*
X68467215Y-83331968D01*
X68467219Y-83331966D01*
X68611966Y-83187219D01*
X68611968Y-83187215D01*
X68611971Y-83187213D01*
X68732284Y-83021614D01*
X68732286Y-83021611D01*
X68732287Y-83021610D01*
X68779516Y-82928917D01*
X68827489Y-82878123D01*
X68895310Y-82861328D01*
X68961445Y-82883865D01*
X69000485Y-82928919D01*
X69047715Y-83021614D01*
X69168028Y-83187213D01*
X69312786Y-83331971D01*
X69467749Y-83444556D01*
X69478390Y-83452287D01*
X69567212Y-83497544D01*
X69660776Y-83545218D01*
X69660778Y-83545218D01*
X69660781Y-83545220D01*
X69765137Y-83579127D01*
X69855465Y-83608477D01*
X69956557Y-83624488D01*
X70057648Y-83640500D01*
X70057649Y-83640500D01*
X70262351Y-83640500D01*
X70262352Y-83640500D01*
X70464534Y-83608477D01*
X70659219Y-83545220D01*
X70841610Y-83452287D01*
X70937901Y-83382328D01*
X71007213Y-83331971D01*
X71007215Y-83331968D01*
X71007219Y-83331966D01*
X71151966Y-83187219D01*
X71178330Y-83150930D01*
X71233658Y-83108265D01*
X71303271Y-83102284D01*
X71365067Y-83134889D01*
X71399426Y-83195726D01*
X71401938Y-83210559D01*
X71405907Y-83247480D01*
X71456202Y-83382328D01*
X71456206Y-83382335D01*
X71542452Y-83497544D01*
X71542455Y-83497547D01*
X71657664Y-83583793D01*
X71657671Y-83583797D01*
X71792517Y-83634091D01*
X71792516Y-83634091D01*
X71799444Y-83634835D01*
X71852127Y-83640500D01*
X73547872Y-83640499D01*
X73607483Y-83634091D01*
X73742331Y-83583796D01*
X73857546Y-83497546D01*
X73943796Y-83382331D01*
X73994091Y-83247483D01*
X74000500Y-83187873D01*
X74000499Y-81492128D01*
X73994091Y-81432517D01*
X73956871Y-81332726D01*
X73943797Y-81297671D01*
X73943793Y-81297664D01*
X73857547Y-81182455D01*
X73857544Y-81182452D01*
X73742335Y-81096206D01*
X73742328Y-81096202D01*
X73607482Y-81045908D01*
X73607483Y-81045908D01*
X73547883Y-81039501D01*
X73547881Y-81039500D01*
X73547873Y-81039500D01*
X73547864Y-81039500D01*
X71852129Y-81039500D01*
X71852123Y-81039501D01*
X71792516Y-81045908D01*
X71657671Y-81096202D01*
X71657664Y-81096206D01*
X71542455Y-81182452D01*
X71542452Y-81182455D01*
X71456206Y-81297664D01*
X71456202Y-81297671D01*
X71405908Y-81432516D01*
X71401939Y-81469440D01*
X71375201Y-81533991D01*
X71317809Y-81573839D01*
X71247983Y-81576332D01*
X71187895Y-81540679D01*
X71178332Y-81529070D01*
X71151967Y-81492782D01*
X71007213Y-81348028D01*
X70841613Y-81227715D01*
X70841612Y-81227714D01*
X70841610Y-81227713D01*
X70784653Y-81198691D01*
X70659223Y-81134781D01*
X70464534Y-81071522D01*
X70289995Y-81043878D01*
X70262352Y-81039500D01*
X70057648Y-81039500D01*
X70033329Y-81043351D01*
X69855465Y-81071522D01*
X69660776Y-81134781D01*
X69478386Y-81227715D01*
X69312786Y-81348028D01*
X69168028Y-81492786D01*
X69047715Y-81658386D01*
X69000485Y-81751080D01*
X68952510Y-81801876D01*
X68884689Y-81818671D01*
X68818554Y-81796134D01*
X68779515Y-81751080D01*
X68732419Y-81658650D01*
X68732287Y-81658390D01*
X68670858Y-81573839D01*
X68611971Y-81492786D01*
X68467213Y-81348028D01*
X68301613Y-81227715D01*
X68301612Y-81227714D01*
X68301610Y-81227713D01*
X68244653Y-81198691D01*
X68119223Y-81134781D01*
X67924534Y-81071522D01*
X67749995Y-81043878D01*
X67722352Y-81039500D01*
X67517648Y-81039500D01*
X67493329Y-81043351D01*
X67315465Y-81071522D01*
X67120776Y-81134781D01*
X66938386Y-81227715D01*
X66772786Y-81348028D01*
X66628028Y-81492786D01*
X66507713Y-81658388D01*
X66460203Y-81751630D01*
X66412228Y-81802426D01*
X66344407Y-81819220D01*
X66278272Y-81796682D01*
X66239234Y-81751628D01*
X66191861Y-81658652D01*
X66071582Y-81493105D01*
X66071582Y-81493104D01*
X65926895Y-81348417D01*
X65761349Y-81228140D01*
X65579029Y-81135244D01*
X65384413Y-81072009D01*
X65330000Y-81063390D01*
X65330000Y-81906988D01*
X65272993Y-81874075D01*
X65145826Y-81840000D01*
X65014174Y-81840000D01*
X64887007Y-81874075D01*
X64830000Y-81906988D01*
X64830000Y-81063390D01*
X64775586Y-81072009D01*
X64580970Y-81135244D01*
X64398650Y-81228140D01*
X64233105Y-81348417D01*
X64233104Y-81348417D01*
X64088417Y-81493104D01*
X64088417Y-81493105D01*
X63968140Y-81658650D01*
X63920765Y-81751629D01*
X63872790Y-81802425D01*
X63804969Y-81819220D01*
X63738834Y-81796682D01*
X63699795Y-81751629D01*
X63652419Y-81658650D01*
X63652287Y-81658390D01*
X63590858Y-81573839D01*
X63531971Y-81492786D01*
X63387213Y-81348028D01*
X63221613Y-81227715D01*
X63221612Y-81227714D01*
X63221610Y-81227713D01*
X63164653Y-81198691D01*
X63039223Y-81134781D01*
X62844534Y-81071522D01*
X62669995Y-81043878D01*
X62642352Y-81039500D01*
X62437648Y-81039500D01*
X62413329Y-81043351D01*
X62235465Y-81071522D01*
X62040776Y-81134781D01*
X61858386Y-81227715D01*
X61692786Y-81348028D01*
X61548028Y-81492786D01*
X61427715Y-81658386D01*
X61380485Y-81751080D01*
X61332510Y-81801876D01*
X61264689Y-81818671D01*
X61198554Y-81796134D01*
X61159515Y-81751080D01*
X61112419Y-81658650D01*
X61112287Y-81658390D01*
X61050858Y-81573839D01*
X60991971Y-81492786D01*
X60847213Y-81348028D01*
X60681613Y-81227715D01*
X60681612Y-81227714D01*
X60681610Y-81227713D01*
X60624653Y-81198691D01*
X60499223Y-81134781D01*
X60304534Y-81071522D01*
X60129995Y-81043878D01*
X60102352Y-81039500D01*
X59897648Y-81039500D01*
X59873329Y-81043351D01*
X59695465Y-81071522D01*
X59500776Y-81134781D01*
X59318386Y-81227715D01*
X59152786Y-81348028D01*
X59008028Y-81492786D01*
X58887715Y-81658386D01*
X58840485Y-81751080D01*
X58792510Y-81801876D01*
X58724689Y-81818671D01*
X58658554Y-81796134D01*
X58619515Y-81751080D01*
X58572419Y-81658650D01*
X58572287Y-81658390D01*
X58510858Y-81573839D01*
X58451971Y-81492786D01*
X58307213Y-81348028D01*
X58141613Y-81227715D01*
X58141612Y-81227714D01*
X58141610Y-81227713D01*
X58084653Y-81198691D01*
X57959223Y-81134781D01*
X57764534Y-81071522D01*
X57589995Y-81043878D01*
X57562352Y-81039500D01*
X57357648Y-81039500D01*
X57333329Y-81043351D01*
X57155465Y-81071522D01*
X56960776Y-81134781D01*
X56778386Y-81227715D01*
X56612786Y-81348028D01*
X56468028Y-81492786D01*
X56347715Y-81658386D01*
X56300485Y-81751080D01*
X56252510Y-81801876D01*
X56184689Y-81818671D01*
X56118554Y-81796134D01*
X56079515Y-81751080D01*
X56032419Y-81658650D01*
X56032287Y-81658390D01*
X55970858Y-81573839D01*
X55911971Y-81492786D01*
X55767213Y-81348028D01*
X55601613Y-81227715D01*
X55601612Y-81227714D01*
X55601610Y-81227713D01*
X55544653Y-81198691D01*
X55419223Y-81134781D01*
X55224534Y-81071522D01*
X55049995Y-81043878D01*
X55022352Y-81039500D01*
X54817648Y-81039500D01*
X54793329Y-81043351D01*
X54615465Y-81071522D01*
X54420776Y-81134781D01*
X54238386Y-81227715D01*
X54072786Y-81348028D01*
X53928028Y-81492786D01*
X53807715Y-81658386D01*
X53760485Y-81751080D01*
X53712510Y-81801876D01*
X53644689Y-81818671D01*
X53578554Y-81796134D01*
X53539515Y-81751080D01*
X53492419Y-81658650D01*
X53492287Y-81658390D01*
X53430858Y-81573839D01*
X53371971Y-81492786D01*
X53227213Y-81348028D01*
X53061613Y-81227715D01*
X53061612Y-81227714D01*
X53061610Y-81227713D01*
X53004653Y-81198691D01*
X52879223Y-81134781D01*
X52684534Y-81071522D01*
X52509995Y-81043878D01*
X52482352Y-81039500D01*
X52277648Y-81039500D01*
X52253329Y-81043351D01*
X52075465Y-81071522D01*
X51880776Y-81134781D01*
X51698386Y-81227715D01*
X51532786Y-81348028D01*
X51388028Y-81492786D01*
X51267715Y-81658386D01*
X51220485Y-81751080D01*
X51172510Y-81801876D01*
X51104689Y-81818671D01*
X51038554Y-81796134D01*
X50999515Y-81751080D01*
X50952419Y-81658650D01*
X50952287Y-81658390D01*
X50890858Y-81573839D01*
X50831971Y-81492786D01*
X50687213Y-81348028D01*
X50521613Y-81227715D01*
X50521612Y-81227714D01*
X50521610Y-81227713D01*
X50464653Y-81198691D01*
X50339223Y-81134781D01*
X50144534Y-81071522D01*
X49969995Y-81043878D01*
X49942352Y-81039500D01*
X49737648Y-81039500D01*
X49713329Y-81043351D01*
X49535465Y-81071522D01*
X49340776Y-81134781D01*
X49158386Y-81227715D01*
X48992786Y-81348028D01*
X48848028Y-81492786D01*
X48727715Y-81658386D01*
X48680485Y-81751080D01*
X48632510Y-81801876D01*
X48564689Y-81818671D01*
X48498554Y-81796134D01*
X48459515Y-81751080D01*
X48412419Y-81658650D01*
X48412287Y-81658390D01*
X48350858Y-81573839D01*
X48291971Y-81492786D01*
X48147213Y-81348028D01*
X47981613Y-81227715D01*
X47981612Y-81227714D01*
X47981610Y-81227713D01*
X47924653Y-81198691D01*
X47799223Y-81134781D01*
X47604534Y-81071522D01*
X47429995Y-81043878D01*
X47402352Y-81039500D01*
X47197648Y-81039500D01*
X47173329Y-81043351D01*
X46995465Y-81071522D01*
X46800776Y-81134781D01*
X46618386Y-81227715D01*
X46452786Y-81348028D01*
X46308028Y-81492786D01*
X46187715Y-81658386D01*
X46140485Y-81751080D01*
X46092510Y-81801876D01*
X46024689Y-81818671D01*
X45958554Y-81796134D01*
X45919515Y-81751080D01*
X45872419Y-81658650D01*
X45872287Y-81658390D01*
X45810858Y-81573839D01*
X45751971Y-81492786D01*
X45607213Y-81348028D01*
X45441613Y-81227715D01*
X45441612Y-81227714D01*
X45441610Y-81227713D01*
X45384653Y-81198691D01*
X45259223Y-81134781D01*
X45064534Y-81071522D01*
X44889995Y-81043878D01*
X44862352Y-81039500D01*
X44657648Y-81039500D01*
X44633329Y-81043351D01*
X44455465Y-81071522D01*
X44260776Y-81134781D01*
X44078386Y-81227715D01*
X43912786Y-81348028D01*
X43768028Y-81492786D01*
X43647715Y-81658386D01*
X43600485Y-81751080D01*
X43552510Y-81801876D01*
X43484689Y-81818671D01*
X43418554Y-81796134D01*
X43379515Y-81751080D01*
X43332419Y-81658650D01*
X43332287Y-81658390D01*
X43270858Y-81573839D01*
X43211971Y-81492786D01*
X43067213Y-81348028D01*
X42901613Y-81227715D01*
X42901612Y-81227714D01*
X42901610Y-81227713D01*
X42844653Y-81198691D01*
X42719223Y-81134781D01*
X42524534Y-81071522D01*
X42349995Y-81043878D01*
X42322352Y-81039500D01*
X42117648Y-81039500D01*
X42093329Y-81043351D01*
X41915465Y-81071522D01*
X41720776Y-81134781D01*
X41538386Y-81227715D01*
X41372786Y-81348028D01*
X41228028Y-81492786D01*
X41107715Y-81658386D01*
X41060485Y-81751080D01*
X41012510Y-81801876D01*
X40944689Y-81818671D01*
X40878554Y-81796134D01*
X40839515Y-81751080D01*
X40792419Y-81658650D01*
X40792287Y-81658390D01*
X40730858Y-81573839D01*
X40671971Y-81492786D01*
X40527213Y-81348028D01*
X40361613Y-81227715D01*
X40361612Y-81227714D01*
X40361610Y-81227713D01*
X40304653Y-81198691D01*
X40179223Y-81134781D01*
X39984534Y-81071522D01*
X39809995Y-81043878D01*
X39782352Y-81039500D01*
X39577648Y-81039500D01*
X39553329Y-81043351D01*
X39375465Y-81071522D01*
X39180776Y-81134781D01*
X38998386Y-81227715D01*
X38832786Y-81348028D01*
X38688028Y-81492786D01*
X38567715Y-81658386D01*
X38520485Y-81751080D01*
X38472510Y-81801876D01*
X38404689Y-81818671D01*
X38338554Y-81796134D01*
X38299515Y-81751080D01*
X38252419Y-81658650D01*
X38252287Y-81658390D01*
X38190858Y-81573839D01*
X38131971Y-81492786D01*
X37987213Y-81348028D01*
X37821613Y-81227715D01*
X37821612Y-81227714D01*
X37821610Y-81227713D01*
X37764653Y-81198691D01*
X37639223Y-81134781D01*
X37444534Y-81071522D01*
X37269995Y-81043878D01*
X37242352Y-81039500D01*
X37037648Y-81039500D01*
X37013329Y-81043351D01*
X36835465Y-81071522D01*
X36640776Y-81134781D01*
X36458386Y-81227715D01*
X36292786Y-81348028D01*
X36148028Y-81492786D01*
X36027715Y-81658386D01*
X35934781Y-81840776D01*
X35871522Y-82035465D01*
X35839500Y-82237648D01*
X34233990Y-82237648D01*
X34411869Y-81336470D01*
X34412669Y-81332726D01*
X34458034Y-81135244D01*
X34699100Y-80085840D01*
X34700010Y-80082144D01*
X34794732Y-79721314D01*
X35024859Y-78844677D01*
X35025858Y-78841094D01*
X35388827Y-77614197D01*
X35389963Y-77610568D01*
X35516705Y-77226256D01*
X35790666Y-76395541D01*
X35791887Y-76392024D01*
X36229968Y-75189942D01*
X36231312Y-75186424D01*
X36706351Y-73998450D01*
X36707800Y-73994983D01*
X37219347Y-72822241D01*
X37220883Y-72818864D01*
X37768442Y-71662490D01*
X37770091Y-71659142D01*
X38353139Y-70520247D01*
X38354878Y-70516975D01*
X38972836Y-69396686D01*
X38974730Y-69393375D01*
X39036118Y-69289792D01*
X39627046Y-68292690D01*
X39628972Y-68289552D01*
X40314989Y-67209582D01*
X40317042Y-67206457D01*
X41036123Y-66148202D01*
X41038285Y-66145124D01*
X41789725Y-65109624D01*
X41791983Y-65106612D01*
X42575077Y-64094835D01*
X42577390Y-64091940D01*
X43391435Y-63104799D01*
X43393867Y-63101943D01*
X43981940Y-62432135D01*
X93149500Y-62432135D01*
X93149500Y-64227870D01*
X93149501Y-64227876D01*
X93155908Y-64287483D01*
X93206202Y-64422328D01*
X93206206Y-64422335D01*
X93292452Y-64537544D01*
X93292455Y-64537547D01*
X93407664Y-64623793D01*
X93407671Y-64623797D01*
X93539082Y-64672810D01*
X93595016Y-64714681D01*
X93619433Y-64780145D01*
X93604582Y-64848418D01*
X93583431Y-64876673D01*
X93469889Y-64990215D01*
X93344951Y-65162179D01*
X93248444Y-65351585D01*
X93182753Y-65553760D01*
X93149500Y-65763713D01*
X93149500Y-65976286D01*
X93182753Y-66186239D01*
X93248444Y-66388414D01*
X93344951Y-66577820D01*
X93469890Y-66749786D01*
X93620213Y-66900109D01*
X93792182Y-67025050D01*
X93800946Y-67029516D01*
X93851742Y-67077491D01*
X93868536Y-67145312D01*
X93845998Y-67211447D01*
X93800946Y-67250484D01*
X93792182Y-67254949D01*
X93620213Y-67379890D01*
X93469890Y-67530213D01*
X93344951Y-67702179D01*
X93248444Y-67891585D01*
X93182753Y-68093760D01*
X93151753Y-68289487D01*
X93149500Y-68303713D01*
X93149500Y-68516287D01*
X93182754Y-68726243D01*
X93247936Y-68926853D01*
X93248444Y-68928414D01*
X93344951Y-69117820D01*
X93469890Y-69289786D01*
X93620213Y-69440109D01*
X93792179Y-69565048D01*
X93792181Y-69565049D01*
X93792184Y-69565051D01*
X93801493Y-69569794D01*
X93852290Y-69617766D01*
X93869087Y-69685587D01*
X93846552Y-69751722D01*
X93801505Y-69790760D01*
X93792446Y-69795376D01*
X93792440Y-69795380D01*
X93738282Y-69834727D01*
X93738282Y-69834728D01*
X94370591Y-70467037D01*
X94307007Y-70484075D01*
X94192993Y-70549901D01*
X94099901Y-70642993D01*
X94034075Y-70757007D01*
X94017037Y-70820591D01*
X93384728Y-70188282D01*
X93384727Y-70188282D01*
X93345380Y-70242439D01*
X93248904Y-70431782D01*
X93183242Y-70633869D01*
X93183242Y-70633872D01*
X93150000Y-70843753D01*
X93150000Y-71056246D01*
X93183242Y-71266127D01*
X93183242Y-71266130D01*
X93248904Y-71468217D01*
X93345375Y-71657550D01*
X93384728Y-71711716D01*
X94017037Y-71079408D01*
X94034075Y-71142993D01*
X94099901Y-71257007D01*
X94192993Y-71350099D01*
X94307007Y-71415925D01*
X94370590Y-71432962D01*
X93738282Y-72065269D01*
X93738282Y-72065270D01*
X93792449Y-72104624D01*
X93981782Y-72201095D01*
X94183870Y-72266757D01*
X94393754Y-72300000D01*
X94606246Y-72300000D01*
X94816127Y-72266757D01*
X94816130Y-72266757D01*
X95018217Y-72201095D01*
X95207554Y-72104622D01*
X95261716Y-72065270D01*
X95261717Y-72065270D01*
X94629408Y-71432962D01*
X94692993Y-71415925D01*
X94807007Y-71350099D01*
X94900099Y-71257007D01*
X94965925Y-71142993D01*
X94982962Y-71079408D01*
X95615270Y-71711717D01*
X95615270Y-71711716D01*
X95654622Y-71657554D01*
X95751095Y-71468217D01*
X95816757Y-71266130D01*
X95816757Y-71266127D01*
X95850000Y-71056246D01*
X95850000Y-70843753D01*
X95816757Y-70633872D01*
X95816757Y-70633869D01*
X95751095Y-70431782D01*
X95654624Y-70242449D01*
X95615270Y-70188282D01*
X95615269Y-70188282D01*
X94982962Y-70820590D01*
X94965925Y-70757007D01*
X94900099Y-70642993D01*
X94807007Y-70549901D01*
X94692993Y-70484075D01*
X94629409Y-70467037D01*
X95261716Y-69834728D01*
X95207547Y-69795373D01*
X95207547Y-69795372D01*
X95198500Y-69790763D01*
X95147706Y-69742788D01*
X95130912Y-69674966D01*
X95153451Y-69608832D01*
X95198508Y-69569793D01*
X95207816Y-69565051D01*
X95287007Y-69507515D01*
X95379786Y-69440109D01*
X95379788Y-69440106D01*
X95379792Y-69440104D01*
X95530104Y-69289792D01*
X95530106Y-69289788D01*
X95530109Y-69289786D01*
X95655048Y-69117820D01*
X95655047Y-69117820D01*
X95655051Y-69117816D01*
X95751557Y-68928412D01*
X95817246Y-68726243D01*
X95850500Y-68516287D01*
X95850500Y-68303713D01*
X95817246Y-68093757D01*
X95751557Y-67891588D01*
X95655051Y-67702184D01*
X95655049Y-67702181D01*
X95655048Y-67702179D01*
X95530109Y-67530213D01*
X95379786Y-67379890D01*
X95207820Y-67254951D01*
X95207115Y-67254591D01*
X95199054Y-67250485D01*
X95148259Y-67202512D01*
X95131463Y-67134692D01*
X95153999Y-67068556D01*
X95199054Y-67029515D01*
X95207816Y-67025051D01*
X95229789Y-67009086D01*
X95379786Y-66900109D01*
X95379788Y-66900106D01*
X95379792Y-66900104D01*
X95530104Y-66749792D01*
X95530106Y-66749788D01*
X95530109Y-66749786D01*
X95655048Y-66577820D01*
X95655047Y-66577820D01*
X95655051Y-66577816D01*
X95751557Y-66388412D01*
X95817246Y-66186243D01*
X95850500Y-65976287D01*
X95850500Y-65763713D01*
X95817246Y-65553757D01*
X95751557Y-65351588D01*
X95655051Y-65162184D01*
X95655049Y-65162181D01*
X95655048Y-65162179D01*
X95530109Y-64990213D01*
X95416569Y-64876673D01*
X95383084Y-64815350D01*
X95388068Y-64745658D01*
X95429940Y-64689725D01*
X95460915Y-64672810D01*
X95592331Y-64623796D01*
X95707546Y-64537546D01*
X95793796Y-64422331D01*
X95844091Y-64287483D01*
X95850500Y-64227873D01*
X95850499Y-62432128D01*
X95844091Y-62372517D01*
X95793796Y-62237669D01*
X95793795Y-62237668D01*
X95793793Y-62237664D01*
X95707547Y-62122455D01*
X95707544Y-62122452D01*
X95592335Y-62036206D01*
X95592328Y-62036202D01*
X95457482Y-61985908D01*
X95457483Y-61985908D01*
X95397883Y-61979501D01*
X95397881Y-61979500D01*
X95397873Y-61979500D01*
X95397864Y-61979500D01*
X93602129Y-61979500D01*
X93602123Y-61979501D01*
X93542516Y-61985908D01*
X93407671Y-62036202D01*
X93407664Y-62036206D01*
X93292455Y-62122452D01*
X93292452Y-62122455D01*
X93206206Y-62237664D01*
X93206202Y-62237671D01*
X93155908Y-62372517D01*
X93149501Y-62432116D01*
X93149501Y-62432123D01*
X93149500Y-62432135D01*
X43981940Y-62432135D01*
X44237981Y-62140507D01*
X44240492Y-62137734D01*
X45113964Y-61202812D01*
X45116510Y-61200169D01*
X46018458Y-60292706D01*
X46021193Y-60290039D01*
X46634613Y-59709893D01*
X46950712Y-59410939D01*
X46953500Y-59408383D01*
X47909799Y-58558400D01*
X47912620Y-58555970D01*
X48894726Y-57735966D01*
X48897639Y-57733610D01*
X49904645Y-56944344D01*
X49907618Y-56942088D01*
X50938548Y-56184327D01*
X50941546Y-56182194D01*
X51995435Y-55456647D01*
X51998526Y-55454589D01*
X53074301Y-54761996D01*
X53077508Y-54760001D01*
X54174161Y-54101009D01*
X54177399Y-54099131D01*
X54866755Y-53713378D01*
X55293892Y-53474360D01*
X55297266Y-53472540D01*
X55431600Y-53402732D01*
X56432515Y-52882595D01*
X56435852Y-52880926D01*
X57588849Y-52326336D01*
X57592253Y-52324763D01*
X58761815Y-51806094D01*
X58765287Y-51804617D01*
X59950356Y-51322340D01*
X59953824Y-51320991D01*
X61153239Y-50875578D01*
X61156760Y-50874332D01*
X62369349Y-50466220D01*
X62372934Y-50465074D01*
X63597562Y-50094643D01*
X63601210Y-50093601D01*
X64836702Y-49761206D01*
X64840272Y-49760304D01*
X66085527Y-49466244D01*
X66089150Y-49465448D01*
X67342856Y-49210034D01*
X67346527Y-49209346D01*
X68607477Y-48992821D01*
X68611209Y-48992239D01*
X69878266Y-48814797D01*
X69882009Y-48814331D01*
X71153947Y-48676144D01*
X71157698Y-48675796D01*
X72433272Y-48576999D01*
X72437058Y-48576765D01*
X73715079Y-48517448D01*
X73718895Y-48517331D01*
X74998124Y-48497553D01*
X75001876Y-48497553D01*
X76281102Y-48517331D01*
G37*
%TD.AperFunction*%
%TD*%
M02*
