%TF.GenerationSoftware,KiCad,Pcbnew,10.0.3*%
%TF.CreationDate,2026-07-05T13:29:06+05:30*%
%TF.ProjectId,arduino_nano_pcb(phase1),61726475-696e-46f5-9f6e-616e6f5f7063,1*%
%TF.SameCoordinates,Original*%
%TF.FileFunction,Copper,L1,Top*%
%TF.FilePolarity,Positive*%
%FSLAX46Y46*%
G04 Gerber Fmt 4.6, Leading zero omitted, Abs format (unit mm)*
G04 Created by KiCad (PCBNEW 10.0.3) date 2026-07-05 13:29:06*
%MOMM*%
%LPD*%
G01*
G04 APERTURE LIST*
%TA.AperFunction,ComponentPad*%
%ADD10C,3.600000*%
%TD*%
%TA.AperFunction,ConnectorPad*%
%ADD11C,6.400000*%
%TD*%
%TA.AperFunction,ComponentPad*%
%ADD12R,1.700000X1.700000*%
%TD*%
%TA.AperFunction,ComponentPad*%
%ADD13C,1.700000*%
%TD*%
%TA.AperFunction,ComponentPad*%
%ADD14R,1.600000X1.600000*%
%TD*%
%TA.AperFunction,ComponentPad*%
%ADD15O,1.600000X1.600000*%
%TD*%
G04 APERTURE END LIST*
D10*
%TO.P,H4,1,1_1*%
%TO.N,GND*%
X108500000Y-113000000D03*
D11*
X108500000Y-113000000D03*
%TD*%
D10*
%TO.P,H2,1,1_1*%
%TO.N,GND*%
X108500000Y-63000000D03*
D11*
X108500000Y-63000000D03*
%TD*%
D10*
%TO.P,H1,1,1_1*%
%TO.N,GND*%
X47500000Y-63000000D03*
D11*
X47500000Y-63000000D03*
%TD*%
D12*
%TO.P,J2,1,Pin_1_1*%
%TO.N,/TM1637_CLK*%
X101500000Y-75190000D03*
D13*
%TO.P,J2,2,Pin_2_2*%
%TO.N,/TM1637_DIO*%
X101500000Y-77730000D03*
%TO.P,J2,3,Pin_3_3*%
%TO.N,VCC*%
X101500000Y-80270000D03*
%TO.P,J2,4,Pin_4_4*%
%TO.N,GND*%
X101500000Y-82810000D03*
%TD*%
D14*
%TO.P,A1,1,D1/TX_1*%
%TO.N,unconnected-(A1-D1{slash}TX-Pad1)*%
X97200000Y-93000000D03*
D15*
%TO.P,A1,2,D0/RX_2*%
%TO.N,unconnected-(A1-D0{slash}RX-Pad2)*%
X94660000Y-93000000D03*
%TO.P,A1,3,~{RESET}_3*%
%TO.N,unconnected-(A1-~{RESET}-Pad3)*%
X92120000Y-93000000D03*
%TO.P,A1,4,GND_4*%
%TO.N,GND*%
X89580000Y-93000000D03*
%TO.P,A1,5,D2_5*%
%TO.N,/TM1637_DIO*%
X87040000Y-93000000D03*
%TO.P,A1,6,D3_6*%
%TO.N,/TM1637_CLK*%
X84500000Y-93000000D03*
%TO.P,A1,7,D4_7*%
%TO.N,unconnected-(A1-D4-Pad7)*%
X81960000Y-93000000D03*
%TO.P,A1,8,D5_8*%
%TO.N,unconnected-(A1-D5-Pad8)*%
X79420000Y-93000000D03*
%TO.P,A1,9,D6_9*%
%TO.N,unconnected-(A1-D6-Pad9)*%
X76880000Y-93000000D03*
%TO.P,A1,10,D7_10*%
%TO.N,unconnected-(A1-D7-Pad10)*%
X74340000Y-93000000D03*
%TO.P,A1,11,D8_11*%
%TO.N,unconnected-(A1-D8-Pad11)*%
X71800000Y-93000000D03*
%TO.P,A1,12,D9_12*%
%TO.N,unconnected-(A1-D9-Pad12)*%
X69260000Y-93000000D03*
%TO.P,A1,13,D10_13*%
%TO.N,unconnected-(A1-D10-Pad13)*%
X66720000Y-93000000D03*
%TO.P,A1,14,D11_14*%
%TO.N,/MCU_RX_SENSOR_TX*%
X64180000Y-93000000D03*
%TO.P,A1,15,D12_15*%
%TO.N,/MCU_TX_SENSOR_RX*%
X61640000Y-93000000D03*
%TO.P,A1,16,D13_16*%
%TO.N,unconnected-(A1-D13-Pad16)*%
X61640000Y-108240000D03*
%TO.P,A1,17,3V3_17*%
%TO.N,unconnected-(A1-3V3-Pad17)*%
X64180000Y-108240000D03*
%TO.P,A1,18,AREF_18*%
%TO.N,unconnected-(A1-AREF-Pad18)*%
X66720000Y-108240000D03*
%TO.P,A1,19,A0_19*%
%TO.N,unconnected-(A1-A0-Pad19)*%
X69260000Y-108240000D03*
%TO.P,A1,20,A1_20*%
%TO.N,unconnected-(A1-A1-Pad20)*%
X71800000Y-108240000D03*
%TO.P,A1,21,A2_21*%
%TO.N,unconnected-(A1-A2-Pad21)*%
X74340000Y-108240000D03*
%TO.P,A1,22,A3_22*%
%TO.N,unconnected-(A1-A3-Pad22)*%
X76880000Y-108240000D03*
%TO.P,A1,23,A4_23*%
%TO.N,unconnected-(A1-A4-Pad23)*%
X79420000Y-108240000D03*
%TO.P,A1,24,A5_24*%
%TO.N,unconnected-(A1-A5-Pad24)*%
X81960000Y-108240000D03*
%TO.P,A1,25,A6_25*%
%TO.N,unconnected-(A1-A6-Pad25)*%
X84500000Y-108240000D03*
%TO.P,A1,26,A7_26*%
%TO.N,unconnected-(A1-A7-Pad26)*%
X87040000Y-108240000D03*
%TO.P,A1,27,+5V_27*%
%TO.N,VCC*%
X89580000Y-108240000D03*
%TO.P,A1,28,~{RESET}_28*%
%TO.N,unconnected-(A1-~{RESET}-Pad28)*%
X92120000Y-108240000D03*
%TO.P,A1,29,GND_29*%
%TO.N,unconnected-(A1-GND-Pad29)*%
X94660000Y-108240000D03*
%TO.P,A1,30,VIN_30*%
%TO.N,unconnected-(A1-VIN-Pad30)*%
X97200000Y-108240000D03*
%TD*%
D10*
%TO.P,H3,1,1_1*%
%TO.N,GND*%
X47500000Y-113000000D03*
D11*
X47500000Y-113000000D03*
%TD*%
D12*
%TO.P,J1,1,Pin_1_1*%
%TO.N,/MCU_RX_SENSOR_TX*%
X53500000Y-74380000D03*
D13*
%TO.P,J1,2,Pin_2_2*%
X56040000Y-74380000D03*
%TO.P,J1,3,Pin_3_3*%
%TO.N,/MCU_TX_SENSOR_RX*%
X53500000Y-76920000D03*
%TO.P,J1,4,Pin_4_4*%
X56040000Y-76920000D03*
%TO.P,J1,5,Pin_5_5*%
%TO.N,GND*%
X53500000Y-79460000D03*
%TO.P,J1,6,Pin_6_6*%
X56040000Y-79460000D03*
%TO.P,J1,7,Pin_7_7*%
%TO.N,VCC*%
X53500000Y-82000000D03*
%TO.P,J1,8,Pin_8_8*%
X56040000Y-82000000D03*
%TD*%
%TA.AperFunction,Conductor*%
%TO.N,GND*%
G36*
X55574075Y-79652993D02*
G01*
X55639901Y-79767007D01*
X55732993Y-79860099D01*
X55847007Y-79925925D01*
X55910590Y-79942962D01*
X55278282Y-80575269D01*
X55278282Y-80575270D01*
X55332452Y-80614626D01*
X55332451Y-80614626D01*
X55341495Y-80619234D01*
X55392292Y-80667208D01*
X55409087Y-80735029D01*
X55386550Y-80801164D01*
X55341499Y-80840202D01*
X55332182Y-80844949D01*
X55160213Y-80969890D01*
X55009890Y-81120213D01*
X54884949Y-81292182D01*
X54880484Y-81300946D01*
X54832509Y-81351742D01*
X54764688Y-81368536D01*
X54698553Y-81345998D01*
X54659516Y-81300946D01*
X54655050Y-81292182D01*
X54530109Y-81120213D01*
X54379786Y-80969890D01*
X54207817Y-80844949D01*
X54198504Y-80840204D01*
X54147707Y-80792230D01*
X54130912Y-80724409D01*
X54153449Y-80658274D01*
X54198507Y-80619232D01*
X54207555Y-80614622D01*
X54261716Y-80575270D01*
X54261717Y-80575270D01*
X53629408Y-79942962D01*
X53692993Y-79925925D01*
X53807007Y-79860099D01*
X53900099Y-79767007D01*
X53965925Y-79652993D01*
X53982962Y-79589409D01*
X54615270Y-80221717D01*
X54615270Y-80221716D01*
X54654622Y-80167554D01*
X54659514Y-80157954D01*
X54707488Y-80107157D01*
X54775308Y-80090361D01*
X54841444Y-80112897D01*
X54880486Y-80157954D01*
X54885375Y-80167550D01*
X54924728Y-80221716D01*
X55557037Y-79589408D01*
X55574075Y-79652993D01*
G37*
%TD.AperFunction*%
%TA.AperFunction,Conductor*%
G36*
X54841444Y-77573999D02*
G01*
X54880484Y-77619054D01*
X54884591Y-77627115D01*
X54884951Y-77627820D01*
X55009890Y-77799786D01*
X55160213Y-77950109D01*
X55332179Y-78075048D01*
X55332181Y-78075049D01*
X55332184Y-78075051D01*
X55341493Y-78079794D01*
X55392290Y-78127766D01*
X55409087Y-78195587D01*
X55386552Y-78261722D01*
X55341505Y-78300760D01*
X55332446Y-78305376D01*
X55332440Y-78305380D01*
X55278282Y-78344727D01*
X55278282Y-78344728D01*
X55910591Y-78977037D01*
X55847007Y-78994075D01*
X55732993Y-79059901D01*
X55639901Y-79152993D01*
X55574075Y-79267007D01*
X55557037Y-79330591D01*
X54924728Y-78698282D01*
X54924727Y-78698282D01*
X54885380Y-78752440D01*
X54880483Y-78762051D01*
X54832506Y-78812845D01*
X54764684Y-78829638D01*
X54698550Y-78807098D01*
X54659516Y-78762048D01*
X54654626Y-78752452D01*
X54615270Y-78698282D01*
X54615269Y-78698282D01*
X53982962Y-79330590D01*
X53965925Y-79267007D01*
X53900099Y-79152993D01*
X53807007Y-79059901D01*
X53692993Y-78994075D01*
X53629409Y-78977037D01*
X54261716Y-78344728D01*
X54207547Y-78305373D01*
X54207547Y-78305372D01*
X54198500Y-78300763D01*
X54147706Y-78252788D01*
X54130912Y-78184966D01*
X54153451Y-78118832D01*
X54198508Y-78079793D01*
X54207816Y-78075051D01*
X54287007Y-78017515D01*
X54379786Y-77950109D01*
X54379788Y-77950106D01*
X54379792Y-77950104D01*
X54530104Y-77799792D01*
X54530106Y-77799788D01*
X54530109Y-77799786D01*
X54655048Y-77627820D01*
X54655047Y-77627820D01*
X54655051Y-77627816D01*
X54659514Y-77619054D01*
X54707488Y-77568259D01*
X54775308Y-77551463D01*
X54841444Y-77573999D01*
G37*
%TD.AperFunction*%
%TA.AperFunction,Conductor*%
G36*
X112050697Y-59520184D02*
G01*
X112096452Y-59572988D01*
X112107658Y-59624499D01*
X112107658Y-116375500D01*
X112087973Y-116442539D01*
X112035169Y-116488294D01*
X111983658Y-116499500D01*
X44016343Y-116499500D01*
X43949304Y-116479815D01*
X43903549Y-116427011D01*
X43892343Y-116375500D01*
X43892343Y-108137648D01*
X60339500Y-108137648D01*
X60339500Y-108342351D01*
X60371522Y-108544534D01*
X60434781Y-108739223D01*
X60527715Y-108921613D01*
X60648028Y-109087213D01*
X60792786Y-109231971D01*
X60947749Y-109344556D01*
X60958390Y-109352287D01*
X61074607Y-109411503D01*
X61140776Y-109445218D01*
X61140778Y-109445218D01*
X61140781Y-109445220D01*
X61245137Y-109479127D01*
X61335465Y-109508477D01*
X61436557Y-109524488D01*
X61537648Y-109540500D01*
X61537649Y-109540500D01*
X61742351Y-109540500D01*
X61742352Y-109540500D01*
X61944534Y-109508477D01*
X62139219Y-109445220D01*
X62321610Y-109352287D01*
X62414590Y-109284732D01*
X62487213Y-109231971D01*
X62487215Y-109231968D01*
X62487219Y-109231966D01*
X62631966Y-109087219D01*
X62631968Y-109087215D01*
X62631971Y-109087213D01*
X62752284Y-108921614D01*
X62752285Y-108921613D01*
X62752287Y-108921610D01*
X62799516Y-108828917D01*
X62847489Y-108778123D01*
X62915310Y-108761328D01*
X62981445Y-108783865D01*
X63020485Y-108828919D01*
X63067715Y-108921614D01*
X63188028Y-109087213D01*
X63332786Y-109231971D01*
X63487749Y-109344556D01*
X63498390Y-109352287D01*
X63614607Y-109411503D01*
X63680776Y-109445218D01*
X63680778Y-109445218D01*
X63680781Y-109445220D01*
X63785137Y-109479127D01*
X63875465Y-109508477D01*
X63976557Y-109524488D01*
X64077648Y-109540500D01*
X64077649Y-109540500D01*
X64282351Y-109540500D01*
X64282352Y-109540500D01*
X64484534Y-109508477D01*
X64679219Y-109445220D01*
X64861610Y-109352287D01*
X64954590Y-109284732D01*
X65027213Y-109231971D01*
X65027215Y-109231968D01*
X65027219Y-109231966D01*
X65171966Y-109087219D01*
X65171968Y-109087215D01*
X65171971Y-109087213D01*
X65292284Y-108921614D01*
X65292285Y-108921613D01*
X65292287Y-108921610D01*
X65339516Y-108828917D01*
X65387489Y-108778123D01*
X65455310Y-108761328D01*
X65521445Y-108783865D01*
X65560485Y-108828919D01*
X65607715Y-108921614D01*
X65728028Y-109087213D01*
X65872786Y-109231971D01*
X66027749Y-109344556D01*
X66038390Y-109352287D01*
X66154607Y-109411503D01*
X66220776Y-109445218D01*
X66220778Y-109445218D01*
X66220781Y-109445220D01*
X66325137Y-109479127D01*
X66415465Y-109508477D01*
X66516557Y-109524488D01*
X66617648Y-109540500D01*
X66617649Y-109540500D01*
X66822351Y-109540500D01*
X66822352Y-109540500D01*
X67024534Y-109508477D01*
X67219219Y-109445220D01*
X67401610Y-109352287D01*
X67494590Y-109284732D01*
X67567213Y-109231971D01*
X67567215Y-109231968D01*
X67567219Y-109231966D01*
X67711966Y-109087219D01*
X67711968Y-109087215D01*
X67711971Y-109087213D01*
X67832284Y-108921614D01*
X67832285Y-108921613D01*
X67832287Y-108921610D01*
X67879516Y-108828917D01*
X67927489Y-108778123D01*
X67995310Y-108761328D01*
X68061445Y-108783865D01*
X68100485Y-108828919D01*
X68147715Y-108921614D01*
X68268028Y-109087213D01*
X68412786Y-109231971D01*
X68567749Y-109344556D01*
X68578390Y-109352287D01*
X68694607Y-109411503D01*
X68760776Y-109445218D01*
X68760778Y-109445218D01*
X68760781Y-109445220D01*
X68865137Y-109479127D01*
X68955465Y-109508477D01*
X69056557Y-109524488D01*
X69157648Y-109540500D01*
X69157649Y-109540500D01*
X69362351Y-109540500D01*
X69362352Y-109540500D01*
X69564534Y-109508477D01*
X69759219Y-109445220D01*
X69941610Y-109352287D01*
X70034590Y-109284732D01*
X70107213Y-109231971D01*
X70107215Y-109231968D01*
X70107219Y-109231966D01*
X70251966Y-109087219D01*
X70251968Y-109087215D01*
X70251971Y-109087213D01*
X70372284Y-108921614D01*
X70372285Y-108921613D01*
X70372287Y-108921610D01*
X70419516Y-108828917D01*
X70467489Y-108778123D01*
X70535310Y-108761328D01*
X70601445Y-108783865D01*
X70640485Y-108828919D01*
X70687715Y-108921614D01*
X70808028Y-109087213D01*
X70952786Y-109231971D01*
X71107749Y-109344556D01*
X71118390Y-109352287D01*
X71234607Y-109411503D01*
X71300776Y-109445218D01*
X71300778Y-109445218D01*
X71300781Y-109445220D01*
X71405137Y-109479127D01*
X71495465Y-109508477D01*
X71596557Y-109524488D01*
X71697648Y-109540500D01*
X71697649Y-109540500D01*
X71902351Y-109540500D01*
X71902352Y-109540500D01*
X72104534Y-109508477D01*
X72299219Y-109445220D01*
X72481610Y-109352287D01*
X72574590Y-109284732D01*
X72647213Y-109231971D01*
X72647215Y-109231968D01*
X72647219Y-109231966D01*
X72791966Y-109087219D01*
X72791968Y-109087215D01*
X72791971Y-109087213D01*
X72912284Y-108921614D01*
X72912285Y-108921613D01*
X72912287Y-108921610D01*
X72959516Y-108828917D01*
X73007489Y-108778123D01*
X73075310Y-108761328D01*
X73141445Y-108783865D01*
X73180485Y-108828919D01*
X73227715Y-108921614D01*
X73348028Y-109087213D01*
X73492786Y-109231971D01*
X73647749Y-109344556D01*
X73658390Y-109352287D01*
X73774607Y-109411503D01*
X73840776Y-109445218D01*
X73840778Y-109445218D01*
X73840781Y-109445220D01*
X73945137Y-109479127D01*
X74035465Y-109508477D01*
X74136557Y-109524488D01*
X74237648Y-109540500D01*
X74237649Y-109540500D01*
X74442351Y-109540500D01*
X74442352Y-109540500D01*
X74644534Y-109508477D01*
X74839219Y-109445220D01*
X75021610Y-109352287D01*
X75114590Y-109284732D01*
X75187213Y-109231971D01*
X75187215Y-109231968D01*
X75187219Y-109231966D01*
X75331966Y-109087219D01*
X75331968Y-109087215D01*
X75331971Y-109087213D01*
X75452284Y-108921614D01*
X75452285Y-108921613D01*
X75452287Y-108921610D01*
X75499516Y-108828917D01*
X75547489Y-108778123D01*
X75615310Y-108761328D01*
X75681445Y-108783865D01*
X75720485Y-108828919D01*
X75767715Y-108921614D01*
X75888028Y-109087213D01*
X76032786Y-109231971D01*
X76187749Y-109344556D01*
X76198390Y-109352287D01*
X76314607Y-109411503D01*
X76380776Y-109445218D01*
X76380778Y-109445218D01*
X76380781Y-109445220D01*
X76485137Y-109479127D01*
X76575465Y-109508477D01*
X76676557Y-109524488D01*
X76777648Y-109540500D01*
X76777649Y-109540500D01*
X76982351Y-109540500D01*
X76982352Y-109540500D01*
X77184534Y-109508477D01*
X77379219Y-109445220D01*
X77561610Y-109352287D01*
X77654590Y-109284732D01*
X77727213Y-109231971D01*
X77727215Y-109231968D01*
X77727219Y-109231966D01*
X77871966Y-109087219D01*
X77871968Y-109087215D01*
X77871971Y-109087213D01*
X77992284Y-108921614D01*
X77992285Y-108921613D01*
X77992287Y-108921610D01*
X78039516Y-108828917D01*
X78087489Y-108778123D01*
X78155310Y-108761328D01*
X78221445Y-108783865D01*
X78260485Y-108828919D01*
X78307715Y-108921614D01*
X78428028Y-109087213D01*
X78572786Y-109231971D01*
X78727749Y-109344556D01*
X78738390Y-109352287D01*
X78854607Y-109411503D01*
X78920776Y-109445218D01*
X78920778Y-109445218D01*
X78920781Y-109445220D01*
X79025137Y-109479127D01*
X79115465Y-109508477D01*
X79216557Y-109524488D01*
X79317648Y-109540500D01*
X79317649Y-109540500D01*
X79522351Y-109540500D01*
X79522352Y-109540500D01*
X79724534Y-109508477D01*
X79919219Y-109445220D01*
X80101610Y-109352287D01*
X80194590Y-109284732D01*
X80267213Y-109231971D01*
X80267215Y-109231968D01*
X80267219Y-109231966D01*
X80411966Y-109087219D01*
X80411968Y-109087215D01*
X80411971Y-109087213D01*
X80532284Y-108921614D01*
X80532285Y-108921613D01*
X80532287Y-108921610D01*
X80579516Y-108828917D01*
X80627489Y-108778123D01*
X80695310Y-108761328D01*
X80761445Y-108783865D01*
X80800485Y-108828919D01*
X80847715Y-108921614D01*
X80968028Y-109087213D01*
X81112786Y-109231971D01*
X81267749Y-109344556D01*
X81278390Y-109352287D01*
X81394607Y-109411503D01*
X81460776Y-109445218D01*
X81460778Y-109445218D01*
X81460781Y-109445220D01*
X81565137Y-109479127D01*
X81655465Y-109508477D01*
X81756557Y-109524488D01*
X81857648Y-109540500D01*
X81857649Y-109540500D01*
X82062351Y-109540500D01*
X82062352Y-109540500D01*
X82264534Y-109508477D01*
X82459219Y-109445220D01*
X82641610Y-109352287D01*
X82734590Y-109284732D01*
X82807213Y-109231971D01*
X82807215Y-109231968D01*
X82807219Y-109231966D01*
X82951966Y-109087219D01*
X82951968Y-109087215D01*
X82951971Y-109087213D01*
X83072284Y-108921614D01*
X83072285Y-108921613D01*
X83072287Y-108921610D01*
X83119516Y-108828917D01*
X83167489Y-108778123D01*
X83235310Y-108761328D01*
X83301445Y-108783865D01*
X83340485Y-108828919D01*
X83387715Y-108921614D01*
X83508028Y-109087213D01*
X83652786Y-109231971D01*
X83807749Y-109344556D01*
X83818390Y-109352287D01*
X83934607Y-109411503D01*
X84000776Y-109445218D01*
X84000778Y-109445218D01*
X84000781Y-109445220D01*
X84105137Y-109479127D01*
X84195465Y-109508477D01*
X84296557Y-109524488D01*
X84397648Y-109540500D01*
X84397649Y-109540500D01*
X84602351Y-109540500D01*
X84602352Y-109540500D01*
X84804534Y-109508477D01*
X84999219Y-109445220D01*
X85181610Y-109352287D01*
X85274590Y-109284732D01*
X85347213Y-109231971D01*
X85347215Y-109231968D01*
X85347219Y-109231966D01*
X85491966Y-109087219D01*
X85491968Y-109087215D01*
X85491971Y-109087213D01*
X85612284Y-108921614D01*
X85612285Y-108921613D01*
X85612287Y-108921610D01*
X85659516Y-108828917D01*
X85707489Y-108778123D01*
X85775310Y-108761328D01*
X85841445Y-108783865D01*
X85880485Y-108828919D01*
X85927715Y-108921614D01*
X86048028Y-109087213D01*
X86192786Y-109231971D01*
X86347749Y-109344556D01*
X86358390Y-109352287D01*
X86474607Y-109411503D01*
X86540776Y-109445218D01*
X86540778Y-109445218D01*
X86540781Y-109445220D01*
X86645137Y-109479127D01*
X86735465Y-109508477D01*
X86836557Y-109524488D01*
X86937648Y-109540500D01*
X86937649Y-109540500D01*
X87142351Y-109540500D01*
X87142352Y-109540500D01*
X87344534Y-109508477D01*
X87539219Y-109445220D01*
X87721610Y-109352287D01*
X87814590Y-109284732D01*
X87887213Y-109231971D01*
X87887215Y-109231968D01*
X87887219Y-109231966D01*
X88031966Y-109087219D01*
X88031968Y-109087215D01*
X88031971Y-109087213D01*
X88152284Y-108921614D01*
X88152285Y-108921613D01*
X88152287Y-108921610D01*
X88199516Y-108828917D01*
X88247489Y-108778123D01*
X88315310Y-108761328D01*
X88381445Y-108783865D01*
X88420485Y-108828919D01*
X88467715Y-108921614D01*
X88588028Y-109087213D01*
X88732786Y-109231971D01*
X88887749Y-109344556D01*
X88898390Y-109352287D01*
X89014607Y-109411503D01*
X89080776Y-109445218D01*
X89080778Y-109445218D01*
X89080781Y-109445220D01*
X89185137Y-109479127D01*
X89275465Y-109508477D01*
X89376557Y-109524488D01*
X89477648Y-109540500D01*
X89477649Y-109540500D01*
X89682351Y-109540500D01*
X89682352Y-109540500D01*
X89884534Y-109508477D01*
X90079219Y-109445220D01*
X90261610Y-109352287D01*
X90354590Y-109284732D01*
X90427213Y-109231971D01*
X90427215Y-109231968D01*
X90427219Y-109231966D01*
X90571966Y-109087219D01*
X90571968Y-109087215D01*
X90571971Y-109087213D01*
X90692284Y-108921614D01*
X90692285Y-108921613D01*
X90692287Y-108921610D01*
X90739516Y-108828917D01*
X90787489Y-108778123D01*
X90855310Y-108761328D01*
X90921445Y-108783865D01*
X90960485Y-108828919D01*
X91007715Y-108921614D01*
X91128028Y-109087213D01*
X91272786Y-109231971D01*
X91427749Y-109344556D01*
X91438390Y-109352287D01*
X91554607Y-109411503D01*
X91620776Y-109445218D01*
X91620778Y-109445218D01*
X91620781Y-109445220D01*
X91725137Y-109479127D01*
X91815465Y-109508477D01*
X91916557Y-109524488D01*
X92017648Y-109540500D01*
X92017649Y-109540500D01*
X92222351Y-109540500D01*
X92222352Y-109540500D01*
X92424534Y-109508477D01*
X92619219Y-109445220D01*
X92801610Y-109352287D01*
X92894590Y-109284732D01*
X92967213Y-109231971D01*
X92967215Y-109231968D01*
X92967219Y-109231966D01*
X93111966Y-109087219D01*
X93111968Y-109087215D01*
X93111971Y-109087213D01*
X93232284Y-108921614D01*
X93232285Y-108921613D01*
X93232287Y-108921610D01*
X93279516Y-108828917D01*
X93327489Y-108778123D01*
X93395310Y-108761328D01*
X93461445Y-108783865D01*
X93500485Y-108828919D01*
X93547715Y-108921614D01*
X93668028Y-109087213D01*
X93812786Y-109231971D01*
X93967749Y-109344556D01*
X93978390Y-109352287D01*
X94094607Y-109411503D01*
X94160776Y-109445218D01*
X94160778Y-109445218D01*
X94160781Y-109445220D01*
X94265137Y-109479127D01*
X94355465Y-109508477D01*
X94456557Y-109524488D01*
X94557648Y-109540500D01*
X94557649Y-109540500D01*
X94762351Y-109540500D01*
X94762352Y-109540500D01*
X94964534Y-109508477D01*
X95159219Y-109445220D01*
X95341610Y-109352287D01*
X95434590Y-109284732D01*
X95507213Y-109231971D01*
X95507215Y-109231968D01*
X95507219Y-109231966D01*
X95651966Y-109087219D01*
X95651968Y-109087215D01*
X95651971Y-109087213D01*
X95772284Y-108921614D01*
X95772285Y-108921613D01*
X95772287Y-108921610D01*
X95819516Y-108828917D01*
X95867489Y-108778123D01*
X95935310Y-108761328D01*
X96001445Y-108783865D01*
X96040485Y-108828919D01*
X96087715Y-108921614D01*
X96208028Y-109087213D01*
X96352786Y-109231971D01*
X96507749Y-109344556D01*
X96518390Y-109352287D01*
X96634607Y-109411503D01*
X96700776Y-109445218D01*
X96700778Y-109445218D01*
X96700781Y-109445220D01*
X96805137Y-109479127D01*
X96895465Y-109508477D01*
X96996557Y-109524488D01*
X97097648Y-109540500D01*
X97097649Y-109540500D01*
X97302351Y-109540500D01*
X97302352Y-109540500D01*
X97504534Y-109508477D01*
X97699219Y-109445220D01*
X97881610Y-109352287D01*
X97974590Y-109284732D01*
X98047213Y-109231971D01*
X98047215Y-109231968D01*
X98047219Y-109231966D01*
X98191966Y-109087219D01*
X98191968Y-109087215D01*
X98191971Y-109087213D01*
X98244732Y-109014590D01*
X98312287Y-108921610D01*
X98405220Y-108739219D01*
X98468477Y-108544534D01*
X98500500Y-108342352D01*
X98500500Y-108137648D01*
X98468477Y-107935466D01*
X98405220Y-107740781D01*
X98405218Y-107740778D01*
X98405218Y-107740776D01*
X98359515Y-107651080D01*
X98312287Y-107558390D01*
X98304556Y-107547749D01*
X98191971Y-107392786D01*
X98047213Y-107248028D01*
X97881613Y-107127715D01*
X97881612Y-107127714D01*
X97881610Y-107127713D01*
X97824653Y-107098691D01*
X97699223Y-107034781D01*
X97504534Y-106971522D01*
X97329995Y-106943878D01*
X97302352Y-106939500D01*
X97097648Y-106939500D01*
X97073329Y-106943351D01*
X96895465Y-106971522D01*
X96700776Y-107034781D01*
X96518386Y-107127715D01*
X96352786Y-107248028D01*
X96208028Y-107392786D01*
X96087715Y-107558386D01*
X96040485Y-107651080D01*
X95992510Y-107701876D01*
X95924689Y-107718671D01*
X95858554Y-107696134D01*
X95819515Y-107651080D01*
X95818883Y-107649840D01*
X95772287Y-107558390D01*
X95764556Y-107547749D01*
X95651971Y-107392786D01*
X95507213Y-107248028D01*
X95341613Y-107127715D01*
X95341612Y-107127714D01*
X95341610Y-107127713D01*
X95284653Y-107098691D01*
X95159223Y-107034781D01*
X94964534Y-106971522D01*
X94789995Y-106943878D01*
X94762352Y-106939500D01*
X94557648Y-106939500D01*
X94533329Y-106943351D01*
X94355465Y-106971522D01*
X94160776Y-107034781D01*
X93978386Y-107127715D01*
X93812786Y-107248028D01*
X93668028Y-107392786D01*
X93547715Y-107558386D01*
X93500485Y-107651080D01*
X93452510Y-107701876D01*
X93384689Y-107718671D01*
X93318554Y-107696134D01*
X93279515Y-107651080D01*
X93278883Y-107649840D01*
X93232287Y-107558390D01*
X93224556Y-107547749D01*
X93111971Y-107392786D01*
X92967213Y-107248028D01*
X92801613Y-107127715D01*
X92801612Y-107127714D01*
X92801610Y-107127713D01*
X92744653Y-107098691D01*
X92619223Y-107034781D01*
X92424534Y-106971522D01*
X92249995Y-106943878D01*
X92222352Y-106939500D01*
X92017648Y-106939500D01*
X91993329Y-106943351D01*
X91815465Y-106971522D01*
X91620776Y-107034781D01*
X91438386Y-107127715D01*
X91272786Y-107248028D01*
X91128028Y-107392786D01*
X91007715Y-107558386D01*
X90960485Y-107651080D01*
X90912510Y-107701876D01*
X90844689Y-107718671D01*
X90778554Y-107696134D01*
X90739515Y-107651080D01*
X90738883Y-107649840D01*
X90692287Y-107558390D01*
X90684556Y-107547749D01*
X90571971Y-107392786D01*
X90427213Y-107248028D01*
X90261613Y-107127715D01*
X90261612Y-107127714D01*
X90261610Y-107127713D01*
X90204653Y-107098691D01*
X90079223Y-107034781D01*
X89884534Y-106971522D01*
X89709995Y-106943878D01*
X89682352Y-106939500D01*
X89477648Y-106939500D01*
X89453329Y-106943351D01*
X89275465Y-106971522D01*
X89080776Y-107034781D01*
X88898386Y-107127715D01*
X88732786Y-107248028D01*
X88588028Y-107392786D01*
X88467715Y-107558386D01*
X88420485Y-107651080D01*
X88372510Y-107701876D01*
X88304689Y-107718671D01*
X88238554Y-107696134D01*
X88199515Y-107651080D01*
X88198883Y-107649840D01*
X88152287Y-107558390D01*
X88144556Y-107547749D01*
X88031971Y-107392786D01*
X87887213Y-107248028D01*
X87721613Y-107127715D01*
X87721612Y-107127714D01*
X87721610Y-107127713D01*
X87664653Y-107098691D01*
X87539223Y-107034781D01*
X87344534Y-106971522D01*
X87169995Y-106943878D01*
X87142352Y-106939500D01*
X86937648Y-106939500D01*
X86913329Y-106943351D01*
X86735465Y-106971522D01*
X86540776Y-107034781D01*
X86358386Y-107127715D01*
X86192786Y-107248028D01*
X86048028Y-107392786D01*
X85927715Y-107558386D01*
X85880485Y-107651080D01*
X85832510Y-107701876D01*
X85764689Y-107718671D01*
X85698554Y-107696134D01*
X85659515Y-107651080D01*
X85658883Y-107649840D01*
X85612287Y-107558390D01*
X85604556Y-107547749D01*
X85491971Y-107392786D01*
X85347213Y-107248028D01*
X85181613Y-107127715D01*
X85181612Y-107127714D01*
X85181610Y-107127713D01*
X85124653Y-107098691D01*
X84999223Y-107034781D01*
X84804534Y-106971522D01*
X84629995Y-106943878D01*
X84602352Y-106939500D01*
X84397648Y-106939500D01*
X84373329Y-106943351D01*
X84195465Y-106971522D01*
X84000776Y-107034781D01*
X83818386Y-107127715D01*
X83652786Y-107248028D01*
X83508028Y-107392786D01*
X83387715Y-107558386D01*
X83340485Y-107651080D01*
X83292510Y-107701876D01*
X83224689Y-107718671D01*
X83158554Y-107696134D01*
X83119515Y-107651080D01*
X83118883Y-107649840D01*
X83072287Y-107558390D01*
X83064556Y-107547749D01*
X82951971Y-107392786D01*
X82807213Y-107248028D01*
X82641613Y-107127715D01*
X82641612Y-107127714D01*
X82641610Y-107127713D01*
X82584653Y-107098691D01*
X82459223Y-107034781D01*
X82264534Y-106971522D01*
X82089995Y-106943878D01*
X82062352Y-106939500D01*
X81857648Y-106939500D01*
X81833329Y-106943351D01*
X81655465Y-106971522D01*
X81460776Y-107034781D01*
X81278386Y-107127715D01*
X81112786Y-107248028D01*
X80968028Y-107392786D01*
X80847715Y-107558386D01*
X80800485Y-107651080D01*
X80752510Y-107701876D01*
X80684689Y-107718671D01*
X80618554Y-107696134D01*
X80579515Y-107651080D01*
X80578883Y-107649840D01*
X80532287Y-107558390D01*
X80524556Y-107547749D01*
X80411971Y-107392786D01*
X80267213Y-107248028D01*
X80101613Y-107127715D01*
X80101612Y-107127714D01*
X80101610Y-107127713D01*
X80044653Y-107098691D01*
X79919223Y-107034781D01*
X79724534Y-106971522D01*
X79549995Y-106943878D01*
X79522352Y-106939500D01*
X79317648Y-106939500D01*
X79293329Y-106943351D01*
X79115465Y-106971522D01*
X78920776Y-107034781D01*
X78738386Y-107127715D01*
X78572786Y-107248028D01*
X78428028Y-107392786D01*
X78307715Y-107558386D01*
X78260485Y-107651080D01*
X78212510Y-107701876D01*
X78144689Y-107718671D01*
X78078554Y-107696134D01*
X78039515Y-107651080D01*
X78038883Y-107649840D01*
X77992287Y-107558390D01*
X77984556Y-107547749D01*
X77871971Y-107392786D01*
X77727213Y-107248028D01*
X77561613Y-107127715D01*
X77561612Y-107127714D01*
X77561610Y-107127713D01*
X77504653Y-107098691D01*
X77379223Y-107034781D01*
X77184534Y-106971522D01*
X77009995Y-106943878D01*
X76982352Y-106939500D01*
X76777648Y-106939500D01*
X76753329Y-106943351D01*
X76575465Y-106971522D01*
X76380776Y-107034781D01*
X76198386Y-107127715D01*
X76032786Y-107248028D01*
X75888028Y-107392786D01*
X75767715Y-107558386D01*
X75720485Y-107651080D01*
X75672510Y-107701876D01*
X75604689Y-107718671D01*
X75538554Y-107696134D01*
X75499515Y-107651080D01*
X75498883Y-107649840D01*
X75452287Y-107558390D01*
X75444556Y-107547749D01*
X75331971Y-107392786D01*
X75187213Y-107248028D01*
X75021613Y-107127715D01*
X75021612Y-107127714D01*
X75021610Y-107127713D01*
X74964653Y-107098691D01*
X74839223Y-107034781D01*
X74644534Y-106971522D01*
X74469995Y-106943878D01*
X74442352Y-106939500D01*
X74237648Y-106939500D01*
X74213329Y-106943351D01*
X74035465Y-106971522D01*
X73840776Y-107034781D01*
X73658386Y-107127715D01*
X73492786Y-107248028D01*
X73348028Y-107392786D01*
X73227715Y-107558386D01*
X73180485Y-107651080D01*
X73132510Y-107701876D01*
X73064689Y-107718671D01*
X72998554Y-107696134D01*
X72959515Y-107651080D01*
X72958883Y-107649840D01*
X72912287Y-107558390D01*
X72904556Y-107547749D01*
X72791971Y-107392786D01*
X72647213Y-107248028D01*
X72481613Y-107127715D01*
X72481612Y-107127714D01*
X72481610Y-107127713D01*
X72424653Y-107098691D01*
X72299223Y-107034781D01*
X72104534Y-106971522D01*
X71929995Y-106943878D01*
X71902352Y-106939500D01*
X71697648Y-106939500D01*
X71673329Y-106943351D01*
X71495465Y-106971522D01*
X71300776Y-107034781D01*
X71118386Y-107127715D01*
X70952786Y-107248028D01*
X70808028Y-107392786D01*
X70687715Y-107558386D01*
X70640485Y-107651080D01*
X70592510Y-107701876D01*
X70524689Y-107718671D01*
X70458554Y-107696134D01*
X70419515Y-107651080D01*
X70418883Y-107649840D01*
X70372287Y-107558390D01*
X70364556Y-107547749D01*
X70251971Y-107392786D01*
X70107213Y-107248028D01*
X69941613Y-107127715D01*
X69941612Y-107127714D01*
X69941610Y-107127713D01*
X69884653Y-107098691D01*
X69759223Y-107034781D01*
X69564534Y-106971522D01*
X69389995Y-106943878D01*
X69362352Y-106939500D01*
X69157648Y-106939500D01*
X69133329Y-106943351D01*
X68955465Y-106971522D01*
X68760776Y-107034781D01*
X68578386Y-107127715D01*
X68412786Y-107248028D01*
X68268028Y-107392786D01*
X68147715Y-107558386D01*
X68100485Y-107651080D01*
X68052510Y-107701876D01*
X67984689Y-107718671D01*
X67918554Y-107696134D01*
X67879515Y-107651080D01*
X67878883Y-107649840D01*
X67832287Y-107558390D01*
X67824556Y-107547749D01*
X67711971Y-107392786D01*
X67567213Y-107248028D01*
X67401613Y-107127715D01*
X67401612Y-107127714D01*
X67401610Y-107127713D01*
X67344653Y-107098691D01*
X67219223Y-107034781D01*
X67024534Y-106971522D01*
X66849995Y-106943878D01*
X66822352Y-106939500D01*
X66617648Y-106939500D01*
X66593329Y-106943351D01*
X66415465Y-106971522D01*
X66220776Y-107034781D01*
X66038386Y-107127715D01*
X65872786Y-107248028D01*
X65728028Y-107392786D01*
X65607715Y-107558386D01*
X65560485Y-107651080D01*
X65512510Y-107701876D01*
X65444689Y-107718671D01*
X65378554Y-107696134D01*
X65339515Y-107651080D01*
X65338883Y-107649840D01*
X65292287Y-107558390D01*
X65284556Y-107547749D01*
X65171971Y-107392786D01*
X65027213Y-107248028D01*
X64861613Y-107127715D01*
X64861612Y-107127714D01*
X64861610Y-107127713D01*
X64804653Y-107098691D01*
X64679223Y-107034781D01*
X64484534Y-106971522D01*
X64309995Y-106943878D01*
X64282352Y-106939500D01*
X64077648Y-106939500D01*
X64053329Y-106943351D01*
X63875465Y-106971522D01*
X63680776Y-107034781D01*
X63498386Y-107127715D01*
X63332786Y-107248028D01*
X63188028Y-107392786D01*
X63067715Y-107558386D01*
X63020485Y-107651080D01*
X62972510Y-107701876D01*
X62904689Y-107718671D01*
X62838554Y-107696134D01*
X62799515Y-107651080D01*
X62798883Y-107649840D01*
X62752287Y-107558390D01*
X62744556Y-107547749D01*
X62631971Y-107392786D01*
X62487213Y-107248028D01*
X62321613Y-107127715D01*
X62321612Y-107127714D01*
X62321610Y-107127713D01*
X62264653Y-107098691D01*
X62139223Y-107034781D01*
X61944534Y-106971522D01*
X61769995Y-106943878D01*
X61742352Y-106939500D01*
X61537648Y-106939500D01*
X61513329Y-106943351D01*
X61335465Y-106971522D01*
X61140776Y-107034781D01*
X60958386Y-107127715D01*
X60792786Y-107248028D01*
X60648028Y-107392786D01*
X60527715Y-107558386D01*
X60434781Y-107740776D01*
X60371522Y-107935465D01*
X60339500Y-108137648D01*
X43892343Y-108137648D01*
X43892343Y-92897648D01*
X60339500Y-92897648D01*
X60339500Y-93102351D01*
X60371522Y-93304534D01*
X60434781Y-93499223D01*
X60527715Y-93681613D01*
X60648028Y-93847213D01*
X60792786Y-93991971D01*
X60947749Y-94104556D01*
X60958390Y-94112287D01*
X61047212Y-94157544D01*
X61140776Y-94205218D01*
X61140778Y-94205218D01*
X61140781Y-94205220D01*
X61245137Y-94239127D01*
X61335465Y-94268477D01*
X61436557Y-94284488D01*
X61537648Y-94300500D01*
X61537649Y-94300500D01*
X61742351Y-94300500D01*
X61742352Y-94300500D01*
X61944534Y-94268477D01*
X62139219Y-94205220D01*
X62321610Y-94112287D01*
X62417901Y-94042328D01*
X62487213Y-93991971D01*
X62487215Y-93991968D01*
X62487219Y-93991966D01*
X62631966Y-93847219D01*
X62631968Y-93847215D01*
X62631971Y-93847213D01*
X62752284Y-93681614D01*
X62752286Y-93681611D01*
X62752287Y-93681610D01*
X62799516Y-93588917D01*
X62847489Y-93538123D01*
X62915310Y-93521328D01*
X62981445Y-93543865D01*
X63020485Y-93588919D01*
X63067715Y-93681614D01*
X63188028Y-93847213D01*
X63332786Y-93991971D01*
X63487749Y-94104556D01*
X63498390Y-94112287D01*
X63587212Y-94157544D01*
X63680776Y-94205218D01*
X63680778Y-94205218D01*
X63680781Y-94205220D01*
X63785137Y-94239127D01*
X63875465Y-94268477D01*
X63976557Y-94284488D01*
X64077648Y-94300500D01*
X64077649Y-94300500D01*
X64282351Y-94300500D01*
X64282352Y-94300500D01*
X64484534Y-94268477D01*
X64679219Y-94205220D01*
X64861610Y-94112287D01*
X64957901Y-94042328D01*
X65027213Y-93991971D01*
X65027215Y-93991968D01*
X65027219Y-93991966D01*
X65171966Y-93847219D01*
X65171968Y-93847215D01*
X65171971Y-93847213D01*
X65292284Y-93681614D01*
X65292286Y-93681611D01*
X65292287Y-93681610D01*
X65339516Y-93588917D01*
X65387489Y-93538123D01*
X65455310Y-93521328D01*
X65521445Y-93543865D01*
X65560485Y-93588919D01*
X65607715Y-93681614D01*
X65728028Y-93847213D01*
X65872786Y-93991971D01*
X66027749Y-94104556D01*
X66038390Y-94112287D01*
X66127212Y-94157544D01*
X66220776Y-94205218D01*
X66220778Y-94205218D01*
X66220781Y-94205220D01*
X66325137Y-94239127D01*
X66415465Y-94268477D01*
X66516557Y-94284488D01*
X66617648Y-94300500D01*
X66617649Y-94300500D01*
X66822351Y-94300500D01*
X66822352Y-94300500D01*
X67024534Y-94268477D01*
X67219219Y-94205220D01*
X67401610Y-94112287D01*
X67497901Y-94042328D01*
X67567213Y-93991971D01*
X67567215Y-93991968D01*
X67567219Y-93991966D01*
X67711966Y-93847219D01*
X67711968Y-93847215D01*
X67711971Y-93847213D01*
X67832284Y-93681614D01*
X67832286Y-93681611D01*
X67832287Y-93681610D01*
X67879516Y-93588917D01*
X67927489Y-93538123D01*
X67995310Y-93521328D01*
X68061445Y-93543865D01*
X68100485Y-93588919D01*
X68147715Y-93681614D01*
X68268028Y-93847213D01*
X68412786Y-93991971D01*
X68567749Y-94104556D01*
X68578390Y-94112287D01*
X68667212Y-94157544D01*
X68760776Y-94205218D01*
X68760778Y-94205218D01*
X68760781Y-94205220D01*
X68865137Y-94239127D01*
X68955465Y-94268477D01*
X69056557Y-94284488D01*
X69157648Y-94300500D01*
X69157649Y-94300500D01*
X69362351Y-94300500D01*
X69362352Y-94300500D01*
X69564534Y-94268477D01*
X69759219Y-94205220D01*
X69941610Y-94112287D01*
X70037901Y-94042328D01*
X70107213Y-93991971D01*
X70107215Y-93991968D01*
X70107219Y-93991966D01*
X70251966Y-93847219D01*
X70251968Y-93847215D01*
X70251971Y-93847213D01*
X70372284Y-93681614D01*
X70372286Y-93681611D01*
X70372287Y-93681610D01*
X70419516Y-93588917D01*
X70467489Y-93538123D01*
X70535310Y-93521328D01*
X70601445Y-93543865D01*
X70640485Y-93588919D01*
X70687715Y-93681614D01*
X70808028Y-93847213D01*
X70952786Y-93991971D01*
X71107749Y-94104556D01*
X71118390Y-94112287D01*
X71207212Y-94157544D01*
X71300776Y-94205218D01*
X71300778Y-94205218D01*
X71300781Y-94205220D01*
X71405137Y-94239127D01*
X71495465Y-94268477D01*
X71596557Y-94284488D01*
X71697648Y-94300500D01*
X71697649Y-94300500D01*
X71902351Y-94300500D01*
X71902352Y-94300500D01*
X72104534Y-94268477D01*
X72299219Y-94205220D01*
X72481610Y-94112287D01*
X72577901Y-94042328D01*
X72647213Y-93991971D01*
X72647215Y-93991968D01*
X72647219Y-93991966D01*
X72791966Y-93847219D01*
X72791968Y-93847215D01*
X72791971Y-93847213D01*
X72912284Y-93681614D01*
X72912286Y-93681611D01*
X72912287Y-93681610D01*
X72959516Y-93588917D01*
X73007489Y-93538123D01*
X73075310Y-93521328D01*
X73141445Y-93543865D01*
X73180485Y-93588919D01*
X73227715Y-93681614D01*
X73348028Y-93847213D01*
X73492786Y-93991971D01*
X73647749Y-94104556D01*
X73658390Y-94112287D01*
X73747212Y-94157544D01*
X73840776Y-94205218D01*
X73840778Y-94205218D01*
X73840781Y-94205220D01*
X73945137Y-94239127D01*
X74035465Y-94268477D01*
X74136557Y-94284488D01*
X74237648Y-94300500D01*
X74237649Y-94300500D01*
X74442351Y-94300500D01*
X74442352Y-94300500D01*
X74644534Y-94268477D01*
X74839219Y-94205220D01*
X75021610Y-94112287D01*
X75117901Y-94042328D01*
X75187213Y-93991971D01*
X75187215Y-93991968D01*
X75187219Y-93991966D01*
X75331966Y-93847219D01*
X75331968Y-93847215D01*
X75331971Y-93847213D01*
X75452284Y-93681614D01*
X75452286Y-93681611D01*
X75452287Y-93681610D01*
X75499516Y-93588917D01*
X75547489Y-93538123D01*
X75615310Y-93521328D01*
X75681445Y-93543865D01*
X75720485Y-93588919D01*
X75767715Y-93681614D01*
X75888028Y-93847213D01*
X76032786Y-93991971D01*
X76187749Y-94104556D01*
X76198390Y-94112287D01*
X76287212Y-94157544D01*
X76380776Y-94205218D01*
X76380778Y-94205218D01*
X76380781Y-94205220D01*
X76485137Y-94239127D01*
X76575465Y-94268477D01*
X76676557Y-94284488D01*
X76777648Y-94300500D01*
X76777649Y-94300500D01*
X76982351Y-94300500D01*
X76982352Y-94300500D01*
X77184534Y-94268477D01*
X77379219Y-94205220D01*
X77561610Y-94112287D01*
X77657901Y-94042328D01*
X77727213Y-93991971D01*
X77727215Y-93991968D01*
X77727219Y-93991966D01*
X77871966Y-93847219D01*
X77871968Y-93847215D01*
X77871971Y-93847213D01*
X77992284Y-93681614D01*
X77992286Y-93681611D01*
X77992287Y-93681610D01*
X78039516Y-93588917D01*
X78087489Y-93538123D01*
X78155310Y-93521328D01*
X78221445Y-93543865D01*
X78260485Y-93588919D01*
X78307715Y-93681614D01*
X78428028Y-93847213D01*
X78572786Y-93991971D01*
X78727749Y-94104556D01*
X78738390Y-94112287D01*
X78827212Y-94157544D01*
X78920776Y-94205218D01*
X78920778Y-94205218D01*
X78920781Y-94205220D01*
X79025137Y-94239127D01*
X79115465Y-94268477D01*
X79216557Y-94284488D01*
X79317648Y-94300500D01*
X79317649Y-94300500D01*
X79522351Y-94300500D01*
X79522352Y-94300500D01*
X79724534Y-94268477D01*
X79919219Y-94205220D01*
X80101610Y-94112287D01*
X80197901Y-94042328D01*
X80267213Y-93991971D01*
X80267215Y-93991968D01*
X80267219Y-93991966D01*
X80411966Y-93847219D01*
X80411968Y-93847215D01*
X80411971Y-93847213D01*
X80532284Y-93681614D01*
X80532286Y-93681611D01*
X80532287Y-93681610D01*
X80579516Y-93588917D01*
X80627489Y-93538123D01*
X80695310Y-93521328D01*
X80761445Y-93543865D01*
X80800485Y-93588919D01*
X80847715Y-93681614D01*
X80968028Y-93847213D01*
X81112786Y-93991971D01*
X81267749Y-94104556D01*
X81278390Y-94112287D01*
X81367212Y-94157544D01*
X81460776Y-94205218D01*
X81460778Y-94205218D01*
X81460781Y-94205220D01*
X81565137Y-94239127D01*
X81655465Y-94268477D01*
X81756557Y-94284488D01*
X81857648Y-94300500D01*
X81857649Y-94300500D01*
X82062351Y-94300500D01*
X82062352Y-94300500D01*
X82264534Y-94268477D01*
X82459219Y-94205220D01*
X82641610Y-94112287D01*
X82737901Y-94042328D01*
X82807213Y-93991971D01*
X82807215Y-93991968D01*
X82807219Y-93991966D01*
X82951966Y-93847219D01*
X82951968Y-93847215D01*
X82951971Y-93847213D01*
X83072284Y-93681614D01*
X83072286Y-93681611D01*
X83072287Y-93681610D01*
X83119516Y-93588917D01*
X83167489Y-93538123D01*
X83235310Y-93521328D01*
X83301445Y-93543865D01*
X83340485Y-93588919D01*
X83387715Y-93681614D01*
X83508028Y-93847213D01*
X83652786Y-93991971D01*
X83807749Y-94104556D01*
X83818390Y-94112287D01*
X83907212Y-94157544D01*
X84000776Y-94205218D01*
X84000778Y-94205218D01*
X84000781Y-94205220D01*
X84105137Y-94239127D01*
X84195465Y-94268477D01*
X84296557Y-94284488D01*
X84397648Y-94300500D01*
X84397649Y-94300500D01*
X84602351Y-94300500D01*
X84602352Y-94300500D01*
X84804534Y-94268477D01*
X84999219Y-94205220D01*
X85181610Y-94112287D01*
X85277901Y-94042328D01*
X85347213Y-93991971D01*
X85347215Y-93991968D01*
X85347219Y-93991966D01*
X85491966Y-93847219D01*
X85491968Y-93847215D01*
X85491971Y-93847213D01*
X85612284Y-93681614D01*
X85612286Y-93681611D01*
X85612287Y-93681610D01*
X85659516Y-93588917D01*
X85707489Y-93538123D01*
X85775310Y-93521328D01*
X85841445Y-93543865D01*
X85880485Y-93588919D01*
X85927715Y-93681614D01*
X86048028Y-93847213D01*
X86192786Y-93991971D01*
X86347749Y-94104556D01*
X86358390Y-94112287D01*
X86447212Y-94157544D01*
X86540776Y-94205218D01*
X86540778Y-94205218D01*
X86540781Y-94205220D01*
X86645137Y-94239127D01*
X86735465Y-94268477D01*
X86836557Y-94284488D01*
X86937648Y-94300500D01*
X86937649Y-94300500D01*
X87142351Y-94300500D01*
X87142352Y-94300500D01*
X87344534Y-94268477D01*
X87539219Y-94205220D01*
X87721610Y-94112287D01*
X87817901Y-94042328D01*
X87887213Y-93991971D01*
X87887215Y-93991968D01*
X87887219Y-93991966D01*
X88031966Y-93847219D01*
X88031968Y-93847215D01*
X88031971Y-93847213D01*
X88152284Y-93681614D01*
X88152286Y-93681611D01*
X88152287Y-93681610D01*
X88199795Y-93588369D01*
X88247770Y-93537574D01*
X88315591Y-93520779D01*
X88381725Y-93543316D01*
X88420765Y-93588370D01*
X88468140Y-93681349D01*
X88588417Y-93846894D01*
X88588417Y-93846895D01*
X88733104Y-93991582D01*
X88898650Y-94111859D01*
X89080968Y-94204754D01*
X89275578Y-94267988D01*
X89330000Y-94276607D01*
X89330000Y-93433012D01*
X89387007Y-93465925D01*
X89514174Y-93500000D01*
X89645826Y-93500000D01*
X89772993Y-93465925D01*
X89830000Y-93433012D01*
X89830000Y-94276606D01*
X89884421Y-94267988D01*
X90079031Y-94204754D01*
X90261349Y-94111859D01*
X90426894Y-93991582D01*
X90426895Y-93991582D01*
X90571582Y-93846895D01*
X90571582Y-93846894D01*
X90691861Y-93681347D01*
X90739234Y-93588371D01*
X90787208Y-93537575D01*
X90855028Y-93520779D01*
X90921164Y-93543316D01*
X90960203Y-93588369D01*
X91007713Y-93681611D01*
X91128028Y-93847213D01*
X91272786Y-93991971D01*
X91427749Y-94104556D01*
X91438390Y-94112287D01*
X91527212Y-94157544D01*
X91620776Y-94205218D01*
X91620778Y-94205218D01*
X91620781Y-94205220D01*
X91725137Y-94239127D01*
X91815465Y-94268477D01*
X91916557Y-94284488D01*
X92017648Y-94300500D01*
X92017649Y-94300500D01*
X92222351Y-94300500D01*
X92222352Y-94300500D01*
X92424534Y-94268477D01*
X92619219Y-94205220D01*
X92801610Y-94112287D01*
X92897901Y-94042328D01*
X92967213Y-93991971D01*
X92967215Y-93991968D01*
X92967219Y-93991966D01*
X93111966Y-93847219D01*
X93111968Y-93847215D01*
X93111971Y-93847213D01*
X93232284Y-93681614D01*
X93232286Y-93681611D01*
X93232287Y-93681610D01*
X93279516Y-93588917D01*
X93327489Y-93538123D01*
X93395310Y-93521328D01*
X93461445Y-93543865D01*
X93500485Y-93588919D01*
X93547715Y-93681614D01*
X93668028Y-93847213D01*
X93812786Y-93991971D01*
X93967749Y-94104556D01*
X93978390Y-94112287D01*
X94067212Y-94157544D01*
X94160776Y-94205218D01*
X94160778Y-94205218D01*
X94160781Y-94205220D01*
X94265137Y-94239127D01*
X94355465Y-94268477D01*
X94456557Y-94284488D01*
X94557648Y-94300500D01*
X94557649Y-94300500D01*
X94762351Y-94300500D01*
X94762352Y-94300500D01*
X94964534Y-94268477D01*
X95159219Y-94205220D01*
X95341610Y-94112287D01*
X95437901Y-94042328D01*
X95507213Y-93991971D01*
X95507215Y-93991968D01*
X95507219Y-93991966D01*
X95651966Y-93847219D01*
X95678330Y-93810930D01*
X95733658Y-93768265D01*
X95803271Y-93762284D01*
X95865067Y-93794889D01*
X95899426Y-93855726D01*
X95901938Y-93870559D01*
X95905907Y-93907480D01*
X95956202Y-94042328D01*
X95956206Y-94042335D01*
X96042452Y-94157544D01*
X96042455Y-94157547D01*
X96157664Y-94243793D01*
X96157671Y-94243797D01*
X96292517Y-94294091D01*
X96292516Y-94294091D01*
X96299444Y-94294835D01*
X96352127Y-94300500D01*
X98047872Y-94300499D01*
X98107483Y-94294091D01*
X98242331Y-94243796D01*
X98357546Y-94157546D01*
X98443796Y-94042331D01*
X98494091Y-93907483D01*
X98500500Y-93847873D01*
X98500499Y-92152128D01*
X98494091Y-92092517D01*
X98443796Y-91957669D01*
X98443795Y-91957668D01*
X98443793Y-91957664D01*
X98357547Y-91842455D01*
X98357544Y-91842452D01*
X98242335Y-91756206D01*
X98242328Y-91756202D01*
X98107482Y-91705908D01*
X98107483Y-91705908D01*
X98047883Y-91699501D01*
X98047881Y-91699500D01*
X98047873Y-91699500D01*
X98047864Y-91699500D01*
X96352129Y-91699500D01*
X96352123Y-91699501D01*
X96292516Y-91705908D01*
X96157671Y-91756202D01*
X96157664Y-91756206D01*
X96042455Y-91842452D01*
X96042452Y-91842455D01*
X95956206Y-91957664D01*
X95956202Y-91957671D01*
X95905908Y-92092516D01*
X95901939Y-92129440D01*
X95875201Y-92193991D01*
X95817809Y-92233839D01*
X95747983Y-92236332D01*
X95687895Y-92200679D01*
X95678332Y-92189070D01*
X95651967Y-92152782D01*
X95507213Y-92008028D01*
X95341613Y-91887715D01*
X95341612Y-91887714D01*
X95341610Y-91887713D01*
X95284653Y-91858691D01*
X95159223Y-91794781D01*
X94964534Y-91731522D01*
X94789995Y-91703878D01*
X94762352Y-91699500D01*
X94557648Y-91699500D01*
X94533329Y-91703351D01*
X94355465Y-91731522D01*
X94160776Y-91794781D01*
X93978386Y-91887715D01*
X93812786Y-92008028D01*
X93668028Y-92152786D01*
X93547715Y-92318386D01*
X93500485Y-92411080D01*
X93452510Y-92461876D01*
X93384689Y-92478671D01*
X93318554Y-92456134D01*
X93279515Y-92411080D01*
X93232419Y-92318650D01*
X93232287Y-92318390D01*
X93170858Y-92233839D01*
X93111971Y-92152786D01*
X92967213Y-92008028D01*
X92801613Y-91887715D01*
X92801612Y-91887714D01*
X92801610Y-91887713D01*
X92744653Y-91858691D01*
X92619223Y-91794781D01*
X92424534Y-91731522D01*
X92249995Y-91703878D01*
X92222352Y-91699500D01*
X92017648Y-91699500D01*
X91993329Y-91703351D01*
X91815465Y-91731522D01*
X91620776Y-91794781D01*
X91438386Y-91887715D01*
X91272786Y-92008028D01*
X91128028Y-92152786D01*
X91007713Y-92318388D01*
X90960203Y-92411630D01*
X90912228Y-92462426D01*
X90844407Y-92479220D01*
X90778272Y-92456682D01*
X90739234Y-92411628D01*
X90691861Y-92318652D01*
X90571582Y-92153105D01*
X90571582Y-92153104D01*
X90426895Y-92008417D01*
X90261349Y-91888140D01*
X90079029Y-91795244D01*
X89884413Y-91732009D01*
X89830000Y-91723390D01*
X89830000Y-92566988D01*
X89772993Y-92534075D01*
X89645826Y-92500000D01*
X89514174Y-92500000D01*
X89387007Y-92534075D01*
X89330000Y-92566988D01*
X89330000Y-91723390D01*
X89275586Y-91732009D01*
X89080970Y-91795244D01*
X88898650Y-91888140D01*
X88733105Y-92008417D01*
X88733104Y-92008417D01*
X88588417Y-92153104D01*
X88588417Y-92153105D01*
X88468140Y-92318650D01*
X88420765Y-92411629D01*
X88372790Y-92462425D01*
X88304969Y-92479220D01*
X88238834Y-92456682D01*
X88199795Y-92411629D01*
X88152419Y-92318650D01*
X88152287Y-92318390D01*
X88090858Y-92233839D01*
X88031971Y-92152786D01*
X87887213Y-92008028D01*
X87721613Y-91887715D01*
X87721612Y-91887714D01*
X87721610Y-91887713D01*
X87664653Y-91858691D01*
X87539223Y-91794781D01*
X87344534Y-91731522D01*
X87169995Y-91703878D01*
X87142352Y-91699500D01*
X86937648Y-91699500D01*
X86913329Y-91703351D01*
X86735465Y-91731522D01*
X86540776Y-91794781D01*
X86358386Y-91887715D01*
X86192786Y-92008028D01*
X86048028Y-92152786D01*
X85927715Y-92318386D01*
X85880485Y-92411080D01*
X85832510Y-92461876D01*
X85764689Y-92478671D01*
X85698554Y-92456134D01*
X85659515Y-92411080D01*
X85612419Y-92318650D01*
X85612287Y-92318390D01*
X85550858Y-92233839D01*
X85491971Y-92152786D01*
X85347213Y-92008028D01*
X85181613Y-91887715D01*
X85181612Y-91887714D01*
X85181610Y-91887713D01*
X85124653Y-91858691D01*
X84999223Y-91794781D01*
X84804534Y-91731522D01*
X84629995Y-91703878D01*
X84602352Y-91699500D01*
X84397648Y-91699500D01*
X84373329Y-91703351D01*
X84195465Y-91731522D01*
X84000776Y-91794781D01*
X83818386Y-91887715D01*
X83652786Y-92008028D01*
X83508028Y-92152786D01*
X83387715Y-92318386D01*
X83340485Y-92411080D01*
X83292510Y-92461876D01*
X83224689Y-92478671D01*
X83158554Y-92456134D01*
X83119515Y-92411080D01*
X83072419Y-92318650D01*
X83072287Y-92318390D01*
X83010858Y-92233839D01*
X82951971Y-92152786D01*
X82807213Y-92008028D01*
X82641613Y-91887715D01*
X82641612Y-91887714D01*
X82641610Y-91887713D01*
X82584653Y-91858691D01*
X82459223Y-91794781D01*
X82264534Y-91731522D01*
X82089995Y-91703878D01*
X82062352Y-91699500D01*
X81857648Y-91699500D01*
X81833329Y-91703351D01*
X81655465Y-91731522D01*
X81460776Y-91794781D01*
X81278386Y-91887715D01*
X81112786Y-92008028D01*
X80968028Y-92152786D01*
X80847715Y-92318386D01*
X80800485Y-92411080D01*
X80752510Y-92461876D01*
X80684689Y-92478671D01*
X80618554Y-92456134D01*
X80579515Y-92411080D01*
X80532419Y-92318650D01*
X80532287Y-92318390D01*
X80470858Y-92233839D01*
X80411971Y-92152786D01*
X80267213Y-92008028D01*
X80101613Y-91887715D01*
X80101612Y-91887714D01*
X80101610Y-91887713D01*
X80044653Y-91858691D01*
X79919223Y-91794781D01*
X79724534Y-91731522D01*
X79549995Y-91703878D01*
X79522352Y-91699500D01*
X79317648Y-91699500D01*
X79293329Y-91703351D01*
X79115465Y-91731522D01*
X78920776Y-91794781D01*
X78738386Y-91887715D01*
X78572786Y-92008028D01*
X78428028Y-92152786D01*
X78307715Y-92318386D01*
X78260485Y-92411080D01*
X78212510Y-92461876D01*
X78144689Y-92478671D01*
X78078554Y-92456134D01*
X78039515Y-92411080D01*
X77992419Y-92318650D01*
X77992287Y-92318390D01*
X77930858Y-92233839D01*
X77871971Y-92152786D01*
X77727213Y-92008028D01*
X77561613Y-91887715D01*
X77561612Y-91887714D01*
X77561610Y-91887713D01*
X77504653Y-91858691D01*
X77379223Y-91794781D01*
X77184534Y-91731522D01*
X77009995Y-91703878D01*
X76982352Y-91699500D01*
X76777648Y-91699500D01*
X76753329Y-91703351D01*
X76575465Y-91731522D01*
X76380776Y-91794781D01*
X76198386Y-91887715D01*
X76032786Y-92008028D01*
X75888028Y-92152786D01*
X75767715Y-92318386D01*
X75720485Y-92411080D01*
X75672510Y-92461876D01*
X75604689Y-92478671D01*
X75538554Y-92456134D01*
X75499515Y-92411080D01*
X75452419Y-92318650D01*
X75452287Y-92318390D01*
X75390858Y-92233839D01*
X75331971Y-92152786D01*
X75187213Y-92008028D01*
X75021613Y-91887715D01*
X75021612Y-91887714D01*
X75021610Y-91887713D01*
X74964653Y-91858691D01*
X74839223Y-91794781D01*
X74644534Y-91731522D01*
X74469995Y-91703878D01*
X74442352Y-91699500D01*
X74237648Y-91699500D01*
X74213329Y-91703351D01*
X74035465Y-91731522D01*
X73840776Y-91794781D01*
X73658386Y-91887715D01*
X73492786Y-92008028D01*
X73348028Y-92152786D01*
X73227715Y-92318386D01*
X73180485Y-92411080D01*
X73132510Y-92461876D01*
X73064689Y-92478671D01*
X72998554Y-92456134D01*
X72959515Y-92411080D01*
X72912419Y-92318650D01*
X72912287Y-92318390D01*
X72850858Y-92233839D01*
X72791971Y-92152786D01*
X72647213Y-92008028D01*
X72481613Y-91887715D01*
X72481612Y-91887714D01*
X72481610Y-91887713D01*
X72424653Y-91858691D01*
X72299223Y-91794781D01*
X72104534Y-91731522D01*
X71929995Y-91703878D01*
X71902352Y-91699500D01*
X71697648Y-91699500D01*
X71673329Y-91703351D01*
X71495465Y-91731522D01*
X71300776Y-91794781D01*
X71118386Y-91887715D01*
X70952786Y-92008028D01*
X70808028Y-92152786D01*
X70687715Y-92318386D01*
X70640485Y-92411080D01*
X70592510Y-92461876D01*
X70524689Y-92478671D01*
X70458554Y-92456134D01*
X70419515Y-92411080D01*
X70372419Y-92318650D01*
X70372287Y-92318390D01*
X70310858Y-92233839D01*
X70251971Y-92152786D01*
X70107213Y-92008028D01*
X69941613Y-91887715D01*
X69941612Y-91887714D01*
X69941610Y-91887713D01*
X69884653Y-91858691D01*
X69759223Y-91794781D01*
X69564534Y-91731522D01*
X69389995Y-91703878D01*
X69362352Y-91699500D01*
X69157648Y-91699500D01*
X69133329Y-91703351D01*
X68955465Y-91731522D01*
X68760776Y-91794781D01*
X68578386Y-91887715D01*
X68412786Y-92008028D01*
X68268028Y-92152786D01*
X68147715Y-92318386D01*
X68100485Y-92411080D01*
X68052510Y-92461876D01*
X67984689Y-92478671D01*
X67918554Y-92456134D01*
X67879515Y-92411080D01*
X67832419Y-92318650D01*
X67832287Y-92318390D01*
X67770858Y-92233839D01*
X67711971Y-92152786D01*
X67567213Y-92008028D01*
X67401613Y-91887715D01*
X67401612Y-91887714D01*
X67401610Y-91887713D01*
X67344653Y-91858691D01*
X67219223Y-91794781D01*
X67024534Y-91731522D01*
X66849995Y-91703878D01*
X66822352Y-91699500D01*
X66617648Y-91699500D01*
X66593329Y-91703351D01*
X66415465Y-91731522D01*
X66220776Y-91794781D01*
X66038386Y-91887715D01*
X65872786Y-92008028D01*
X65728028Y-92152786D01*
X65607715Y-92318386D01*
X65560485Y-92411080D01*
X65512510Y-92461876D01*
X65444689Y-92478671D01*
X65378554Y-92456134D01*
X65339515Y-92411080D01*
X65292419Y-92318650D01*
X65292287Y-92318390D01*
X65230858Y-92233839D01*
X65171971Y-92152786D01*
X65027213Y-92008028D01*
X64861613Y-91887715D01*
X64861612Y-91887714D01*
X64861610Y-91887713D01*
X64804653Y-91858691D01*
X64679223Y-91794781D01*
X64484534Y-91731522D01*
X64309995Y-91703878D01*
X64282352Y-91699500D01*
X64077648Y-91699500D01*
X64053329Y-91703351D01*
X63875465Y-91731522D01*
X63680776Y-91794781D01*
X63498386Y-91887715D01*
X63332786Y-92008028D01*
X63188028Y-92152786D01*
X63067715Y-92318386D01*
X63020485Y-92411080D01*
X62972510Y-92461876D01*
X62904689Y-92478671D01*
X62838554Y-92456134D01*
X62799515Y-92411080D01*
X62752419Y-92318650D01*
X62752287Y-92318390D01*
X62690858Y-92233839D01*
X62631971Y-92152786D01*
X62487213Y-92008028D01*
X62321613Y-91887715D01*
X62321612Y-91887714D01*
X62321610Y-91887713D01*
X62264653Y-91858691D01*
X62139223Y-91794781D01*
X61944534Y-91731522D01*
X61769995Y-91703878D01*
X61742352Y-91699500D01*
X61537648Y-91699500D01*
X61513329Y-91703351D01*
X61335465Y-91731522D01*
X61140776Y-91794781D01*
X60958386Y-91887715D01*
X60792786Y-92008028D01*
X60648028Y-92152786D01*
X60527715Y-92318386D01*
X60434781Y-92500776D01*
X60371522Y-92695465D01*
X60339500Y-92897648D01*
X43892343Y-92897648D01*
X43892343Y-73482135D01*
X52149500Y-73482135D01*
X52149500Y-75277870D01*
X52149501Y-75277876D01*
X52155908Y-75337483D01*
X52206202Y-75472328D01*
X52206206Y-75472335D01*
X52292452Y-75587544D01*
X52292455Y-75587547D01*
X52407664Y-75673793D01*
X52407671Y-75673797D01*
X52539082Y-75722810D01*
X52595016Y-75764681D01*
X52619433Y-75830145D01*
X52604582Y-75898418D01*
X52583431Y-75926673D01*
X52469889Y-76040215D01*
X52344951Y-76212179D01*
X52248444Y-76401585D01*
X52182753Y-76603760D01*
X52149500Y-76813713D01*
X52149500Y-77026286D01*
X52182753Y-77236239D01*
X52248444Y-77438414D01*
X52344951Y-77627820D01*
X52469890Y-77799786D01*
X52620213Y-77950109D01*
X52792179Y-78075048D01*
X52792181Y-78075049D01*
X52792184Y-78075051D01*
X52801493Y-78079794D01*
X52852290Y-78127766D01*
X52869087Y-78195587D01*
X52846552Y-78261722D01*
X52801505Y-78300760D01*
X52792446Y-78305376D01*
X52792440Y-78305380D01*
X52738282Y-78344727D01*
X52738282Y-78344728D01*
X53370591Y-78977037D01*
X53307007Y-78994075D01*
X53192993Y-79059901D01*
X53099901Y-79152993D01*
X53034075Y-79267007D01*
X53017037Y-79330591D01*
X52384728Y-78698282D01*
X52384727Y-78698282D01*
X52345380Y-78752439D01*
X52248904Y-78941782D01*
X52183242Y-79143869D01*
X52183242Y-79143872D01*
X52150000Y-79353753D01*
X52150000Y-79566246D01*
X52183242Y-79776127D01*
X52183242Y-79776130D01*
X52248904Y-79978217D01*
X52345375Y-80167550D01*
X52384728Y-80221716D01*
X53017037Y-79589408D01*
X53034075Y-79652993D01*
X53099901Y-79767007D01*
X53192993Y-79860099D01*
X53307007Y-79925925D01*
X53370590Y-79942962D01*
X52738282Y-80575269D01*
X52738282Y-80575270D01*
X52792452Y-80614626D01*
X52792451Y-80614626D01*
X52801495Y-80619234D01*
X52852292Y-80667208D01*
X52869087Y-80735029D01*
X52846550Y-80801164D01*
X52801499Y-80840202D01*
X52792182Y-80844949D01*
X52620213Y-80969890D01*
X52469890Y-81120213D01*
X52344951Y-81292179D01*
X52248444Y-81481585D01*
X52182753Y-81683760D01*
X52149500Y-81893713D01*
X52149500Y-82106286D01*
X52178879Y-82291782D01*
X52182754Y-82316243D01*
X52240469Y-82493872D01*
X52248444Y-82518414D01*
X52344951Y-82707820D01*
X52469890Y-82879786D01*
X52620213Y-83030109D01*
X52792179Y-83155048D01*
X52792181Y-83155049D01*
X52792184Y-83155051D01*
X52981588Y-83251557D01*
X53183757Y-83317246D01*
X53393713Y-83350500D01*
X53393714Y-83350500D01*
X53606286Y-83350500D01*
X53606287Y-83350500D01*
X53816243Y-83317246D01*
X54018412Y-83251557D01*
X54207816Y-83155051D01*
X54247627Y-83126127D01*
X54379786Y-83030109D01*
X54379788Y-83030106D01*
X54379792Y-83030104D01*
X54530104Y-82879792D01*
X54530106Y-82879788D01*
X54530109Y-82879786D01*
X54655048Y-82707820D01*
X54655047Y-82707820D01*
X54655051Y-82707816D01*
X54659514Y-82699054D01*
X54707488Y-82648259D01*
X54775308Y-82631463D01*
X54841444Y-82653999D01*
X54880486Y-82699056D01*
X54884951Y-82707820D01*
X55009890Y-82879786D01*
X55160213Y-83030109D01*
X55332179Y-83155048D01*
X55332181Y-83155049D01*
X55332184Y-83155051D01*
X55521588Y-83251557D01*
X55723757Y-83317246D01*
X55933713Y-83350500D01*
X55933714Y-83350500D01*
X56146286Y-83350500D01*
X56146287Y-83350500D01*
X56356243Y-83317246D01*
X56558412Y-83251557D01*
X56747816Y-83155051D01*
X56787627Y-83126127D01*
X56919786Y-83030109D01*
X56919788Y-83030106D01*
X56919792Y-83030104D01*
X57070104Y-82879792D01*
X57070106Y-82879788D01*
X57070109Y-82879786D01*
X57195048Y-82707820D01*
X57195047Y-82707820D01*
X57195051Y-82707816D01*
X57291557Y-82518412D01*
X57357246Y-82316243D01*
X57390500Y-82106287D01*
X57390500Y-81893713D01*
X57357246Y-81683757D01*
X57291557Y-81481588D01*
X57195051Y-81292184D01*
X57195049Y-81292181D01*
X57195048Y-81292179D01*
X57070109Y-81120213D01*
X56919786Y-80969890D01*
X56747817Y-80844949D01*
X56738504Y-80840204D01*
X56687707Y-80792230D01*
X56670912Y-80724409D01*
X56693449Y-80658274D01*
X56738507Y-80619232D01*
X56747555Y-80614622D01*
X56801716Y-80575270D01*
X56801717Y-80575270D01*
X56169408Y-79942962D01*
X56232993Y-79925925D01*
X56347007Y-79860099D01*
X56440099Y-79767007D01*
X56505925Y-79652993D01*
X56522962Y-79589408D01*
X57155270Y-80221717D01*
X57155270Y-80221716D01*
X57194622Y-80167554D01*
X57291095Y-79978217D01*
X57356757Y-79776130D01*
X57356757Y-79776127D01*
X57390000Y-79566246D01*
X57390000Y-79353753D01*
X57356757Y-79143872D01*
X57356757Y-79143869D01*
X57291095Y-78941782D01*
X57194624Y-78752449D01*
X57155270Y-78698282D01*
X57155269Y-78698282D01*
X56522962Y-79330590D01*
X56505925Y-79267007D01*
X56440099Y-79152993D01*
X56347007Y-79059901D01*
X56232993Y-78994075D01*
X56169409Y-78977037D01*
X56801716Y-78344728D01*
X56747547Y-78305373D01*
X56747547Y-78305372D01*
X56738500Y-78300763D01*
X56687706Y-78252788D01*
X56670912Y-78184966D01*
X56693451Y-78118832D01*
X56738508Y-78079793D01*
X56747816Y-78075051D01*
X56827007Y-78017515D01*
X56919786Y-77950109D01*
X56919788Y-77950106D01*
X56919792Y-77950104D01*
X57070104Y-77799792D01*
X57070106Y-77799788D01*
X57070109Y-77799786D01*
X57195048Y-77627820D01*
X57195047Y-77627820D01*
X57195051Y-77627816D01*
X57291557Y-77438412D01*
X57357246Y-77236243D01*
X57390500Y-77026287D01*
X57390500Y-76813713D01*
X57357246Y-76603757D01*
X57291557Y-76401588D01*
X57195051Y-76212184D01*
X57195049Y-76212181D01*
X57195048Y-76212179D01*
X57070109Y-76040213D01*
X56919786Y-75889890D01*
X56747820Y-75764951D01*
X56747115Y-75764591D01*
X56739054Y-75760485D01*
X56688259Y-75712512D01*
X56671463Y-75644692D01*
X56693999Y-75578556D01*
X56739054Y-75539515D01*
X56747816Y-75535051D01*
X56834138Y-75472335D01*
X56919786Y-75410109D01*
X56919788Y-75410106D01*
X56919792Y-75410104D01*
X57070104Y-75259792D01*
X57070106Y-75259788D01*
X57070109Y-75259786D01*
X57195048Y-75087820D01*
X57195047Y-75087820D01*
X57195051Y-75087816D01*
X57291557Y-74898412D01*
X57357246Y-74696243D01*
X57390500Y-74486287D01*
X57390500Y-74292135D01*
X100149500Y-74292135D01*
X100149500Y-76087870D01*
X100149501Y-76087876D01*
X100155908Y-76147483D01*
X100206202Y-76282328D01*
X100206206Y-76282335D01*
X100292452Y-76397544D01*
X100292455Y-76397547D01*
X100407664Y-76483793D01*
X100407671Y-76483797D01*
X100539082Y-76532810D01*
X100595016Y-76574681D01*
X100619433Y-76640145D01*
X100604582Y-76708418D01*
X100583431Y-76736673D01*
X100469889Y-76850215D01*
X100344951Y-77022179D01*
X100248444Y-77211585D01*
X100182753Y-77413760D01*
X100160943Y-77551463D01*
X100149500Y-77623713D01*
X100149500Y-77836287D01*
X100182754Y-78046243D01*
X100223471Y-78171557D01*
X100248444Y-78248414D01*
X100344951Y-78437820D01*
X100469890Y-78609786D01*
X100620213Y-78760109D01*
X100792182Y-78885050D01*
X100800946Y-78889516D01*
X100851742Y-78937491D01*
X100868536Y-79005312D01*
X100845998Y-79071447D01*
X100800946Y-79110484D01*
X100792182Y-79114949D01*
X100620213Y-79239890D01*
X100469890Y-79390213D01*
X100344951Y-79562179D01*
X100248444Y-79751585D01*
X100182753Y-79953760D01*
X100150412Y-80157954D01*
X100149500Y-80163713D01*
X100149500Y-80376287D01*
X100182754Y-80586243D01*
X100235456Y-80748443D01*
X100248444Y-80788414D01*
X100344951Y-80977820D01*
X100469890Y-81149786D01*
X100620213Y-81300109D01*
X100792179Y-81425048D01*
X100792181Y-81425049D01*
X100792184Y-81425051D01*
X100801493Y-81429794D01*
X100852290Y-81477766D01*
X100869087Y-81545587D01*
X100846552Y-81611722D01*
X100801505Y-81650760D01*
X100792446Y-81655376D01*
X100792440Y-81655380D01*
X100738282Y-81694727D01*
X100738282Y-81694728D01*
X101370591Y-82327037D01*
X101307007Y-82344075D01*
X101192993Y-82409901D01*
X101099901Y-82502993D01*
X101034075Y-82617007D01*
X101017037Y-82680591D01*
X100384728Y-82048282D01*
X100384727Y-82048282D01*
X100345380Y-82102439D01*
X100248904Y-82291782D01*
X100183242Y-82493869D01*
X100183242Y-82493872D01*
X100150000Y-82703753D01*
X100150000Y-82916246D01*
X100183242Y-83126127D01*
X100183242Y-83126130D01*
X100248904Y-83328217D01*
X100345375Y-83517550D01*
X100384728Y-83571716D01*
X101017037Y-82939408D01*
X101034075Y-83002993D01*
X101099901Y-83117007D01*
X101192993Y-83210099D01*
X101307007Y-83275925D01*
X101370590Y-83292962D01*
X100738282Y-83925269D01*
X100738282Y-83925270D01*
X100792449Y-83964624D01*
X100981782Y-84061095D01*
X101183870Y-84126757D01*
X101393754Y-84160000D01*
X101606246Y-84160000D01*
X101816127Y-84126757D01*
X101816130Y-84126757D01*
X102018217Y-84061095D01*
X102207554Y-83964622D01*
X102261716Y-83925270D01*
X102261717Y-83925270D01*
X101629408Y-83292962D01*
X101692993Y-83275925D01*
X101807007Y-83210099D01*
X101900099Y-83117007D01*
X101965925Y-83002993D01*
X101982962Y-82939408D01*
X102615270Y-83571717D01*
X102615270Y-83571716D01*
X102654622Y-83517554D01*
X102751095Y-83328217D01*
X102816757Y-83126130D01*
X102816757Y-83126127D01*
X102850000Y-82916246D01*
X102850000Y-82703753D01*
X102816757Y-82493872D01*
X102816757Y-82493869D01*
X102751095Y-82291782D01*
X102654624Y-82102449D01*
X102615270Y-82048282D01*
X102615269Y-82048282D01*
X101982962Y-82680590D01*
X101965925Y-82617007D01*
X101900099Y-82502993D01*
X101807007Y-82409901D01*
X101692993Y-82344075D01*
X101629409Y-82327037D01*
X102261716Y-81694728D01*
X102207547Y-81655373D01*
X102207547Y-81655372D01*
X102198500Y-81650763D01*
X102147706Y-81602788D01*
X102130912Y-81534966D01*
X102153451Y-81468832D01*
X102198508Y-81429793D01*
X102207816Y-81425051D01*
X102316624Y-81345998D01*
X102379786Y-81300109D01*
X102379788Y-81300106D01*
X102379792Y-81300104D01*
X102530104Y-81149792D01*
X102530106Y-81149788D01*
X102530109Y-81149786D01*
X102655048Y-80977820D01*
X102655047Y-80977820D01*
X102655051Y-80977816D01*
X102751557Y-80788412D01*
X102817246Y-80586243D01*
X102850500Y-80376287D01*
X102850500Y-80163713D01*
X102817246Y-79953757D01*
X102751557Y-79751588D01*
X102655051Y-79562184D01*
X102655049Y-79562181D01*
X102655048Y-79562179D01*
X102530109Y-79390213D01*
X102379786Y-79239890D01*
X102207820Y-79114951D01*
X102207115Y-79114591D01*
X102199054Y-79110485D01*
X102148259Y-79062512D01*
X102131463Y-78994692D01*
X102153999Y-78928556D01*
X102199054Y-78889515D01*
X102207816Y-78885051D01*
X102315110Y-78807098D01*
X102379786Y-78760109D01*
X102379788Y-78760106D01*
X102379792Y-78760104D01*
X102530104Y-78609792D01*
X102530106Y-78609788D01*
X102530109Y-78609786D01*
X102655048Y-78437820D01*
X102655047Y-78437820D01*
X102655051Y-78437816D01*
X102751557Y-78248412D01*
X102817246Y-78046243D01*
X102850500Y-77836287D01*
X102850500Y-77623713D01*
X102817246Y-77413757D01*
X102751557Y-77211588D01*
X102655051Y-77022184D01*
X102655049Y-77022181D01*
X102655048Y-77022179D01*
X102530109Y-76850213D01*
X102416569Y-76736673D01*
X102383084Y-76675350D01*
X102388068Y-76605658D01*
X102429940Y-76549725D01*
X102460915Y-76532810D01*
X102592331Y-76483796D01*
X102707546Y-76397546D01*
X102793796Y-76282331D01*
X102844091Y-76147483D01*
X102850500Y-76087873D01*
X102850499Y-74292128D01*
X102844091Y-74232517D01*
X102793796Y-74097669D01*
X102793795Y-74097668D01*
X102793793Y-74097664D01*
X102707547Y-73982455D01*
X102707544Y-73982452D01*
X102592335Y-73896206D01*
X102592328Y-73896202D01*
X102457482Y-73845908D01*
X102457483Y-73845908D01*
X102397883Y-73839501D01*
X102397881Y-73839500D01*
X102397873Y-73839500D01*
X102397864Y-73839500D01*
X100602129Y-73839500D01*
X100602123Y-73839501D01*
X100542516Y-73845908D01*
X100407671Y-73896202D01*
X100407664Y-73896206D01*
X100292455Y-73982452D01*
X100292452Y-73982455D01*
X100206206Y-74097664D01*
X100206202Y-74097671D01*
X100155908Y-74232517D01*
X100149501Y-74292116D01*
X100149501Y-74292123D01*
X100149500Y-74292135D01*
X57390500Y-74292135D01*
X57390500Y-74273713D01*
X57357246Y-74063757D01*
X57291557Y-73861588D01*
X57195051Y-73672184D01*
X57195049Y-73672181D01*
X57195048Y-73672179D01*
X57070109Y-73500213D01*
X56919786Y-73349890D01*
X56747820Y-73224951D01*
X56558414Y-73128444D01*
X56558413Y-73128443D01*
X56558412Y-73128443D01*
X56356243Y-73062754D01*
X56356241Y-73062753D01*
X56356240Y-73062753D01*
X56194957Y-73037208D01*
X56146287Y-73029500D01*
X55933713Y-73029500D01*
X55885042Y-73037208D01*
X55723760Y-73062753D01*
X55521585Y-73128444D01*
X55332179Y-73224951D01*
X55160215Y-73349889D01*
X55046673Y-73463431D01*
X54985350Y-73496915D01*
X54915658Y-73491931D01*
X54859725Y-73450059D01*
X54842810Y-73419082D01*
X54793797Y-73287671D01*
X54793793Y-73287664D01*
X54707547Y-73172455D01*
X54707544Y-73172452D01*
X54592335Y-73086206D01*
X54592328Y-73086202D01*
X54457482Y-73035908D01*
X54457483Y-73035908D01*
X54397883Y-73029501D01*
X54397881Y-73029500D01*
X54397873Y-73029500D01*
X54397864Y-73029500D01*
X52602129Y-73029500D01*
X52602123Y-73029501D01*
X52542516Y-73035908D01*
X52407671Y-73086202D01*
X52407664Y-73086206D01*
X52292455Y-73172452D01*
X52292452Y-73172455D01*
X52206206Y-73287664D01*
X52206202Y-73287671D01*
X52155908Y-73422517D01*
X52149501Y-73482116D01*
X52149500Y-73482135D01*
X43892343Y-73482135D01*
X43892343Y-59624499D01*
X43912028Y-59557460D01*
X43964832Y-59511705D01*
X44016343Y-59500499D01*
X111983658Y-59500499D01*
X112050697Y-59520184D01*
G37*
%TD.AperFunction*%
%TD*%
M02*
