M48
; DRILL file KiCad 10.0.3 date 2026-07-06T19:51:04
; FORMAT={-:-/ absolute / metric / decimal}
; #@! TF.CreationDate,2026-07-06T19:51:04+05:30
; #@! TF.GenerationSoftware,Kicad,Pcbnew,10.0.3
; #@! TF.FileFunction,Plated,1,2,PTH
FMAT,2
METRIC
; #@! TA.AperFunction,Plated,PTH,ComponentDrill
T1C1.000
; #@! TA.AperFunction,Plated,PTH,ComponentDrill
T2C5.000
%
G90
G05
T1
X37.14Y-82.34
X37.14Y-97.58
X39.68Y-82.34
X39.68Y-97.58
X42.22Y-82.34
X42.22Y-97.58
X44.76Y-82.34
X44.76Y-97.58
X47.3Y-82.34
X47.3Y-97.58
X49.84Y-82.34
X49.84Y-97.58
X52.38Y-82.34
X52.38Y-97.58
X54.92Y-82.34
X54.92Y-97.58
X57.46Y-82.34
X57.46Y-97.58
X60.0Y-82.34
X60.0Y-97.58
X62.54Y-82.34
X62.54Y-97.58
X65.08Y-82.34
X65.08Y-97.58
X67.62Y-82.34
X67.62Y-97.58
X70.16Y-82.34
X70.16Y-97.58
X72.7Y-82.34
X72.7Y-97.58
X93.75Y-63.33
X93.75Y-65.87
X93.75Y-68.41
X93.75Y-70.95
X114.295Y-86.14
X114.295Y-88.68
X114.295Y-91.22
X114.295Y-93.76
T2
X44.5Y-71.95
X44.5Y-108.95
X104.5Y-108.95
X105.5Y-71.95
M30
