M48
; DRILL file KiCad 10.0.3 date 2026-07-05T13:27:28
; FORMAT={-:-/ absolute / metric / decimal}
; #@! TF.CreationDate,2026-07-05T13:27:28+05:30
; #@! TF.GenerationSoftware,Kicad,Pcbnew,10.0.3
; #@! TF.FileFunction,Plated,1,2,PTH
FMAT,2
METRIC
; #@! TA.AperFunction,Plated,PTH,ComponentDrill
T1C1.000
; #@! TA.AperFunction,Plated,PTH,ComponentDrill
T2C3.200
%
G90
G05
T1
X53.5Y-74.38
X53.5Y-76.92
X53.5Y-79.46
X53.5Y-82.0
X56.04Y-74.38
X56.04Y-76.92
X56.04Y-79.46
X56.04Y-82.0
X61.64Y-93.0
X61.64Y-108.24
X64.18Y-93.0
X64.18Y-108.24
X66.72Y-93.0
X66.72Y-108.24
X69.26Y-93.0
X69.26Y-108.24
X71.8Y-93.0
X71.8Y-108.24
X74.34Y-93.0
X74.34Y-108.24
X76.88Y-93.0
X76.88Y-108.24
X79.42Y-93.0
X79.42Y-108.24
X81.96Y-93.0
X81.96Y-108.24
X84.5Y-93.0
X84.5Y-108.24
X87.04Y-93.0
X87.04Y-108.24
X89.58Y-93.0
X89.58Y-108.24
X92.12Y-93.0
X92.12Y-108.24
X94.66Y-93.0
X94.66Y-108.24
X97.2Y-93.0
X97.2Y-108.24
X101.5Y-75.19
X101.5Y-77.73
X101.5Y-80.27
X101.5Y-82.81
T2
X47.5Y-63.0
X47.5Y-113.0
X108.5Y-63.0
X108.5Y-113.0
M30
